<!-- Generator: Adobe Illustrator 19.2.0, SVG Export Plug-In  -->
<svg version="1.1"
	 xmlns="http://www.w3.org/2000/svg" xmlns:xlink="http://www.w3.org/1999/xlink" xmlns:a="http://ns.adobe.com/AdobeSVGViewerExtensions/3.0/"
	 x="0px" y="0px" width="25.168px" height="25.168px" viewBox="0 0 25.168 25.168"
	 style="enable-background:new 0 0 25.168 25.168;" xml:space="preserve">
<style type="text/css">
	.st0{fill:#F5CFDB;}
	.st1{fill:#E98DB9;}
	.st2{fill:#FFFFFF;}
	.st3{fill:#E85188;}
</style>
<defs>
</defs>
<g>
	<g>
		<path class="st0" d="M4.583,24.667c-2.251,0-4.082-1.831-4.082-4.082V4.582C0.5,2.331,2.332,0.5,4.583,0.5h16.003
			c2.251,0,4.082,1.831,4.082,4.082v16.003c0,2.251-1.831,4.082-4.082,4.082H4.583z"/>
		<path class="st1" d="M20.586,1c1.975,0,3.582,1.607,3.582,3.582v16.003c0,1.975-1.607,3.582-3.582,3.582H4.583
			C2.607,24.168,1,22.561,1,20.586V4.582C1,2.607,2.607,1,4.583,1H20.586 M20.586,0H4.583C2.056,0,0,2.056,0,4.582v16.003
			c0,2.527,2.056,4.582,4.583,4.582h16.003c2.526,0,4.582-2.056,4.582-4.582V4.582C25.168,2.056,23.112,0,20.586,0L20.586,0z"/>
	</g>
	<path class="st2" d="M19.781,24.417H5.387c-2.556,0-4.636-2.08-4.636-4.636V5.387c0-2.556,2.08-4.636,4.636-4.636h14.393
		c2.556,0,4.636,2.08,4.636,4.636V19.78C24.417,22.337,22.337,24.417,19.781,24.417z M5.387,1.614c-2.081,0-3.774,1.693-3.774,3.773
		V19.78c0,2.081,1.693,3.774,3.774,3.774h14.393c2.081,0,3.773-1.693,3.773-3.774V5.387c0-2.081-1.693-3.773-3.773-3.773H5.387z"/>
	<path class="st3" d="M15.024,6.078h-4.218l-0.001-1.224c-0.001-0.524-0.426-0.949-0.95-0.948c-0.524,0-0.949,0.426-0.948,0.949
		l0.001,1.537C8.038,6.844,7.433,7.745,7.433,8.79v5.067c0,1.492,0.244,3.768,0.542,5.058c0.299,1.291,1.763,2.347,3.254,2.347
		h2.709c1.492,0,2.956-1.086,3.254-2.412c0.298-1.327,0.542-3.632,0.542-5.124V8.79C17.735,7.299,16.515,6.078,15.024,6.078z
		 M12.585,19.194c-0.589,0-1.068-0.479-1.068-1.068c0-0.589,0.479-1.067,1.068-1.067c0.59,0,1.067,0.478,1.067,1.067
		C13.651,18.715,13.175,19.194,12.585,19.194z M15.919,12.331c0,0.298-0.244,0.542-0.542,0.542H9.794
		c-0.298,0-0.542-0.244-0.542-0.542V8.933c0-0.299,0.244-0.542,0.542-0.542h5.583c0.298,0,0.542,0.243,0.542,0.542V12.331z"/>
</g>
</svg>