<!-- Generator: Adobe Illustrator 18.1.0, SVG Export Plug-In  -->
<svg version="1.1"
	 xmlns="http://www.w3.org/2000/svg" xmlns:xlink="http://www.w3.org/1999/xlink" xmlns:a="http://ns.adobe.com/AdobeSVGViewerExtensions/3.0/"
	 x="0px" y="0px" width="280px" height="155px" viewBox="0 0 280 155" overflow="inherit" enable-background="new 0 0 280 155"
	 xml:space="preserve">
<defs>
</defs>
<rect x="0" y="0" fill="#FFFFFF" width="280" height="155"/>
<g>
	<path fill="none" d="M6.852,67.267C6.568,58.773,3.149,53.494,0,50.406v32.093C3.228,79.548,7.093,74.483,6.852,67.267z"/>
	<path fill="none" d="M262.984,118.455c0.16-1.208,0.161-2.983-0.741-4.572c-0.996-1.754-3.241-2.933-5.587-2.933
		c-1.016,0-1.98,0.225-2.785,0.651c-1.74,0.92-2.892,2.848-2.868,4.797c0.027,2.14,1.37,4.004,3.504,4.865
		c0.303,0.123,0.469,0.449,0.385,0.762c-0.076,0.287-0.339,0.483-0.632,0.483c-0.028,0-0.055-0.002-0.083-0.005
		c-2.905-0.361-5.384-2.199-6.632-4.916c-1.013-2.209-1.059-4.5-0.134-6.625c1.031-2.367,3.186-4.26,5.912-5.192
		c1.043-0.357,2.168-0.546,3.347-0.563c-3.645-3.068-6.595-7.165-8.419-11.731c-0.952-2.383-1.628-4.929-2.01-7.575
		c-2.434-0.157-4.696-0.234-6.899-0.234c-2.756,0-5.462,0.12-8.272,0.368c-5.77,0.508-11.04,2.242-14.841,4.882
		c-3.698,2.569-5.86,6.435-6.089,10.883c-0.243,4.727,1.278,9.05,4.285,12.173c2.713,2.819,6.411,4.371,10.414,4.371
		c0.513,0,1.038-0.026,1.558-0.076c3.388-0.33,6.435-1.974,8.359-4.512c1.769-2.332,2.443-5.181,1.899-8.023
		c-0.612-3.185-3.132-5.412-6.422-5.672c-0.185-0.015-0.369-0.022-0.551-0.022c-2.741,0-5.049,1.592-5.878,4.056
		c-0.425,1.262-0.337,2.609,0.245,3.695c0.44,0.822,1.125,1.4,1.931,1.628c0.281,0.079,0.555,0.12,0.815,0.12
		c1.915,0,2.782-2.164,3.128-3.454c0.125-0.454,0.468-0.615,0.747-0.615c0.948,0,1.523,1.977,1.527,1.997
		c0.175,0.967,0.016,1.898-0.148,2.509c-0.719,2.666-3.14,4.459-6.025,4.459c-0.217,0-0.436-0.01-0.657-0.031
		c-2.966-0.276-5.729-2.754-6.569-5.892c-0.791-2.956,0.104-6.433,2.28-8.858c2.217-2.47,5.645-3.945,9.172-3.945
		c0.569,0,1.138,0.039,1.693,0.116c0.732,0.101,1.452,0.27,2.139,0.5c5.581,1.876,8.689,7.867,7.229,13.936
		c-0.917,3.814-3.449,7.22-7.128,9.591c-1.43,0.922-2.993,1.657-4.656,2.19c0.454,0.847,0.931,1.577,1.575,2.251
		c1.504,1.573,3.415,2.911,5.529,3.869c2.976,1.348,6.441,2.115,10.905,2.413c0.331,0.022,0.663,0.033,0.995,0.033
		c3.034,0,6.08-0.932,8.576-2.626C260.331,125.789,262.474,122.317,262.984,118.455z"/>
	<path fill="none" d="M44.927,149.603c-0.084,1.805-0.26,3.62-0.663,5.397h2.889c-0.385-1.021-0.787-2.053-1.224-3.106
		C45.604,151.123,45.269,150.357,44.927,149.603z"/>
	<path fill="none" d="M0,112.608v20.061c1.907-2.782,3.002-6.295,3.002-10.03C3.002,118.904,1.907,115.39,0,112.608z"/>
	<path fill="none" d="M33.962,130.17c-0.161-0.178-0.511-0.313-0.849-0.444l-0.26-0.102c-9.474-3.864-16.181-10.969-19.937-21.117
		c-0.208-0.561-0.408-1.115-0.605-1.663c-1.244-3.45-2.419-6.708-4.92-9.67c-0.315-0.373-0.637-0.761-0.967-1.158
		C4.52,93.726,2.393,91.178,0,89.479v16.608c5.863,3.124,9.789,10.179,9.789,18.062S5.863,139.088,0,142.211V155h6.316
		c-0.463-1.67-0.681-3.423-0.592-5.231c0.369-7.614,6.56-13.578,14.095-13.578c2.315,0,4.536,0.58,6.601,1.724
		c3.648,2.021,5.615,5.812,4.892,9.432c-0.752,3.769-3.514,6.135-7.579,6.493c-0.019,0.002-0.038,0.003-0.058,0.003
		c-0.233,0-0.45-0.123-0.568-0.324c-0.127-0.219-0.114-0.491,0.035-0.696l0.32-0.448c0.206-0.29,0.386-0.542,0.575-0.79
		c1.232-1.604,2.34-3.997,0.626-6.293c-1.058-1.416-2.729-2.228-4.587-2.228c-0.794,0-1.584,0.149-2.35,0.444
		c-3.718,1.429-5.523,5.696-4.198,9.927c0.17,0.543,0.384,1.062,0.627,1.564h25.028c0.147-0.286,0.287-0.578,0.419-0.88
		C43.454,145.26,38.971,135.681,33.962,130.17z"/>
	<path fill="none" d="M245.626,135.674c-1.939-1.337-4.19-2.001-6.573-2.703c-0.934-0.275-1.9-0.56-2.835-0.887
		c-3.567-1.247-6.042-2.733-7.789-4.678c-1.091-1.214-1.874-2.658-2.264-4.174c-0.028-0.113-0.059-0.252-0.09-0.408
		c-0.755,0.101-1.5,0.156-2.224,0.165l-0.19,0.001c-3.387,0-6.593-1.1-10.089-3.462c-0.292-0.197-0.578-0.404-0.849-0.63
		c-1.159-0.968-2.196-2.246-3.264-4.021c-0.449-0.748-0.849-1.493-1.181-2.122c-0.31-0.586-0.585-1.194-0.882-1.87
		c-1.342,6.391-4.014,12.19-11.83,14.07c0.151,0.243,0.326,0.54,0.533,0.902l0.083,0.143c0.383,0.636,0.72,1.276,1.004,1.901
		c0.568,1.257,0.952,2.528,1.138,3.78c0.557,3.708-0.675,8.084-3.068,11.381c0.904-0.214,1.843-0.323,2.807-0.323
		c2.199,0,4.402,0.56,6.375,1.619c3.555,1.91,6.319,5.225,7.585,9.097c0.168,0.515,0.314,1.031,0.44,1.546h17.251
		c-0.306-1.072-0.512-2.197-0.593-3.348c-0.326-4.653,1.36-8.644,4.624-10.952c1.583-1.119,3.368-1.687,5.307-1.687
		c4.414,0,8.278,2.979,9.326,5.739c0.109,0.287-0.001,0.608-0.262,0.772c-0.108,0.067-0.23,0.101-0.35,0.101
		c-0.172,0-0.343-0.067-0.47-0.195c-0.027-0.028-2.823-2.814-6.565-2.814c-1.665,0-3.293,0.551-4.838,1.638
		c-2.723,1.918-3.882,5.218-3.101,8.828c0.147,0.678,0.371,1.312,0.63,1.918h16.584c0.298-0.496,0.58-1.027,0.846-1.593
		C253.617,147.524,251.272,139.569,245.626,135.674z"/>
	<path fill="none" d="M129.701,149.204c0.589-4.959,4.047-8.916,8.605-9.846c0.735-0.15,1.486-0.226,2.232-0.226
		c3.958,0,7.622,2.084,9.802,5.575c0.311,0.497,0.576,1.005,0.863,1.571c0.083-0.287,0.166-0.573,0.248-0.856
		c0.49-1.7,0.953-3.306,1.491-4.899c2.465-7.302,5.611-12.611,9.9-16.707c4.557-4.352,10.054-6.652,15.897-6.652
		c4.17,0,8.432,1.226,12.324,3.545c0.478,0.285,1.204,0.455,1.94,0.455c0.335,0,0.657-0.037,0.93-0.106
		c4.27-1.076,7.023-3.783,8.93-8.896c-0.424,0.379-0.813,0.709-1.232,1.019c-1.568,1.159-3.401,1.772-5.302,1.772
		c-1.87,0-3.651-0.593-5.154-1.715c-3.03-2.262-4.167-6.367-2.768-9.981c1.06-2.735,3.856-4.645,6.8-4.645
		c1.119,0,2.205,0.285,3.139,0.823c2.348,1.355,3.296,4.222,2.112,6.392c-0.569,1.042-1.747,2.315-3.194,2.473
		c-0.063,0.007-0.126,0.01-0.19,0.01c-0.485,0-0.971-0.196-1.301-0.525c-0.277-0.277-0.428-0.632-0.424-1.001
		c0.005-0.72,0.537-1.182,0.926-1.519l0.136-0.119c0.49-0.44,0.906-1.191,0.662-1.799c-0.13-0.322-0.463-0.603-0.869-0.732
		c-0.203-0.065-0.43-0.097-0.674-0.097c-0.226,0-0.467,0.028-0.72,0.082c-1.407,0.302-2.66,1.386-3.192,2.76
		c-0.535,1.383,0.141,3.288,1.104,4.331c0.974,1.054,2.301,1.635,3.736,1.635c0.886,0,1.785-0.233,2.599-0.672
		c2.527-1.364,4.166-3.623,5.313-7.322c0.201-0.648,0.327-1.316,0.462-2.023c0.091-0.483,0.184-0.967,0.299-1.444
		c2.044-8.415,7.671-13.784,16.724-15.961c2.241-0.539,4.548-0.947,6.779-1.341c0.449-0.08,0.899-0.159,1.349-0.24
		c-1.134-0.629-2.307-1.28-3.315-2.133c-2.797-2.366-3.956-5.433-3.35-8.868c0.527-2.995,2.354-5.079,5.281-6.025
		c0.865-0.28,1.709-0.422,2.51-0.422c1.747,0,3.306,0.662,4.635,1.966c0.939,0.922,1.536,2.077,1.727,3.338
		c0.005,0.032,0.469,3.198-0.656,4.345c-0.129,0.131-0.299,0.197-0.47,0.197c-0.164,0-0.328-0.06-0.454-0.182
		c-0.13-0.123-0.196-0.287-0.2-0.451c-0.122-0.46-0.963-2.529-1.126-2.801c-0.628-0.895-1.674-1.478-2.719-1.506h-0.002
		c-1.641,0-3.152,1.224-3.449,2.729c-0.234,1.186,0.188,2.575,1.159,3.81c1.473,1.877,3.904,3.21,7.223,3.963
		c3.327,0.756,6.317,1.2,9.116,1.354c-0.118-5.497,1.044-10.836,3.373-15.485c3.128-6.244,5.389-8.82,7.455-10.729
		c-7.729-0.183-15.853-2.225-23.005-5.795c-6.124-3.058-11.406-7.132-15.466-11.906c1.808,5.882,2.929,11.973,3.411,18.507
		c0.135,1.758,0.245,3.637-0.022,5.556c-0.542,3.907-2.218,7.53-4.719,10.201c-3.054,3.264-7.552,5.214-12.031,5.214
		c-1.821,0-3.566-0.32-5.187-0.95c-6.011-2.337-9.753-9.281-8.172-15.162c1.268-4.723,6.228-8.423,11.291-8.423
		c1.319,0,2.582,0.247,3.755,0.734c0.297,0.123,0.459,0.443,0.381,0.752c-0.073,0.29-0.336,0.49-0.634,0.49
		c-0.02,0-0.04-0.001-0.059-0.003c-0.178-0.016-0.356-0.024-0.533-0.024c-1.915,0-3.834,0.898-5.267,2.464
		c-1.39,1.519-2.08,3.429-1.893,5.241c0.349,3.387,3.708,6.249,7.337,6.249c0.608,0,1.202-0.085,1.765-0.253
		c2.162-0.643,4.115-2.386,5.357-4.781c1.246-2.404,1.683-5.179,1.924-7.328c1.134-10.11-0.656-20.403-5.064-29.55
		c0.634,5.339-1.035,11.038-4.745,15.238c-4.019,4.549-10.303,7.265-16.81,7.265c-1.304,0-2.605-0.11-3.869-0.327
		c-6.237-1.072-11.776-4.691-14.817-9.683c-3.278-5.378-3.492-12.2-0.546-17.379c2.622-4.609,7.917-7.706,13.175-7.706
		c0.841,0,1.677,0.078,2.487,0.233c4.89,0.932,8.833,4.778,9.377,9.144c0.291,2.33-0.548,4.851-2.243,6.744
		c-1.524,1.702-3.573,2.678-5.62,2.679h-0.002c-0.142,0-0.283-0.005-0.426-0.014c-0.293-0.018-0.538-0.228-0.598-0.512
		c-0.059-0.284,0.079-0.573,0.341-0.706c1.196-0.61,2.066-1.814,2.389-3.304c0.354-1.639-0.004-3.324-0.96-4.507
		c-1.1-1.364-2.95-2.178-4.947-2.178c-1.294,0-2.527,0.331-3.565,0.956c-2.619,1.579-4.148,4.863-3.805,8.173
		c0.314,3.022,2.082,5.985,4.852,8.13c2.593,2.008,5.97,3.113,9.508,3.113c3.648,0,7.108-1.165,9.743-3.279
		c3.745-3.005,6.03-7.846,6.111-12.949c0.078-4.769-1.691-9.642-4.981-13.72c-2.864-3.552-6.704-6.306-10.417-8.97
		c-1.389-0.997-2.815-2.029-4.191-3.093h-52.89c-1.876,2.494-4.635,4.272-7.734,4.738c-0.033,0.005-0.066,0.007-0.098,0.007
		c-0.244,0-0.472-0.135-0.584-0.355c-0.128-0.249-0.078-0.552,0.123-0.749c0.037-0.037,1.509-1.508,2.977-3.641h-12.676
		c0.695,4.518,2.393,8.718,5.029,12.295c1.784,2.421,4.018,4.607,6.639,6.496l0.16,0.116c1.413,1.02,2.874,2.074,4.461,2.743
		c0.516,0.218,2.411,0.79,3.615,0.79c0.523,0,0.659-0.109,0.66-0.11c-0.035-0.201-0.562-1.052-0.814-1.46
		c-0.203-0.328-0.379-0.618-0.466-0.808c-0.486-1.054-0.833-1.947-1.092-2.81c-0.632-2.101-0.754-4.2-0.36-6.237
		c1.018-5.271,5.856-9.564,11.252-9.985c0.258-0.02,0.517-0.03,0.775-0.03c4.551,0,8.753,3.099,10.218,7.536
		c0.983,2.977,0.623,6.175-0.966,8.555c-1.307,1.957-3.272,3.145-5.534,3.347c-0.196,0.017-0.392,0.026-0.585,0.026
		c-2.798,0-5.302-1.827-6.087-4.445c-0.53-1.763-0.406-4.212,3.192-5.863c0.089-0.041,0.183-0.06,0.276-0.06
		c0.164,0,0.326,0.061,0.45,0.177c0.194,0.182,0.257,0.463,0.157,0.709l-0.2,0.489c-0.11,0.268-0.203,0.495-0.291,0.723
		c-0.61,1.588-0.156,2.801,1.313,3.507c0.38,0.183,0.755,0.276,1.117,0.276c0.843,0,1.67-0.525,2.327-1.479
		c1.222-1.774,1.245-3.703,0.069-5.898c-1.102-2.055-2.841-3.098-5.169-3.098c-0.14,0-0.281,0.004-0.424,0.011
		c-2.38,0.127-4.52,1.219-6.028,3.076c-1.53,1.886-2.175,4.335-1.772,6.721c0.605,3.566,2.552,6.505,6.127,9.248
		c2.056,1.576,4.12,2.984,6.135,4.186c13.767,8.209,19.003,19.918,16.008,35.797c-0.999,5.285-0.945,10.866-0.786,15.136
		c0.06,1.642,0.959,3.612,2.744,6.021c0.891,1.202,2.409,1.92,4.061,1.92c0.782,0,1.547-0.163,2.215-0.471
		c2.078-0.958,2.883-2.648,2.536-5.318c-0.027-0.208-0.042-0.419-0.059-0.701l-0.032-0.475c-0.021-0.28,0.144-0.54,0.407-0.646
		c0.08-0.032,0.163-0.047,0.246-0.047c0.19,0,0.375,0.081,0.502,0.232c1.849,2.18,2.735,4.729,2.496,7.177
		c-0.209,2.14-1.289,4.091-3.041,5.494c-1.48,1.186-3.465,1.839-5.587,1.839c-3.263,0-6.462-1.524-8.347-3.978
		c-3.315-4.314-3.374-9.369-2.942-14.19c0.102-1.148,0.266-2.287,0.423-3.321c-0.129,0.118-0.257,0.237-0.386,0.355
		c-2.429,2.241-4.94,4.558-8.504,4.558c-0.315,0-0.636-0.018-0.967-0.057c-2.451-0.288-4.764-1.679-6.344-3.816
		c-1.634-2.211-2.291-4.905-1.802-7.392c0.717-3.644,3.02-6.082,6.659-7.051c0.531-0.141,1.081-0.213,1.636-0.213
		c1.713,0,3.368,0.672,4.54,1.844c1.013,1.012,1.562,2.316,1.545,3.672c-0.034,2.857-2.302,5.011-5.277,5.011
		c-0.137,0-0.275-0.005-0.414-0.015c-0.836-0.059-1.415-0.503-1.475-1.133c-0.06-0.635,0.441-1.122,0.968-1.276
		c0.27-0.079,0.525-0.084,0.748-0.087c0.078-0.001,0.156-0.002,0.233-0.008c0.862-0.064,1.637-0.922,1.657-1.836
		c0.02-0.909-0.639-1.837-1.568-2.204c-0.33-0.131-0.691-0.197-1.07-0.197c-0.645,0-1.308,0.195-1.868,0.547
		c-0.853,0.539-1.521,1.438-1.881,2.533c-0.593,1.807-0.276,3.737,0.871,5.294c1.159,1.574,2.951,2.514,4.791,2.514
		c1.081,0,2.12-0.319,3.086-0.949c5.269-3.436,7.659-8.798,7.103-15.937c-0.458-5.893-3.914-10.277-9.994-12.676
		c-0.842-0.332-1.672-0.501-2.466-0.501c-1.49,0-2.753,0.605-3.654,1.749c-0.814,1.037-1.277,2.921-1.076,4.384
		c0.194,1.422,0.915,2.874,4.78,2.874c0.127,0,0.396-0.005,0.396-0.005c0.262,0,0.496,0.148,0.602,0.38
		c0.108,0.237,0.062,0.514-0.116,0.705c-1.255,1.339-2.754,2.019-4.456,2.019c-0.787,0-1.622-0.149-2.48-0.443
		c-3.074-1.051-5.122-3.734-5.344-7.001c-0.234-3.45,1.587-6.663,4.641-8.186c1.425-0.71,3.02-1.07,4.742-1.07
		c2.428,0,5.007,0.735,7.263,2.071c2.63,1.557,4.748,3.73,6.604,6.042c-1.294-3.962-3.985-7.718-7.782-10.801
		c-3.718-3.017-8.326-5.387-14.941-7.683c-3.851-1.336-9.642-3.114-15.46-3.114c-1.223,0-2.429,0.077-3.584,0.23
		c-3.316,0.436-5.871,1.506-7.594,3.179c-1.764,1.712-2.903,4.736-1.665,7.202c0.82,1.633,2.664,2.73,4.588,2.73
		c0.389,0,0.771-0.047,1.135-0.138c2.202-0.557,3.853-2.748,3.758-4.989l1.308-0.053c-0.003-0.064-0.018-0.102-0.018-0.102
		c0.042,0.103,0.271,0.401,0.407,0.579c0.24,0.311,0.446,0.581,0.546,0.825c0.228,0.565,0.357,1.18,0.404,1.935
		c0.066,1.051-0.142,2.003-0.596,2.788c4.82,0.201,9.409,2.903,11.809,7c5.566,9.497-2.349,20.295-9.026,25.235
		c-1.788,1.323-3.856,2.622-6.322,3.97c-0.161,0.087-0.486,0.238-0.903,0.43c-2.107,0.97-3.421,1.683-3.919,2.126
		c0.079,0.006,0.179,0.011,0.302,0.011c0.478,0,1.048-0.074,1.506-0.133c0.282-0.037,0.522-0.067,0.68-0.075l0.809-0.042
		c1.079-0.056,2.157-0.111,3.235-0.158c2.06-0.089,3.733-0.131,5.266-0.131c1.041,0,2.006,0.019,2.95,0.057
		c10.146,0.413,18.482,3.27,25.481,8.733c9.993,7.8,13.164,21.294,7.377,31.389c-4.091,7.136-11.522,11.396-19.877,11.396
		c-8.212,0-15.951-4.151-20.704-11.105c-6.163-9.019-5.215-19.673,2.36-26.513c3.048-2.752,7.249-4.267,11.828-4.267
		c7.968,0,15.144,4.331,17.854,10.778c2.155,5.123,0.547,11.29-3.825,14.663c-1.88,1.45-4.357,2.249-6.977,2.25
		c-2.771,0-5.487-0.882-7.648-2.482c-2.856-2.117-4.202-5.035-4.114-8.922c0.006-0.275,0.187-0.515,0.452-0.6
		c0.067-0.021,0.135-0.032,0.202-0.032c0.201,0,0.395,0.092,0.521,0.255c0.163,0.213,0.302,0.386,0.421,0.535
		c0.232,0.291,0.398,0.501,0.541,0.726c1.478,2.341,3.743,3.738,6.06,3.738c0.906,0,1.788-0.21,2.623-0.624
		c2.888-1.434,4.102-5.671,2.597-9.067c-1.706-3.85-5.953-6.436-10.57-6.436c-2.164,0-4.212,0.585-5.922,1.69
		c-4.83,3.122-6.977,8.47-5.744,14.307c1.783,8.448,9.986,15.065,18.674,15.065c1.055,0,2.103-0.102,3.116-0.303
		c8.104-1.609,14.077-9.82,13.597-18.694c-0.385-7.131-3.929-12.689-10.533-16.52c-6.547-3.797-13.955-5.722-22.019-5.722
		c-2.087,0-4.25,0.129-6.43,0.385c-5.266,0.617-10.585,1.655-15.728,2.659c-2.786,0.543-5.667,1.105-8.511,1.596
		c-4.308,0.742-7.866,1.088-11.196,1.088c-3.101,0-6.04-0.299-8.93-0.91c3.352,4.24,4.663,8.549,4.066,13.347
		c0.656-0.427,1.244-0.808,1.85-1.162c2.617-1.529,5.626-2.338,8.706-2.338c7.317,0,13.801,4.492,15.765,10.923
		c1.738,5.691,0.396,10.983-3.883,15.304c-2.61,2.635-5.677,3.972-9.118,3.972c-1.437,0-2.938-0.241-4.463-0.715
		c-2.789-0.867-5.027-2.852-6.14-5.446c-1.035-2.409-0.968-5.094,0.181-7.368c1.221-2.412,3.642-3.911,6.319-3.911
		c2.511,0,4.668,1.328,5.628,3.466c0.1,0.223,0.065,0.483-0.092,0.671c-0.125,0.152-0.312,0.237-0.506,0.237
		c-0.047,0-0.095-0.005-0.142-0.016c-0.267-0.058-0.52-0.118-0.766-0.176c-0.493-0.116-0.951-0.225-1.413-0.296
		c-0.326-0.05-0.641-0.075-0.935-0.075c-1.584,0-2.641,0.703-3.233,2.149c-0.817,1.997-0.376,3.674,1.311,4.984
		c0.98,0.762,2.315,1.181,3.759,1.181c1.348,0,2.677-0.353,3.844-1.022c3.893-2.23,5.763-7.501,4.169-11.75
		c-1.432-3.819-5.818-6.699-10.2-6.699c-0.573,0-1.142,0.05-1.688,0.149c-3.337,0.605-6.074,2.429-8.873,5.915
		c-1.042,1.297-2.063,2.614-3.084,3.931c-2.631,3.394-5.352,6.904-8.408,10.017c-5.666,5.77-12.319,8.948-18.737,8.948
		c-0.991,0-1.986-0.075-2.97-0.223c1.172,3.217,5.184,13.424,12.129,23.349h11.728c-0.043-0.616-0.056-1.235-0.026-1.856
		c0.246-5.214,2.312-9.638,6.141-13.15c4.233-3.881,9.864-6.019,15.858-6.019c11.631,0,21.783,7.646,24.139,18.18
		c0.219,0.978,0.377,1.92,0.503,2.845h3.273c0.373-1.249,1.532-2.17,2.916-2.17c1.385,0,2.544,0.92,2.916,2.17h7.17
		C129.884,153.253,129.469,151.165,129.701,149.204z M211.155,76.426c1.719,0,3.118,1.382,3.118,3.079
		c0,1.698-1.399,3.079-3.118,3.079c-1.72,0-3.119-1.382-3.119-3.079C208.036,77.808,209.435,76.426,211.155,76.426z M199.875,78.208
		c1.701,0,3.084,1.366,3.084,3.045c0,1.679-1.383,3.045-3.084,3.045c-1.701,0-3.083-1.366-3.083-3.045
		C196.792,79.574,198.175,78.208,199.875,78.208z M191.372,74.712c1.911,0,3.465,1.535,3.465,3.422c0,1.887-1.554,3.422-3.465,3.422
		c-1.911,0-3.465-1.535-3.465-3.422C187.907,76.248,189.461,74.712,191.372,74.712z M184.673,57.305
		c1.777,0,3.223,1.428,3.223,3.182c0,1.754-1.446,3.182-3.223,3.182c-1.777,0-3.222-1.428-3.222-3.182
		C181.451,58.732,182.896,57.305,184.673,57.305z M184.639,67.311c1.796,0,3.257,1.443,3.257,3.217c0,1.773-1.461,3.216-3.257,3.216
		c-1.797,0-3.258-1.443-3.258-3.216C181.381,68.754,182.843,67.311,184.639,67.311z M79.134,134.262
		c-1.366,0-2.476-1.097-2.476-2.446c0-1.348,1.11-2.445,2.476-2.445c1.366,0,2.477,1.097,2.477,2.445
		C81.611,133.164,80.5,134.262,79.134,134.262z M91.521,131.984c-1.098,0-1.992-0.882-1.992-1.967c0-1.085,0.894-1.967,1.992-1.967
		c1.099,0,1.993,0.883,1.993,1.967C93.514,131.102,92.62,131.984,91.521,131.984z M103.148,134.262
		c-1.302,0-2.361-1.046-2.361-2.332c0-1.286,1.059-2.331,2.361-2.331c1.302,0,2.361,1.046,2.361,2.331
		C105.509,133.215,104.45,134.262,103.148,134.262z M111.961,140.365c-1.531,0-2.777-1.23-2.777-2.742
		c0-1.512,1.245-2.742,2.777-2.742c1.531,0,2.776,1.23,2.776,2.742C114.737,139.135,113.492,140.365,111.961,140.365z
		 M117.451,148.929c-1.658,0-3.006-1.332-3.006-2.969c0-1.637,1.348-2.97,3.006-2.97c1.659,0,3.008,1.332,3.008,2.97
		C120.459,147.597,119.109,148.929,117.451,148.929z"/>
	<path fill="none" d="M147.699,148.001c-1.49-2.857-3.961-4.43-6.958-4.43c-0.194,0-0.39,0.007-0.59,0.019
		c-2.146,0.138-4.103,1.385-5.234,3.334c-1.135,1.955-1.233,4.268-0.261,6.185c0.445,0.876,1.132,1.52,1.978,1.891h3.593
		c0.284-0.141,0.523-0.319,0.688-0.534c0.343-0.444,0.461-1.114,0.323-1.836c-0.073-0.386-0.21-0.789-0.446-1.306
		c-0.024-0.054-0.061-0.117-0.101-0.187c-0.216-0.379-0.543-0.953-0.281-1.518c0.233-0.5,0.671-0.785,1.202-0.785
		c1.335,0,3.037,1.912,3.416,2.908c0.387,1.02,0.404,2.168,0.112,3.258h4.377c-0.058-0.572-0.127-1.14-0.216-1.703
		C148.957,151.121,148.449,149.438,147.699,148.001z"/>
	<path fill="none" d="M187.304,150.673c0.209-0.873,0.554-1.721,1.02-2.521c-0.369,0.132-0.746,0.252-1.126,0.36
		c-0.983,0.279-1.787,0.404-2.606,0.404c-0.348,0-0.691-0.023-1.051-0.069c-1.436-0.187-2.774-0.652-4.005-1.127
		c-2.158-0.833-3.778-1.877-4.952-3.191c-2.295-2.567-2.304-5.767-1.907-7.999c0.775-4.346,3.952-6.941,8.5-6.941
		c0.641,0,1.315,0.051,2.002,0.151c0.279,0.041,0.501,0.255,0.549,0.53c0.048,0.275-0.09,0.55-0.339,0.68l-0.884,0.459
		c-0.484,0.25-0.871,0.451-1.257,0.659c-2.488,1.34-3.632,4.13-2.719,6.633c0.785,2.157,2.662,3.444,5.022,3.444
		c0.359,0,0.73-0.03,1.103-0.089c3.842-0.613,6.828-3.656,7.603-7.751c0.733-3.866-1.741-8.568-5.63-10.704
		c-2.966-1.629-6.01-2.455-9.048-2.455c-5.583,0-10.855,2.87-14.845,8.08c-1.845,2.411-3.4,5.148-4.621,8.135
		c-0.902,2.205-2.263,5.536-2.659,8.385c-0.424,3.063-0.798,6.167-1.152,9.253h13.65c1.058-2.098,2.49-3.991,4.255-5.524
		c0.123-0.107,0.278-0.16,0.432-0.16c0.148,0,0.296,0.049,0.418,0.149c0.248,0.203,0.309,0.554,0.145,0.827
		c-0.886,1.471-1.525,3.063-1.939,4.709h16.097C187.006,153.602,186.957,152.114,187.304,150.673z"/>
	<path fill="none" d="M88.912,139.156c-4.866,0-9.476,1.667-12.648,4.575c-3.104,2.845-4.636,7.262-4.168,11.27h19.431
		c-1.16-1.888-3.337-3.06-5.689-3.06c-0.486,0-0.973,0.051-1.447,0.152c-0.439,0.093-0.877,0.194-1.348,0.301l-0.707,0.161
		c-0.048,0.01-0.098,0.016-0.146,0.016c-0.223,0-0.435-0.113-0.557-0.306c-0.147-0.234-0.127-0.535,0.05-0.749
		c2.014-2.429,4.623-3.713,7.544-3.713c1.12,0,2.291,0.188,3.48,0.558c3.67,1.142,6.492,3.601,7.823,6.64h7.193
		c-0.521-3.845-2.195-7.554-4.967-10.398C99.381,141.141,94.334,139.156,88.912,139.156z"/>
	<path fill="none" d="M196.999,147.634c-0.809,0-1.594,0.118-2.335,0.351c-1.542,0.486-2.841,1.461-3.566,2.675
		c-0.775,1.301-0.879,2.938-0.265,4.171c0.029,0.059,0.067,0.112,0.1,0.169h5.596c0.128-0.32,0.192-0.659,0.168-1
		c-0.017-0.227,0.09-0.447,0.279-0.577c0.112-0.076,0.241-0.115,0.373-0.115c0.093,0,0.186,0.019,0.273,0.059
		c0.727,0.33,1.293,0.924,1.666,1.632h7.182c-0.492-1.461-1.208-2.793-2.153-3.901C202.495,148.961,199.69,147.634,196.999,147.634z
		"/>
	<path fill="none" d="M19.291,30.312c0.578-1.079,1.103-2.035,1.705-2.946c2.718-4.108,6.768-6.464,11.111-6.464
		c1.51,0,3.026,0.282,4.506,0.837c4.188,1.571,6.53,5.187,6.266,9.674c-0.241,4.096-2.822,7.229-6.738,8.177
		c-0.643,0.156-1.263,0.235-1.843,0.235c-2.256,0-4.16-1.168-5.991-3.675c-0.159-0.218-0.165-0.51-0.015-0.734
		c0.123-0.184,0.329-0.29,0.546-0.29c0.048,0,0.096,0.005,0.144,0.016c0.309,0.069,0.604,0.14,0.89,0.209
		c0.571,0.138,1.112,0.269,1.642,0.348c0.296,0.044,0.59,0.067,0.876,0.067c2.085,0,3.708-1.143,4.342-3.059
		c0.727-2.2-0.375-4.56-2.623-5.611c-0.869-0.407-1.804-0.613-2.778-0.613c-1.952,0-3.938,0.839-5.595,2.363
		c-5.268,4.848-6.971,13.308-8.34,20.106l-0.087,0.433c-0.28,1.388-0.55,2.78-0.82,4.174c-1.333,6.871-2.712,13.975-5.331,20.639
		c-1.417,3.608-3.829,8.487-7.42,11.806c2.014,1.252,5.296,3.515,8.987,6.941c2.358-8.675,8.106-14.396,14.176-20.438
		c1.966-1.956,3.999-3.98,5.926-6.125c2.533-2.817,4.259-5.1,5.598-7.403c1.545-2.661,2.522-5.64,2.824-8.614
		c0.157-1.545,0.138-3.099-0.057-4.619c-0.098-0.759-0.019-1.235,0.256-1.544c0.176-0.197,0.421-0.305,0.689-0.305
		c0.319,0,0.85,0.128,1.789,1.241c0.911,1.077,1.631,2.311,2.143,3.669c0.848,2.249,1.036,4.556,0.566,6.889
		c0.08-0.081,0.153-0.159,0.215-0.232c0.732-0.86,1.444-1.757,2.116-2.668c1.342-1.818,2.571-3.746,3.654-5.734
		c1.089-2.002,2.049-4.18,2.935-6.657c0.402-1.128,0.704-2.322,0.996-3.477c0.182-0.719,0.364-1.439,0.57-2.151
		c0.013-0.047,0.028-0.113,0.046-0.191c0.142-0.621,0.407-1.778,1.359-1.778c0.201,0,0.401,0.059,0.594,0.178
		c0.615,0.378,0.689,1.242,0.737,1.814l0.012,0.127c0.678,6.984-1.942,13.739-4.26,18.176c-3.747,7.171-9.572,11.468-15.738,16.018
		c-1.213,0.895-2.462,1.816-3.697,2.763c2.579-0.772,5.691-2.232,6.876-2.867c2.502-1.344,4.886-2.797,7.085-4.319
		c4.589-3.177,8.612-6.817,11.955-10.819c4.06-4.859,7.282-10.442,9.576-16.593c2.763-7.411,3.535-14.141,2.362-20.577
		c-1.156-6.344-4.855-10.61-10.152-11.702c-0.585-0.121-1.194-0.182-1.808-0.182c-3.219,0-6.446,1.688-8.028,4.2
		c-0.9,1.427-1.67,3.734-0.23,6.621c0.764,1.531,2.053,2.61,3.448,2.887c0.207,0.041,0.422,0.062,0.639,0.062
		c1.34,0,2.554-0.741,2.951-1.803c0.238-0.633,0.111-1.419-0.329-2.051c-0.374-0.537-0.905-0.848-1.454-0.853
		c-0.302-0.003-0.563-0.209-0.631-0.5c-0.068-0.29,0.073-0.589,0.343-0.723c0.536-0.268,1.124-0.404,1.746-0.404
		c2.119,0,4.162,1.58,4.651,3.597c0.597,2.467-0.849,5.242-3.365,6.457c-0.993,0.479-2.101,0.722-3.295,0.722
		c-1.37,0-2.786-0.325-4.097-0.94c-2.985-1.401-5.244-4.129-6.042-7.298c-0.693-2.751-0.241-5.528,1.384-8.463
		C46.173,5.63,42.776,3.235,40.592,0H23.161c-3.129,9.349-3.451,18.429-3.762,27.313C19.365,28.316,19.329,29.315,19.291,30.312z
		 M16.71,76.091c-1.505,0-2.729-1.209-2.729-2.696s1.224-2.696,2.729-2.696c1.506,0,2.731,1.209,2.731,2.696
		S18.216,76.091,16.71,76.091z M21.831,67.481c-1.696,0-3.076-1.363-3.076-3.037c0-1.675,1.38-3.038,3.076-3.038
		c1.696,0,3.077,1.363,3.077,3.038C24.908,66.119,23.528,67.481,21.831,67.481z M24.427,55.592c-1.64,0-2.973-1.317-2.973-2.935
		c0-1.618,1.333-2.935,2.973-2.935c1.639,0,2.973,1.317,2.973,2.935C27.399,54.276,26.066,55.592,24.427,55.592z M26.976,3.327
		c1.429,0,2.592,1.148,2.592,2.559c0,1.411-1.163,2.56-2.592,2.56c-1.429,0-2.592-1.148-2.592-2.56
		C24.384,4.475,25.547,3.327,26.976,3.327z M24.808,13.986c1.302,0,2.361,1.046,2.361,2.331c0,1.286-1.059,2.332-2.361,2.332
		c-1.302,0-2.361-1.046-2.361-2.332C22.447,15.032,23.506,13.986,24.808,13.986z"/>
	<path fill="none" d="M17.225,6.039C17.517,4.686,18.045,2.62,18.949,0h-6.853C14.172,1.355,15.804,3.604,17.225,6.039z"/>
	<path fill="none" d="M205.786,11.849c3.137,5.255,6.643,10.277,10.421,14.927c3.969,4.885,7.935,9.549,12.827,12.938
		c5.904,4.09,12.219,7.037,18.769,8.759c1.514,0.398,3.02,0.722,4.474,0.963c1.851,0.306,3.747,0.461,5.634,0.461
		c8.396,0,17.149-3.092,22.087-9.775V14.893c-1.979-2.631-4.846-4.279-8.73-5.016c-1.234-0.234-2.524-0.353-3.835-0.353
		c-6.654,0-13.471,2.987-17.792,7.796c-0.46,0.512-0.885,1.04-1.263,1.569c-3.309,4.62-3.705,10.805-0.962,15.041
		c2.043,3.155,5.85,5.193,9.701,5.193c0.378,0,0.759-0.02,1.13-0.059c4.202-0.445,8.013-3.372,9.484-7.284
		c1.353-3.601,0.667-7.318-2.095-11.363l-0.124-0.177l1.078-0.734c-0.054-0.077-0.107-0.11-0.107-0.11
		c0.13,0.079,0.657,0.224,0.971,0.31c0.477,0.131,0.778,0.217,0.978,0.321c0.818,0.429,1.612,1.036,2.357,1.804
		c1.119,1.154,2.177,2.887,2.902,4.754c1.403,3.61,0.897,7.935-1.318,11.287c-2.605,3.943-7.342,6.56-12.672,7
		c-0.529,0.044-1.069,0.066-1.603,0.066c-8.683,0.001-16.626-5.636-19.316-13.708c-4.244-12.721,5.159-22.581,16.359-26.709
		c3.16-1.165,6.456-1.755,9.795-1.755c5.38,0,10.658,1.588,15.066,4.407V0h-2.193c-2.798,1.831-5.993,2.829-9.319,2.829h-0.002
		c-2.247,0-4.512-0.448-6.735-1.33c-1.025-0.407-1.968-0.919-2.83-1.498h-18.492c0.181,0.389,0.289,0.818,0.289,1.273
		c0,1.692-1.394,3.068-3.107,3.068s-3.107-1.376-3.107-3.068c0-0.455,0.108-0.884,0.289-1.273h-4.436
		c-7.427,5.749-16.653,9.276-26.079,9.537C204.668,10.062,205.158,10.803,205.786,11.849z M230.858,6.658
		c1.509,0,2.736,1.212,2.736,2.702c0,1.49-1.228,2.702-2.736,2.702c-1.509,0-2.737-1.212-2.737-2.702
		C228.121,7.87,229.349,6.658,230.858,6.658z M221.923,10.77c1.496,0,2.713,1.202,2.713,2.679c0,1.478-1.217,2.68-2.713,2.68
		c-1.497,0-2.714-1.202-2.714-2.68C219.209,11.972,220.426,10.77,221.923,10.77z"/>
	<path fill="none" d="M116.673,16.029l-0.046-0.061c-2.058-2.735-4.186-5.564-5.493-8.871C110.25,4.862,109.622,2.47,109.249,0
		H96.623C101.537,8.624,108.546,15.249,116.673,16.029z"/>
	<path fill="none" d="M256.468,149.906c-0.018,1.91-0.324,3.612-0.915,5.094h7.223C260.526,153.709,258.415,152.013,256.468,149.906
		z"/>
	<path fill="none" d="M67.747,0.978c2.151,0.779,4.041,1.946,5.617,3.468c1.73,1.669,3.116,3.774,4.181,6.361
		c-0.038-0.319-0.077-0.637-0.116-0.954c-0.294-2.396-0.597-4.874-0.6-7.349C76.828,1.826,76.841,0.968,76.875,0h-15.01
		c0.674,0.134,1.391,0.226,2.154,0.301C65.274,0.425,66.572,0.552,67.747,0.978z"/>
	<path fill="none" d="M81.665,6.989c0.037,1.966,0.076,3.998,0.037,6.002c-0.377,19.662-7.324,37.286-19.057,48.353
		c-5.623,5.304-12.662,9.595-21.509,13.112c5.117,0.46,10.168,2.821,14.092,6.635c4.554,4.427,7.23,10.708,7.158,16.802
		c-0.059,5.016-1.961,9.403-5.499,12.686c-2.535,2.352-5.992,3.701-9.486,3.701c-3.205,0-6.21-1.111-8.464-3.13
		c-3.189-2.858-4.321-6.448-3.274-10.383c0.932-3.501,3.245-5.732,7.072-6.821c0.059-0.017,0.121-0.025,0.181-0.025
		c0.216,0,0.423,0.106,0.546,0.29c0.158,0.235,0.143,0.545-0.037,0.764l-0.461,0.565c-0.213,0.264-0.343,0.423-0.48,0.574
		c-3.203,3.514-3.372,7.182-0.462,10.062c1.444,1.429,3.346,2.216,5.357,2.216c2.065,0,4.073-0.827,5.654-2.328
		c3.236-3.074,4.15-7.064,2.796-12.2c-1.864-7.06-8.999-12.484-16.967-12.895c-0.425-0.022-0.848-0.033-1.265-0.033
		c-8.138,0-14.56,4.24-17.621,11.632c-3.905,9.434-0.852,20.64,7.424,27.251c5.016,4.008,10.596,6.126,16.136,6.126
		c4.748,0,9.318-1.504,13.584-4.471c10.191-7.088,14.613-16.338,13.14-27.494c-0.566-4.297-2.684-8.404-6.125-11.876
		c-0.2-0.203-0.244-0.511-0.107-0.761c0.116-0.211,0.339-0.337,0.575-0.337c0.044,0,0.087,0.004,0.13,0.013
		c1.243,0.25,2.491,0.546,3.812,0.861c2.927,0.697,5.954,1.417,9.004,1.615c0.941,0.061,1.872,0.092,2.768,0.092
		c8.707,0,15.352-2.825,20.316-8.638c3.382-3.959,4.506-8.864,3.085-13.456c-1.437-4.646-5.2-8.135-10.322-9.575
		c-1.143-0.321-2.318-0.484-3.488-0.484c-4.703,0-8.661,2.566-9.85,6.386c-0.847,2.72-0.287,5.042,1.662,6.901
		c1.182,1.127,2.449,1.698,3.766,1.698c0.57,0,1.159-0.108,1.751-0.322c2.311-0.832,3.372-2.575,3.339-5.485
		c-0.005-0.319,0.184-0.532,0.321-0.688c0.045-0.051,0.099-0.111,0.155-0.187c0.123-0.166,0.323-0.266,0.532-0.266
		c0.719,0,1.902,2.181,1.913,2.203c0.347,0.731,0.554,1.529,0.615,2.371c0.129,1.817-0.124,3.167-0.825,4.376
		c-1.535,2.653-4.576,4.468-7.748,4.625c-0.167,0.008-0.333,0.012-0.499,0.012c-3.551,0-7.2-1.916-9.522-5
		c-1.973-2.623-3.12-6.069-3.147-9.453c-0.025-2.989,2.125-6.306,2.784-7.251c2.939-4.21,7.994-6.808,13.523-6.95
		c0.166-0.004,0.332-0.007,0.499-0.007c1.32,0,2.665,0.135,3.998,0.402c8.11,1.623,15.211,8.487,16.518,15.967
		c1.302,7.457-1.526,13.913-8.406,19.201c11.121-4.038,19.726-9.85,25.605-17.299c2.344-2.97,3.438-5.93,3.344-9.047
		c-0.117-3.877-2.991-7.032-6.406-7.032c-0.186,0-0.372,0.01-0.56,0.029c-1.641,0.165-3.1,1.013-4.104,2.385
		c-1.215,1.659-1.629,3.875-1.135,6.08c0.146,0.654,0.376,1.287,0.62,1.958c0.243,0.669,0.495,1.362,0.656,2.078
		c0.081,0.361-0.034,0.599-0.145,0.736c-0.147,0.182-0.367,0.283-0.616,0.283c-0.738,0-2.056-1.149-2.066-1.161
		c-0.596-0.642-1.14-1.368-1.606-2.144c-2.399-3.992-2.465-8.957-0.168-12.649c0.129-0.205,0.216-0.347,0.248-0.463
		c-0.09-0.025-0.272-0.055-0.628-0.055c-0.126,0-0.707,0.012-0.707,0.012c-0.141,0-0.266-0.006-0.369-0.019
		c-1.536-0.196-5.338-0.892-7.484-3.108c-1.812-1.871-2.825-4.415-2.782-6.981c0.04-2.494,1.068-5.038,2.894-7.162
		c3.003-3.493,6.814-4.736,10.908-5.714C105.339,18.822,96.598,11.726,91.239,0h-9.576C81.584,2.334,81.621,4.694,81.665,6.989z
		 M88.926,4.078c1.639,0,2.973,1.317,2.973,2.935c0,1.618-1.333,2.935-2.973,2.935c-1.638,0-2.972-1.317-2.972-2.935
		C85.955,5.395,87.288,4.078,88.926,4.078z M89.031,15.626c1.773,0,3.214,1.424,3.214,3.175c0,1.75-1.441,3.174-3.214,3.174
		s-3.215-1.424-3.215-3.174C85.816,17.05,87.258,15.626,89.031,15.626z M87.3,27.583c1.582,0,2.87,1.271,2.87,2.833
		c0,1.562-1.287,2.833-2.87,2.833c-1.582,0-2.868-1.271-2.868-2.833C84.432,28.854,85.718,27.583,87.3,27.583z M86.64,39.128
		c0,1.619-1.333,2.935-2.973,2.935c-1.639,0-2.973-1.317-2.973-2.935c0-1.619,1.333-2.935,2.973-2.935
		C85.307,36.193,86.64,37.51,86.64,39.128z"/>
	<path fill="none" d="M267.033,110.459c0.477,0.748,0.835,1.544,1.068,2.382c1.53,5.493,0.888,10.712-1.808,14.695
		c-2.445,3.614-6.322,5.94-11.252,6.766c0.119,0.211,0.23,0.426,0.333,0.643c0.02,0.035,0.097,0.201,0.208,0.445
		c0.291,0.638,0.824,1.81,1.638,3.384c1.193,2.289,2.736,4.98,5.127,7.566c1.661,1.804,5.168,4.916,10.01,5.491
		c0.53,0.067,1.074,0.102,1.622,0.102c1.565,0,3.181-0.282,4.676-0.814c0.458-0.163,0.905-0.36,1.346-0.57v-18.934
		c-0.373,0.013-0.742,0.045-1.099,0.109c-1.377,0.24-2.698,0.829-3.932,1.75c-0.893,0.679-1.689,1.503-2.298,2.381
		c-0.547,0.775-0.849,1.413-1.01,1.756c-0.277,0.615-0.563,1.252-1.436,1.252c-0.403,0-0.791-0.188-1.038-0.503
		c-0.242-0.308-0.329-0.768-0.222-1.172c0.323-1.354,1.279-4.005,4.006-6.382c1.593-1.347,3.338-2.251,5.192-2.693
		c0.592-0.145,1.21-0.225,1.837-0.274v-18.647c-2.709,1.176-5.532,1.774-8.39,1.774
		C270.083,110.968,268.551,110.797,267.033,110.459z"/>
	<path fill="none" d="M261.727,55.279c-8.676,11.797-11.708,22.478-9.542,33.591c1.787,9.165,11.841,16.013,19.637,16.013
		c1.388,0,2.693-0.209,3.879-0.622c1.591-0.553,3.03-1.381,4.299-2.422V77.806c-1.54-0.829-3.432-1.247-5.668-1.247
		c-4.972,0-9.869,2.103-9.918,2.124c-0.085,0.037-0.175,0.055-0.264,0.055c-0.195,0-0.386-0.087-0.514-0.246
		c-0.185-0.231-0.187-0.556-0.007-0.791c2.826-3.676,7.446-5.87,12.358-5.87c1.37,0,2.72,0.179,4.013,0.517V48.967
		c-1.695,1.21-3.528,2.273-5.481,3.138C270.633,53.827,266.331,54.894,261.727,55.279z"/>
	<path fill="none" d="M10.986,58.597c1.132-6.3,2.085-12.845,2.903-19.913c0.572-4.933,1.238-11.448,1.31-18.093l0.004-0.457
		c0.047-4.2,0.1-8.959-1.553-12.788c-1.02-2.358-3.361-4.294-5.967-4.932C7.093,2.27,6.482,2.196,5.869,2.196
		c-1.441,0-2.832,0.415-3.913,1.167C1.087,3.97,0.415,4.822,0,5.76V9.82c0.92,1.93,3.083,2.83,5.157,2.83
		c0.849,0,1.696-0.152,2.45-0.44l0.471,1.205c0.08-0.03,0.121-0.069,0.122-0.069c-0.105,0.099-0.365,0.541-0.52,0.805
		c-0.302,0.512-0.497,0.836-0.706,1.027c-1.073,0.979-2.486,1.519-3.978,1.519c-0.329,0-0.663-0.026-0.993-0.079
		C1.319,16.51,0.646,16.309,0,16.025v28.578C3.756,46.927,8.579,51.199,10.986,58.597z"/>
	<path fill="none" d="M207.045,3.164c4.372,0,8.692-1.137,12.514-3.164H194.79c3.204,1.724,6.751,2.82,10.394,3.094
		C205.798,3.14,206.424,3.164,207.045,3.164z"/>
	<g>
		<linearGradient id="SVGID_1_" gradientUnits="userSpaceOnUse" x1="0" y1="77.5" x2="280" y2="77.5">
			<stop  offset="0" style="stop-color:#C99D3B"/>
			<stop  offset="0.0569" style="stop-color:#FBC926"/>
			<stop  offset="0.2528" style="stop-color:#FFF9B2"/>
			<stop  offset="0.3071" style="stop-color:#F7E79E"/>
			<stop  offset="0.415" style="stop-color:#E3C776"/>
			<stop  offset="0.565" style="stop-color:#C89B39"/>
			<stop  offset="0.5955" style="stop-color:#C3922E"/>
			<stop  offset="0.6308" style="stop-color:#C99D3B"/>
			<stop  offset="0.7887" style="stop-color:#EED688"/>
			<stop  offset="0.9179" style="stop-color:#FFF9B8"/>
			<stop  offset="1" style="stop-color:#C99D3B"/>
		</linearGradient>
		<path fill="url(#SVGID_1_)" d="M196.792,81.253c0-1.679,1.383-3.045,3.083-3.045c1.701,0,3.084,1.366,3.084,3.045
			c0,1.679-1.383,3.045-3.084,3.045C198.175,84.298,196.792,82.931,196.792,81.253z M184.673,63.669
			c1.777,0,3.223-1.428,3.223-3.182c0-1.755-1.446-3.182-3.223-3.182c-1.777,0-3.222,1.428-3.222,3.182
			C181.451,62.241,182.896,63.669,184.673,63.669z M184.639,73.744c1.796,0,3.257-1.443,3.257-3.216
			c0-1.774-1.461-3.217-3.257-3.217c-1.797,0-3.258,1.443-3.258,3.217C181.381,72.301,182.843,73.744,184.639,73.744z
			 M17.725,143.508c0.765-0.294,1.555-0.444,2.35-0.444c1.858,0,3.529,0.812,4.587,2.228c1.714,2.296,0.606,4.689-0.626,6.293
			c-0.189,0.247-0.369,0.5-0.575,0.79l-0.32,0.448c-0.148,0.205-0.162,0.477-0.035,0.696c0.118,0.202,0.335,0.324,0.568,0.324
			c0.019,0,0.039-0.001,0.058-0.003c4.065-0.357,6.828-2.724,7.579-6.493c0.723-3.62-1.244-7.411-4.892-9.432
			c-2.066-1.144-4.286-1.724-6.601-1.724c-7.535,0-13.726,5.964-14.095,13.578c-0.088,1.807,0.13,3.561,0.592,5.231h7.838
			c-0.243-0.502-0.457-1.021-0.627-1.564C12.203,149.205,14.007,144.937,17.725,143.508z M211.155,82.584
			c1.719,0,3.118-1.382,3.118-3.079c0-1.697-1.399-3.079-3.118-3.079c-1.72,0-3.119,1.382-3.119,3.079
			C208.036,81.203,209.435,82.584,211.155,82.584z M46.987,131.874c6.417,0,13.071-3.178,18.737-8.948
			c3.057-3.113,5.777-6.623,8.408-10.017c1.022-1.317,2.042-2.634,3.084-3.931c2.8-3.486,5.536-5.31,8.873-5.915
			c0.547-0.099,1.115-0.149,1.688-0.149c4.383,0,8.769,2.88,10.2,6.699c1.594,4.249-0.276,9.519-4.169,11.75
			c-1.167,0.669-2.496,1.022-3.844,1.022c-1.444,0-2.779-0.419-3.759-1.181c-1.687-1.31-2.129-2.987-1.311-4.984
			c0.592-1.447,1.649-2.149,3.233-2.149c0.295,0,0.609,0.025,0.935,0.075c0.463,0.071,0.92,0.18,1.413,0.296
			c0.246,0.058,0.499,0.117,0.766,0.176c0.047,0.011,0.095,0.016,0.142,0.016c0.194,0,0.381-0.085,0.506-0.237
			c0.157-0.188,0.193-0.448,0.092-0.671c-0.96-2.138-3.117-3.466-5.628-3.466c-2.677,0-5.098,1.499-6.319,3.911
			c-1.15,2.273-1.216,4.958-0.181,7.368c1.114,2.593,3.352,4.578,6.14,5.446c1.525,0.475,3.026,0.715,4.463,0.715
			c3.44,0,6.508-1.336,9.118-3.972c4.279-4.321,5.621-9.612,3.883-15.304c-1.964-6.431-8.447-10.923-15.765-10.923
			c-3.079,0-6.089,0.808-8.706,2.338c-0.605,0.354-1.194,0.735-1.85,1.162c0.596-4.798-0.714-9.107-4.066-13.347
			c2.889,0.612,5.829,0.91,8.93,0.91c3.33,0,6.888-0.346,11.196-1.088c2.845-0.49,5.725-1.053,8.511-1.596
			c5.143-1.003,10.462-2.041,15.728-2.659c2.18-0.256,4.343-0.385,6.43-0.385c8.064,0,15.472,1.925,22.019,5.722
			c6.604,3.831,10.147,9.389,10.533,16.52c0.479,8.874-5.493,17.085-13.597,18.694c-1.014,0.202-2.062,0.303-3.116,0.303
			c-8.688,0-16.89-6.617-18.674-15.065c-1.233-5.837,0.914-11.185,5.744-14.307c1.71-1.106,3.758-1.69,5.922-1.69
			c4.617,0,8.864,2.586,10.57,6.436c1.504,3.396,0.29,7.633-2.597,9.067c-0.834,0.414-1.717,0.624-2.623,0.624
			c-2.317,0-4.582-1.397-6.06-3.738c-0.143-0.225-0.309-0.435-0.541-0.726c-0.119-0.149-0.257-0.323-0.421-0.535
			c-0.126-0.163-0.321-0.255-0.521-0.255c-0.067,0-0.136,0.011-0.202,0.032c-0.265,0.085-0.446,0.325-0.452,0.6
			c-0.088,3.887,1.258,6.805,4.114,8.922c2.16,1.601,4.877,2.482,7.648,2.482c2.619,0,5.097-0.799,6.977-2.25
			c4.372-3.373,5.98-9.54,3.825-14.663c-2.711-6.447-9.886-10.778-17.854-10.778c-4.579,0-8.78,1.515-11.828,4.267
			c-7.575,6.839-8.524,17.493-2.36,26.513c4.752,6.954,12.492,11.105,20.704,11.105c8.355,0,15.786-4.261,19.877-11.396
			c5.787-10.094,2.616-23.589-7.377-31.389c-6.999-5.464-15.334-8.321-25.481-8.733c-0.944-0.039-1.908-0.057-2.95-0.057
			c-1.533,0-3.206,0.042-5.266,0.131c-1.078,0.046-2.156,0.102-3.235,0.158l-0.809,0.042c-0.158,0.008-0.398,0.038-0.68,0.075
			c-0.458,0.059-1.029,0.133-1.506,0.133c-0.123,0-0.224-0.005-0.302-0.011c0.498-0.443,1.812-1.156,3.919-2.126
			c0.417-0.192,0.742-0.343,0.903-0.43c2.467-1.349,4.535-2.648,6.322-3.97c6.678-4.94,14.592-15.738,9.026-25.235
			c-2.4-4.096-6.988-6.799-11.809-7c0.454-0.785,0.662-1.737,0.596-2.788c-0.047-0.755-0.176-1.37-0.404-1.935
			c-0.099-0.245-0.306-0.514-0.546-0.825c-0.137-0.178-0.366-0.476-0.407-0.579c0,0,0.015,0.038,0.018,0.102l-1.308,0.053
			c0.095,2.241-1.556,4.432-3.758,4.989c-0.364,0.092-0.746,0.138-1.135,0.138c-1.924,0-3.768-1.097-4.588-2.73
			c-1.237-2.466-0.099-5.489,1.665-7.202c1.723-1.673,4.277-2.743,7.594-3.179c1.155-0.152,2.361-0.23,3.584-0.23
			c5.818,0,11.609,1.777,15.46,3.114c6.615,2.296,11.223,4.666,14.941,7.683c3.797,3.083,6.488,6.839,7.782,10.801
			c-1.856-2.312-3.974-4.485-6.604-6.042c-2.255-1.336-4.835-2.071-7.263-2.071c-1.723,0-3.318,0.36-4.742,1.07
			c-3.054,1.523-4.876,4.736-4.641,8.186c0.223,3.267,2.271,5.95,5.344,7.001c0.858,0.294,1.693,0.443,2.48,0.443
			c1.702,0,3.201-0.679,4.456-2.019c0.178-0.19,0.225-0.468,0.116-0.705c-0.106-0.232-0.34-0.38-0.602-0.38
			c0,0-0.269,0.005-0.396,0.005c-3.865,0-4.586-1.453-4.78-2.874c-0.201-1.463,0.262-3.347,1.076-4.384
			c0.9-1.145,2.163-1.749,3.654-1.749c0.793,0,1.623,0.169,2.466,0.501c6.08,2.399,9.536,6.782,9.994,12.676
			c0.556,7.138-1.835,12.5-7.103,15.937c-0.966,0.63-2.004,0.949-3.086,0.949c-1.841,0-3.632-0.94-4.791-2.514
			c-1.147-1.557-1.464-3.487-0.871-5.294c0.36-1.095,1.028-1.994,1.881-2.533c0.559-0.353,1.222-0.547,1.868-0.547
			c0.38,0,0.74,0.066,1.07,0.197c0.928,0.368,1.588,1.295,1.568,2.204c-0.021,0.914-0.795,1.772-1.657,1.836
			c-0.077,0.006-0.155,0.007-0.233,0.008c-0.224,0.004-0.478,0.008-0.748,0.087c-0.527,0.153-1.029,0.641-0.968,1.276
			c0.06,0.63,0.639,1.074,1.475,1.133c0.139,0.01,0.277,0.015,0.414,0.015c2.974,0,5.243-2.155,5.277-5.011
			c0.017-1.356-0.533-2.66-1.545-3.672c-1.173-1.171-2.827-1.844-4.54-1.844c-0.555,0-1.105,0.072-1.636,0.213
			c-3.639,0.969-5.942,3.407-6.659,7.051c-0.489,2.487,0.168,5.182,1.802,7.392c1.58,2.137,3.892,3.529,6.344,3.816
			c0.331,0.039,0.652,0.057,0.967,0.057c3.564,0,6.075-2.317,8.504-4.558c0.129-0.119,0.257-0.237,0.386-0.355
			c-0.157,1.034-0.321,2.172-0.423,3.321c-0.431,4.821-0.373,9.876,2.942,14.19c1.885,2.454,5.084,3.979,8.347,3.978
			c2.122,0,4.107-0.653,5.587-1.839c1.752-1.403,2.832-3.353,3.041-5.494c0.239-2.448-0.647-4.997-2.496-7.177
			c-0.127-0.15-0.312-0.232-0.502-0.232c-0.082,0-0.166,0.016-0.246,0.047c-0.263,0.106-0.428,0.366-0.407,0.646l0.032,0.475
			c0.018,0.282,0.032,0.493,0.059,0.701c0.347,2.67-0.458,4.359-2.536,5.318c-0.668,0.308-1.433,0.471-2.215,0.471
			c-1.652,0-3.17-0.718-4.061-1.92c-1.786-2.409-2.684-4.379-2.744-6.021c-0.159-4.271-0.213-9.851,0.786-15.136
			c2.995-15.879-2.241-27.588-16.008-35.797c-2.015-1.202-4.079-2.61-6.135-4.186c-3.575-2.742-5.522-5.681-6.127-9.248
			c-0.404-2.385,0.242-4.835,1.772-6.721c1.508-1.857,3.648-2.95,6.028-3.076c0.143-0.007,0.284-0.011,0.424-0.011
			c2.328,0,4.068,1.043,5.169,3.098c1.176,2.195,1.153,4.124-0.069,5.898c-0.657,0.954-1.484,1.479-2.327,1.479
			c-0.361,0-0.737-0.093-1.117-0.276c-1.469-0.706-1.923-1.92-1.313-3.507c0.088-0.228,0.181-0.455,0.291-0.723l0.2-0.489
			c0.1-0.246,0.037-0.527-0.157-0.709c-0.124-0.116-0.286-0.177-0.45-0.177c-0.093,0-0.187,0.02-0.276,0.06
			c-3.598,1.651-3.722,4.1-3.192,5.863c0.785,2.617,3.289,4.445,6.087,4.445c0.193,0,0.389-0.009,0.585-0.026
			c2.263-0.202,4.228-1.39,5.534-3.347c1.589-2.38,1.949-5.578,0.966-8.555C153.058,4.099,148.856,1,144.305,1
			c-0.257,0-0.517,0.01-0.775,0.03c-5.396,0.422-10.233,4.714-11.252,9.985c-0.394,2.037-0.272,4.136,0.36,6.237
			c0.259,0.863,0.606,1.756,1.092,2.81c0.087,0.19,0.263,0.48,0.466,0.808c0.252,0.408,0.778,1.259,0.814,1.46
			c-0.001,0.001-0.138,0.11-0.66,0.11c-1.205,0-3.099-0.573-3.615-0.79c-1.587-0.669-3.048-1.723-4.461-2.743l-0.16-0.116
			c-2.621-1.889-4.855-4.075-6.639-6.496c-2.636-3.577-4.333-7.777-5.029-12.295h-5.197c0.374,2.47,1.001,4.862,1.885,7.097
			c1.308,3.306,3.435,6.135,5.493,8.871l0.046,0.061C108.546,15.249,101.537,8.624,96.623,0h-5.385
			c5.359,11.726,14.1,18.822,25.552,20.698c-4.094,0.978-7.905,2.221-10.908,5.714c-1.827,2.124-2.855,4.668-2.894,7.162
			c-0.044,2.566,0.97,5.11,2.782,6.981c2.146,2.216,5.949,2.912,7.484,3.108c0.103,0.013,0.228,0.019,0.369,0.019
			c0,0,0.581-0.012,0.707-0.012c0.357,0,0.539,0.03,0.628,0.055c-0.032,0.116-0.12,0.257-0.248,0.463
			c-2.297,3.692-2.231,8.657,0.168,12.649c0.466,0.776,1.01,1.502,1.606,2.144c0.01,0.012,1.328,1.161,2.066,1.161
			c0.249,0,0.469-0.101,0.616-0.283c0.111-0.136,0.226-0.375,0.145-0.736c-0.161-0.716-0.413-1.409-0.656-2.078
			c-0.244-0.671-0.475-1.304-0.62-1.958c-0.493-2.205-0.08-4.421,1.135-6.08c1.005-1.373,2.463-2.22,4.104-2.385
			c0.188-0.019,0.374-0.029,0.56-0.029c3.415,0,6.289,3.154,6.406,7.032c0.094,3.117-0.999,6.077-3.344,9.047
			c-5.879,7.449-14.484,13.261-25.605,17.299c6.88-5.288,9.708-11.745,8.406-19.201c-1.307-7.48-8.408-14.344-16.518-15.967
			c-1.333-0.267-2.678-0.402-3.998-0.402c-0.167,0-0.333,0.002-0.499,0.007c-5.529,0.142-10.584,2.74-13.523,6.95
			c-0.66,0.945-2.809,4.262-2.784,7.251c0.027,3.385,1.174,6.83,3.147,9.453c2.322,3.084,5.97,5,9.522,5
			c0.166,0,0.332-0.004,0.499-0.012c3.171-0.156,6.213-1.972,7.748-4.625c0.7-1.209,0.954-2.559,0.825-4.376
			c-0.061-0.842-0.268-1.64-0.615-2.371c-0.011-0.022-1.194-2.203-1.913-2.203c-0.209,0-0.408,0.1-0.532,0.266
			c-0.056,0.075-0.11,0.135-0.155,0.187c-0.138,0.155-0.326,0.369-0.321,0.688c0.033,2.91-1.028,4.653-3.339,5.485
			c-0.592,0.213-1.181,0.322-1.751,0.322c-1.317,0-2.585-0.571-3.766-1.698c-1.949-1.859-2.509-4.181-1.662-6.901
			c1.189-3.82,5.147-6.386,9.85-6.386c1.171,0,2.345,0.163,3.488,0.484c5.122,1.439,8.885,4.929,10.322,9.575
			c1.421,4.593,0.296,9.497-3.085,13.456c-4.964,5.812-11.609,8.638-20.316,8.638c-0.897,0-1.828-0.031-2.768-0.092
			c-3.05-0.198-6.077-0.918-9.004-1.615c-1.322-0.314-2.569-0.611-3.812-0.861c-0.044-0.009-0.087-0.013-0.13-0.013
			c-0.236,0-0.459,0.127-0.575,0.337c-0.137,0.249-0.093,0.558,0.107,0.761c3.44,3.472,5.558,7.579,6.125,11.876
			c1.473,11.155-2.949,20.406-13.14,27.494c-4.266,2.966-8.836,4.471-13.584,4.471c-5.54,0-11.12-2.119-16.136-6.126
			c-8.276-6.611-11.329-17.817-7.424-27.251c3.06-7.393,9.482-11.632,17.621-11.632c0.417,0,0.84,0.011,1.265,0.033
			c7.968,0.411,15.103,5.835,16.967,12.895c1.355,5.136,0.44,9.126-2.796,12.2c-1.582,1.502-3.589,2.328-5.654,2.328
			c-2.011,0-3.913-0.787-5.357-2.216c-2.91-2.881-2.741-6.548,0.462-10.062c0.138-0.152,0.267-0.311,0.48-0.574l0.461-0.565
			c0.18-0.219,0.195-0.528,0.037-0.764c-0.123-0.184-0.33-0.29-0.546-0.29c-0.06,0-0.121,0.008-0.181,0.025
			c-3.827,1.089-6.14,3.32-7.072,6.821c-1.047,3.935,0.084,7.525,3.274,10.383c2.254,2.019,5.259,3.131,8.464,3.13
			c3.494,0,6.951-1.349,9.486-3.701c3.538-3.283,5.439-7.669,5.499-12.686c0.072-6.094-2.604-12.376-7.158-16.802
			c-3.923-3.814-8.975-6.175-14.092-6.635c8.847-3.517,15.886-7.808,21.509-13.112c11.733-11.067,18.68-28.69,19.057-48.353
			c0.039-2.004,0-4.036-0.037-6.002C81.621,4.694,81.584,2.334,81.663,0h-4.788c-0.034,0.968-0.047,1.826-0.046,2.504
			c0.002,2.474,0.306,4.952,0.6,7.349c0.039,0.317,0.078,0.635,0.116,0.954c-1.065-2.587-2.451-4.691-4.181-6.361
			c-1.576-1.522-3.466-2.689-5.617-3.468c-1.175-0.426-2.473-0.553-3.728-0.677C63.256,0.226,62.539,0.134,61.865,0H40.592
			c2.184,3.235,5.581,5.63,9.165,6.334c-1.624,2.935-2.077,5.711-1.384,8.463c0.798,3.168,3.057,5.896,6.042,7.298
			c1.311,0.615,2.728,0.94,4.097,0.94c1.194,0,2.301-0.243,3.295-0.722c2.515-1.215,3.962-3.99,3.365-6.457
			c-0.489-2.017-2.532-3.597-4.651-3.597c-0.622,0-1.21,0.136-1.746,0.404c-0.27,0.134-0.411,0.433-0.343,0.723
			c0.069,0.29,0.329,0.496,0.631,0.5c0.549,0.005,1.08,0.316,1.454,0.853c0.44,0.632,0.567,1.418,0.329,2.051
			c-0.398,1.062-1.611,1.803-2.951,1.803c-0.217,0-0.432-0.021-0.639-0.062c-1.394-0.277-2.683-1.356-3.448-2.887
			c-1.44-2.886-0.67-5.193,0.23-6.621c1.582-2.512,4.809-4.2,8.028-4.2c0.614,0,1.223,0.061,1.808,0.182
			c5.296,1.092,8.996,5.358,10.152,11.702c1.173,6.436,0.401,13.166-2.362,20.577c-2.294,6.152-5.516,11.735-9.576,16.593
			c-3.344,4.002-7.366,7.642-11.955,10.819c-2.199,1.522-4.583,2.975-7.085,4.319c-1.184,0.635-4.296,2.095-6.876,2.867
			c1.235-0.947,2.484-1.868,3.697-2.763c6.166-4.55,11.992-8.847,15.738-16.018c2.318-4.437,4.938-11.192,4.26-18.176l-0.012-0.127
			c-0.048-0.571-0.122-1.436-0.737-1.814c-0.193-0.118-0.392-0.178-0.594-0.178c-0.952,0-1.217,1.156-1.359,1.778
			c-0.018,0.078-0.033,0.144-0.046,0.191c-0.206,0.712-0.388,1.432-0.57,2.151c-0.292,1.155-0.594,2.349-0.996,3.477
			c-0.886,2.477-1.845,4.655-2.935,6.657c-1.083,1.987-2.312,3.916-3.654,5.734c-0.672,0.91-1.385,1.807-2.116,2.668
			c-0.062,0.073-0.135,0.151-0.215,0.232c0.47-2.333,0.281-4.64-0.566-6.889c-0.511-1.358-1.232-2.592-2.143-3.669
			c-0.939-1.112-1.471-1.241-1.789-1.241c-0.268,0-0.513,0.108-0.689,0.305c-0.275,0.309-0.354,0.785-0.256,1.544
			c0.194,1.52,0.214,3.074,0.057,4.619c-0.302,2.973-1.279,5.952-2.824,8.614c-1.339,2.303-3.065,4.586-5.598,7.403
			c-1.927,2.145-3.96,4.168-5.926,6.125c-6.07,6.043-11.818,11.764-14.176,20.438c-3.692-3.426-6.973-5.689-8.987-6.941
			c3.59-3.32,6.003-8.198,7.42-11.806c2.619-6.664,3.998-13.769,5.331-20.639c0.27-1.393,0.541-2.786,0.82-4.174l0.087-0.433
			c1.369-6.798,3.072-15.258,8.34-20.106c1.656-1.524,3.643-2.363,5.595-2.363c0.975,0,1.909,0.206,2.778,0.613
			c2.247,1.051,3.35,3.411,2.623,5.611c-0.634,1.915-2.257,3.059-4.342,3.059c-0.287,0-0.581-0.022-0.876-0.067
			c-0.53-0.079-1.07-0.21-1.642-0.348c-0.286-0.069-0.581-0.14-0.89-0.209c-0.048-0.011-0.096-0.016-0.144-0.016
			c-0.217,0-0.423,0.107-0.546,0.29c-0.15,0.224-0.144,0.516,0.015,0.734c1.83,2.507,3.734,3.675,5.991,3.675
			c0.58,0,1.199-0.079,1.843-0.235c3.915-0.948,6.497-4.081,6.738-8.177c0.265-4.487-2.078-8.103-6.266-9.674
			c-1.48-0.555-2.996-0.837-4.506-0.837c-4.343,0-8.393,2.356-11.111,6.464c-0.603,0.911-1.127,1.867-1.705,2.946
			c0.038-0.996,0.074-1.996,0.108-2.999C19.71,18.429,20.032,9.349,23.161,0h-4.212c-0.904,2.62-1.432,4.686-1.724,6.039
			C15.804,3.604,14.172,1.355,12.096,0H0v5.76C0.415,4.822,1.087,3.97,1.957,3.364c1.081-0.753,2.471-1.167,3.913-1.167
			c0.613,0,1.223,0.073,1.813,0.218c2.605,0.638,4.947,2.574,5.967,4.932c1.654,3.829,1.6,8.588,1.553,12.788l-0.004,0.457
			c-0.072,6.645-0.738,13.16-1.31,18.093c-0.818,7.068-1.771,13.613-2.903,19.913C8.579,51.199,3.756,46.927,0,44.603v5.802
			c3.149,3.088,6.568,8.367,6.852,16.861C7.093,74.483,3.228,79.548,0,82.499v6.98c2.393,1.698,4.52,4.246,6.423,6.537
			c0.33,0.397,0.652,0.785,0.967,1.158c2.501,2.962,3.676,6.22,4.92,9.67c0.197,0.548,0.398,1.102,0.605,1.663
			c3.756,10.148,10.463,17.253,19.937,21.117l0.26,0.102c0.338,0.131,0.689,0.266,0.849,0.444c5.009,5.511,9.491,15.091,5.638,23.95
			c-0.131,0.302-0.272,0.595-0.419,0.88h5.082c0.403-1.777,0.579-3.593,0.663-5.397c0.342,0.754,0.676,1.52,1.001,2.292
			c0.437,1.053,0.839,2.084,1.224,3.106h8.994c-6.945-9.925-10.957-20.132-12.129-23.349
			C45.002,131.799,45.997,131.874,46.987,131.874z M120.677,152.83c-1.384,0-2.543,0.92-2.916,2.17h5.832
			C123.22,153.751,122.062,152.83,120.677,152.83z M92.707,148.36c-1.189-0.371-2.36-0.558-3.48-0.558
			c-2.921,0-5.53,1.284-7.544,3.713c-0.177,0.214-0.197,0.515-0.05,0.749c0.122,0.193,0.334,0.306,0.557,0.306
			c0.048,0,0.098-0.005,0.146-0.016l0.707-0.161c0.471-0.108,0.909-0.209,1.348-0.301c0.474-0.101,0.961-0.152,1.447-0.152
			c2.352,0,4.529,1.172,5.689,3.06h9.003C99.199,151.962,96.377,149.503,92.707,148.36z M89.847,133.975
			c-5.994,0-11.625,2.138-15.858,6.019c-3.828,3.511-5.895,7.935-6.141,13.15c-0.029,0.621-0.016,1.24,0.026,1.856h4.222
			c-0.468-4.008,1.064-8.425,4.168-11.27c3.171-2.907,7.782-4.575,12.648-4.575c5.423,0,10.469,1.985,13.844,5.447
			c2.772,2.844,4.447,6.553,4.967,10.398h6.765c-0.126-0.925-0.284-1.867-0.503-2.845
			C111.629,141.621,101.478,133.975,89.847,133.975z M191.372,81.556c1.911,0,3.465-1.535,3.465-3.422
			c0-1.887-1.554-3.422-3.465-3.422c-1.911,0-3.465,1.535-3.465,3.422C187.907,80.021,189.461,81.556,191.372,81.556z
			 M197.622,153.368c-0.087-0.04-0.18-0.059-0.273-0.059c-0.131,0-0.261,0.038-0.373,0.115c-0.19,0.13-0.297,0.35-0.279,0.577
			c0.024,0.34-0.041,0.679-0.168,1h2.76C198.916,154.292,198.349,153.697,197.622,153.368z M235.894,144.253
			c1.544-1.087,3.172-1.638,4.838-1.638c3.741,0,6.537,2.786,6.565,2.814c0.127,0.129,0.297,0.195,0.47,0.195
			c0.121,0,0.242-0.033,0.35-0.101c0.261-0.164,0.371-0.485,0.262-0.772c-1.048-2.76-4.912-5.739-9.326-5.739
			c-1.939,0-3.724,0.567-5.307,1.687c-3.265,2.308-4.95,6.299-4.624,10.952c0.081,1.151,0.286,2.277,0.593,3.348h3.709
			c-0.259-0.607-0.483-1.24-0.63-1.918C232.011,149.471,233.171,146.171,235.894,144.253z M173.059,149.464
			c-0.122-0.1-0.27-0.149-0.418-0.149c-0.154,0-0.309,0.053-0.432,0.16c-1.765,1.533-3.197,3.426-4.255,5.524h3.311
			c0.414-1.646,1.053-3.238,1.939-4.709C173.368,150.018,173.306,149.668,173.059,149.464z M255.553,155h-5.546
			c0.298-0.496,0.58-1.027,0.846-1.593c2.764-5.883,0.419-13.838-5.227-17.733c-1.939-1.337-4.19-2.001-6.573-2.703
			c-0.934-0.275-1.9-0.56-2.835-0.887c-3.567-1.247-6.042-2.733-7.789-4.678c-1.091-1.214-1.874-2.658-2.264-4.174
			c-0.028-0.113-0.059-0.252-0.09-0.408c-0.755,0.101-1.5,0.156-2.224,0.165l-0.19,0.001c-3.387,0-6.593-1.1-10.089-3.462
			c-0.292-0.197-0.578-0.404-0.849-0.63c-1.159-0.968-2.196-2.246-3.264-4.021c-0.449-0.748-0.849-1.493-1.181-2.122
			c-0.31-0.586-0.585-1.194-0.882-1.87c-1.342,6.391-4.014,12.19-11.83,14.07c0.151,0.243,0.326,0.54,0.533,0.902l0.083,0.143
			c0.383,0.636,0.72,1.276,1.004,1.901c0.568,1.257,0.952,2.528,1.138,3.78c0.557,3.708-0.675,8.084-3.068,11.381
			c0.904-0.214,1.843-0.323,2.807-0.323c2.199,0,4.402,0.56,6.375,1.619c3.555,1.91,6.319,5.225,7.585,9.097
			c0.168,0.515,0.314,1.031,0.44,1.546h-5.991c-0.492-1.461-1.208-2.793-2.153-3.901c-1.823-2.137-4.628-3.465-7.318-3.465
			c-0.809,0-1.594,0.118-2.335,0.351c-1.542,0.486-2.841,1.461-3.566,2.675c-0.775,1.301-0.879,2.938-0.265,4.171
			c0.029,0.059,0.067,0.112,0.1,0.169h-3.571c-0.355-1.398-0.404-2.886-0.057-4.327c0.209-0.873,0.554-1.721,1.02-2.521
			c-0.369,0.132-0.746,0.252-1.126,0.36c-0.983,0.279-1.787,0.404-2.606,0.404c-0.348,0-0.691-0.023-1.051-0.069
			c-1.436-0.187-2.774-0.652-4.005-1.127c-2.158-0.833-3.778-1.877-4.952-3.191c-2.295-2.567-2.304-5.767-1.907-7.999
			c0.775-4.346,3.952-6.941,8.5-6.941c0.641,0,1.315,0.051,2.002,0.151c0.279,0.041,0.501,0.255,0.549,0.53
			c0.048,0.275-0.09,0.55-0.339,0.68l-0.884,0.459c-0.484,0.25-0.871,0.451-1.257,0.659c-2.488,1.34-3.632,4.13-2.719,6.633
			c0.785,2.157,2.662,3.444,5.022,3.444c0.359,0,0.73-0.03,1.103-0.089c3.842-0.613,6.828-3.656,7.603-7.751
			c0.733-3.866-1.741-8.568-5.63-10.704c-2.966-1.629-6.01-2.455-9.048-2.455c-5.583,0-10.855,2.87-14.845,8.08
			c-1.845,2.411-3.4,5.148-4.621,8.135c-0.902,2.205-2.263,5.536-2.659,8.385c-0.424,3.063-0.798,6.167-1.152,9.253h-4.787
			c-0.058-0.572-0.127-1.14-0.216-1.703c-0.342-2.176-0.851-3.859-1.601-5.297c-1.49-2.857-3.961-4.43-6.958-4.43
			c-0.194,0-0.39,0.007-0.59,0.019c-2.146,0.138-4.103,1.385-5.234,3.334c-1.135,1.955-1.233,4.268-0.261,6.185
			c0.445,0.876,1.132,1.52,1.978,1.891h-5.871c-0.879-1.747-1.294-3.835-1.061-5.796c0.589-4.959,4.047-8.916,8.605-9.846
			c0.735-0.15,1.486-0.226,2.232-0.226c3.958,0,7.622,2.084,9.802,5.575c0.311,0.497,0.576,1.005,0.863,1.571
			c0.083-0.287,0.166-0.573,0.248-0.856c0.49-1.7,0.953-3.306,1.491-4.899c2.465-7.302,5.611-12.611,9.9-16.707
			c4.557-4.352,10.054-6.652,15.897-6.652c4.17,0,8.432,1.226,12.324,3.545c0.478,0.285,1.204,0.455,1.94,0.455
			c0.335,0,0.657-0.037,0.93-0.106c4.27-1.076,7.023-3.783,8.93-8.896c-0.424,0.379-0.813,0.709-1.232,1.019
			c-1.568,1.159-3.401,1.772-5.302,1.772c-1.87,0-3.651-0.593-5.154-1.715c-3.03-2.262-4.167-6.367-2.768-9.981
			c1.06-2.735,3.856-4.645,6.8-4.645c1.119,0,2.205,0.285,3.139,0.823c2.348,1.355,3.296,4.222,2.112,6.392
			c-0.569,1.042-1.747,2.315-3.194,2.473c-0.063,0.007-0.126,0.01-0.19,0.01c-0.485,0-0.971-0.196-1.301-0.525
			c-0.277-0.277-0.428-0.632-0.424-1.001c0.005-0.72,0.537-1.182,0.926-1.519l0.136-0.119c0.49-0.44,0.906-1.191,0.662-1.799
			c-0.13-0.322-0.463-0.603-0.869-0.732c-0.203-0.065-0.43-0.097-0.674-0.097c-0.226,0-0.467,0.028-0.72,0.082
			c-1.407,0.302-2.66,1.386-3.192,2.76c-0.535,1.383,0.141,3.288,1.104,4.331c0.974,1.054,2.301,1.635,3.736,1.635
			c0.886,0,1.785-0.233,2.599-0.672c2.527-1.364,4.166-3.623,5.313-7.322c0.201-0.648,0.327-1.316,0.462-2.023
			c0.091-0.483,0.184-0.967,0.299-1.444c2.044-8.415,7.671-13.784,16.724-15.961c2.241-0.539,4.548-0.947,6.779-1.341
			c0.449-0.08,0.899-0.159,1.349-0.24c-1.134-0.629-2.307-1.28-3.315-2.133c-2.797-2.366-3.956-5.433-3.35-8.868
			c0.527-2.995,2.354-5.079,5.281-6.025c0.865-0.28,1.709-0.422,2.51-0.422c1.747,0,3.306,0.662,4.635,1.966
			c0.939,0.922,1.536,2.077,1.727,3.338c0.005,0.032,0.469,3.198-0.656,4.345c-0.129,0.131-0.299,0.197-0.47,0.197
			c-0.164,0-0.328-0.06-0.454-0.182c-0.13-0.123-0.196-0.287-0.2-0.451c-0.122-0.46-0.963-2.529-1.126-2.801
			c-0.628-0.895-1.674-1.478-2.719-1.506h-0.002c-1.641,0-3.152,1.224-3.449,2.729c-0.234,1.186,0.188,2.575,1.159,3.81
			c1.473,1.877,3.904,3.21,7.223,3.963c3.327,0.756,6.317,1.2,9.116,1.354c-0.118-5.497,1.044-10.836,3.373-15.485
			c3.128-6.244,5.389-8.82,7.455-10.729c-7.729-0.183-15.853-2.225-23.005-5.795c-6.124-3.058-11.406-7.132-15.466-11.906
			c1.808,5.882,2.929,11.973,3.411,18.507c0.135,1.758,0.245,3.637-0.022,5.556c-0.542,3.907-2.218,7.53-4.719,10.201
			c-3.054,3.264-7.552,5.214-12.031,5.214c-1.821,0-3.566-0.32-5.187-0.95c-6.011-2.337-9.753-9.281-8.172-15.162
			c1.268-4.723,6.228-8.423,11.291-8.423c1.319,0,2.582,0.247,3.755,0.734c0.297,0.123,0.459,0.443,0.381,0.752
			c-0.073,0.29-0.336,0.49-0.634,0.49c-0.02,0-0.04-0.001-0.059-0.003c-0.178-0.016-0.356-0.024-0.533-0.024
			c-1.915,0-3.834,0.898-5.267,2.464c-1.39,1.519-2.08,3.429-1.893,5.241c0.349,3.387,3.708,6.249,7.337,6.249
			c0.608,0,1.202-0.085,1.765-0.253c2.162-0.643,4.115-2.386,5.357-4.781c1.246-2.404,1.683-5.179,1.924-7.328
			c1.134-10.11-0.656-20.403-5.064-29.55c0.634,5.339-1.035,11.038-4.745,15.238c-4.019,4.549-10.303,7.265-16.81,7.265
			c-1.304,0-2.605-0.11-3.869-0.327c-6.237-1.072-11.776-4.691-14.817-9.683c-3.278-5.378-3.492-12.2-0.546-17.379
			c2.622-4.609,7.917-7.706,13.175-7.706c0.841,0,1.677,0.078,2.487,0.233c4.89,0.932,8.833,4.778,9.377,9.144
			c0.291,2.33-0.548,4.851-2.243,6.744c-1.524,1.702-3.573,2.678-5.62,2.679h-0.002c-0.142,0-0.283-0.005-0.426-0.014
			c-0.293-0.018-0.538-0.228-0.598-0.512c-0.059-0.284,0.079-0.573,0.341-0.706c1.196-0.61,2.066-1.814,2.389-3.304
			c0.354-1.639-0.004-3.324-0.96-4.507c-1.1-1.364-2.95-2.178-4.947-2.178c-1.294,0-2.527,0.331-3.565,0.956
			c-2.619,1.579-4.148,4.863-3.805,8.173c0.314,3.022,2.082,5.985,4.852,8.13c2.593,2.008,5.97,3.113,9.508,3.113
			c3.648,0,7.108-1.165,9.743-3.279c3.745-3.005,6.03-7.846,6.111-12.949c0.078-4.769-1.691-9.642-4.981-13.72
			c-2.864-3.552-6.704-6.306-10.417-8.97c-1.389-0.997-2.815-2.029-4.191-3.093h9.461c3.204,1.724,6.751,2.82,10.394,3.094
			c0.614,0.046,1.24,0.07,1.861,0.07c4.372,0,8.692-1.137,12.514-3.164h10.801c-7.427,5.749-16.653,9.276-26.079,9.537
			c0.387,0.525,0.878,1.266,1.505,2.312c3.137,5.255,6.643,10.277,10.421,14.927c3.969,4.885,7.935,9.549,12.827,12.938
			c5.904,4.09,12.219,7.037,18.769,8.759c1.514,0.398,3.02,0.722,4.474,0.963c1.851,0.306,3.747,0.461,5.634,0.461
			c8.396,0,17.149-3.092,22.087-9.775v8.845c-1.695,1.21-3.528,2.273-5.481,3.138c-3.886,1.722-8.188,2.79-12.792,3.174
			c-8.676,11.797-11.708,22.478-9.542,33.591c1.787,9.165,11.841,16.013,19.637,16.013c1.388,0,2.693-0.209,3.879-0.622
			c1.591-0.553,3.03-1.381,4.299-2.422v7.354c-2.709,1.176-5.532,1.774-8.39,1.774c-1.527,0-3.059-0.171-4.576-0.509
			c0.477,0.748,0.835,1.544,1.068,2.382c1.53,5.493,0.888,10.712-1.808,14.695c-2.445,3.614-6.322,5.94-11.252,6.766
			c0.119,0.211,0.23,0.426,0.333,0.643c0.02,0.035,0.097,0.201,0.208,0.445c0.291,0.638,0.824,1.81,1.638,3.384
			c1.193,2.289,2.736,4.98,5.127,7.566c1.661,1.804,5.168,4.916,10.01,5.491c0.53,0.067,1.074,0.102,1.622,0.102
			c1.565,0,3.181-0.282,4.676-0.814c0.458-0.163,0.905-0.36,1.346-0.57V155h-17.224c-2.25-1.291-4.361-2.987-6.308-5.094
			C256.45,151.816,256.144,153.517,255.553,155z M257.104,127.978c3.227-2.189,5.369-5.66,5.88-9.523
			c0.16-1.208,0.161-2.983-0.741-4.572c-0.996-1.754-3.241-2.933-5.587-2.933c-1.016,0-1.98,0.225-2.785,0.651
			c-1.74,0.92-2.892,2.848-2.868,4.797c0.027,2.14,1.37,4.004,3.504,4.865c0.303,0.123,0.469,0.449,0.385,0.762
			c-0.076,0.287-0.339,0.483-0.632,0.483c-0.028,0-0.055-0.002-0.083-0.005c-2.905-0.361-5.384-2.199-6.632-4.916
			c-1.013-2.209-1.059-4.5-0.134-6.625c1.031-2.367,3.186-4.26,5.912-5.192c1.043-0.357,2.168-0.546,3.347-0.563
			c-3.645-3.068-6.595-7.165-8.419-11.731c-0.952-2.383-1.628-4.929-2.01-7.575c-2.434-0.157-4.696-0.234-6.899-0.234
			c-2.756,0-5.462,0.12-8.272,0.368c-5.77,0.508-11.04,2.242-14.841,4.882c-3.698,2.569-5.86,6.435-6.089,10.883
			c-0.243,4.727,1.278,9.05,4.285,12.173c2.713,2.819,6.411,4.371,10.414,4.371c0.513,0,1.038-0.026,1.558-0.076
			c3.388-0.33,6.435-1.974,8.359-4.512c1.769-2.332,2.443-5.181,1.899-8.023c-0.612-3.185-3.132-5.412-6.422-5.672
			c-0.185-0.015-0.369-0.022-0.551-0.022c-2.741,0-5.049,1.592-5.878,4.056c-0.425,1.262-0.337,2.609,0.245,3.695
			c0.44,0.822,1.125,1.4,1.931,1.628c0.281,0.079,0.555,0.12,0.815,0.12c1.915,0,2.782-2.164,3.128-3.454
			c0.125-0.454,0.468-0.615,0.747-0.615c0.948,0,1.523,1.977,1.527,1.997c0.175,0.967,0.016,1.898-0.148,2.509
			c-0.719,2.666-3.14,4.459-6.025,4.459c-0.217,0-0.436-0.01-0.657-0.031c-2.966-0.276-5.729-2.754-6.569-5.892
			c-0.791-2.956,0.104-6.433,2.28-8.858c2.217-2.47,5.645-3.945,9.172-3.945c0.569,0,1.138,0.039,1.693,0.116
			c0.732,0.101,1.452,0.27,2.139,0.5c5.581,1.876,8.689,7.867,7.229,13.936c-0.917,3.814-3.449,7.22-7.128,9.591
			c-1.43,0.922-2.993,1.657-4.656,2.19c0.454,0.847,0.931,1.577,1.575,2.251c1.504,1.573,3.415,2.911,5.529,3.869
			c2.976,1.348,6.441,2.115,10.905,2.413c0.331,0.022,0.663,0.033,0.995,0.033C251.562,130.604,254.608,129.671,257.104,127.978z
			 M111.961,134.882c-1.531,0-2.777,1.23-2.777,2.742c0,1.512,1.245,2.742,2.777,2.742c1.531,0,2.776-1.23,2.776-2.742
			C114.737,136.112,113.492,134.882,111.961,134.882z M103.148,129.598c-1.302,0-2.361,1.046-2.361,2.331
			c0,1.286,1.059,2.332,2.361,2.332c1.302,0,2.361-1.046,2.361-2.332C105.509,130.644,104.45,129.598,103.148,129.598z
			 M91.521,128.049c-1.098,0-1.992,0.883-1.992,1.967c0,1.085,0.894,1.967,1.992,1.967c1.099,0,1.993-0.882,1.993-1.967
			C93.514,128.932,92.62,128.049,91.521,128.049z M79.134,129.37c-1.366,0-2.476,1.097-2.476,2.445c0,1.349,1.11,2.446,2.476,2.446
			c1.366,0,2.477-1.097,2.477-2.446C81.611,130.467,80.5,129.37,79.134,129.37z M145.027,151.742
			c-0.378-0.996-2.081-2.908-3.416-2.908c-0.531,0-0.969,0.286-1.202,0.785c-0.262,0.564,0.065,1.138,0.281,1.518
			c0.04,0.07,0.077,0.133,0.101,0.187c0.236,0.517,0.374,0.92,0.446,1.306c0.138,0.722,0.02,1.392-0.323,1.836
			c-0.165,0.215-0.404,0.393-0.688,0.534h4.913C145.431,153.91,145.414,152.762,145.027,151.742z M117.451,142.99
			c-1.658,0-3.006,1.332-3.006,2.97c0,1.637,1.348,2.969,3.006,2.969c1.659,0,3.008-1.332,3.008-2.969
			C120.459,144.323,119.109,142.99,117.451,142.99z M221.923,16.129c1.496,0,2.713-1.202,2.713-2.68
			c0-1.477-1.217-2.679-2.713-2.679c-1.497,0-2.714,1.202-2.714,2.679C219.209,14.927,220.426,16.129,221.923,16.129z
			 M230.858,12.063c1.509,0,2.736-1.212,2.736-2.702c0-1.49-1.228-2.702-2.736-2.702c-1.509,0-2.737,1.212-2.737,2.702
			C228.121,10.85,229.349,12.063,230.858,12.063z M124.022,4.39c0.112,0.22,0.34,0.355,0.584,0.355c0.033,0,0.066-0.003,0.098-0.007
			c3.099-0.465,5.858-2.244,7.734-4.738h-5.317c-1.468,2.134-2.94,3.604-2.977,3.641C123.944,3.838,123.895,4.141,124.022,4.39z
			 M237.613,4.341c1.713,0,3.107-1.376,3.107-3.068c0-0.455-0.108-0.884-0.289-1.273h-5.636c-0.181,0.389-0.289,0.818-0.289,1.273
			C234.507,2.965,235.9,4.341,237.613,4.341z M263.629,77.701c-0.18,0.235-0.178,0.56,0.007,0.791
			c0.128,0.159,0.319,0.246,0.514,0.246c0.089,0,0.179-0.018,0.264-0.055c0.049-0.021,4.946-2.124,9.918-2.124
			c2.236,0,4.128,0.418,5.668,1.247v-5.458c-1.293-0.338-2.643-0.517-4.013-0.517C271.075,71.831,266.455,74.026,263.629,77.701z
			 M272.971,130.807c-2.727,2.377-3.683,5.029-4.006,6.382c-0.107,0.404-0.02,0.864,0.222,1.172
			c0.247,0.315,0.635,0.503,1.038,0.503c0.873,0,1.159-0.637,1.436-1.252c0.161-0.343,0.463-0.982,1.01-1.756
			c0.609-0.878,1.405-1.702,2.298-2.381c1.234-0.922,2.555-1.51,3.932-1.75c0.356-0.065,0.725-0.096,1.099-0.109v-3.775
			c-0.627,0.049-1.245,0.129-1.837,0.274C276.309,128.557,274.565,129.461,272.971,130.807z M88.926,9.949
			c1.639,0,2.973-1.317,2.973-2.935c0-1.619-1.333-2.935-2.973-2.935c-1.638,0-2.972,1.317-2.972,2.935
			C85.955,8.632,87.288,9.949,88.926,9.949z M268.487,2.829h0.002c3.326,0,6.52-0.998,9.319-2.829h-18.884
			c0.861,0.579,1.804,1.091,2.83,1.498C263.975,2.381,266.24,2.828,268.487,2.829z M255.139,4.52
			c-11.2,4.128-20.602,13.988-16.359,26.709c2.69,8.072,10.634,13.708,19.316,13.708c0.534,0,1.074-0.022,1.603-0.066
			c5.33-0.44,10.067-3.057,12.672-7c2.216-3.352,2.721-7.676,1.318-11.287c-0.724-1.867-1.782-3.6-2.902-4.754
			c-0.745-0.768-1.538-1.375-2.357-1.804c-0.2-0.104-0.501-0.19-0.978-0.321c-0.314-0.087-0.841-0.232-0.971-0.31
			c0,0,0.053,0.033,0.107,0.11l-1.078,0.734l0.124,0.177c2.762,4.045,3.447,7.762,2.095,11.363c-1.471,3.912-5.282,6.84-9.484,7.284
			c-0.371,0.039-0.752,0.059-1.13,0.059c-3.85,0-7.657-2.039-9.701-5.193c-2.743-4.236-2.347-10.421,0.962-15.041
			c0.378-0.529,0.803-1.057,1.263-1.569c4.322-4.809,11.139-7.796,17.792-7.796c1.311,0,2.602,0.119,3.835,0.353
			c3.884,0.737,6.751,2.385,8.73,5.016V7.172c-4.408-2.819-9.686-4.407-15.066-4.407C261.595,2.765,258.299,3.356,255.139,4.52z
			 M24.808,18.649c1.302,0,2.361-1.046,2.361-2.332c0-1.286-1.059-2.331-2.361-2.331c-1.302,0-2.361,1.046-2.361,2.331
			C22.447,17.603,23.506,18.649,24.808,18.649z M26.976,8.446c1.429,0,2.592-1.148,2.592-2.56c0-1.411-1.163-2.559-2.592-2.559
			c-1.429,0-2.592,1.148-2.592,2.559C24.384,7.298,25.547,8.446,26.976,8.446z M9.789,124.149c0-7.882-3.926-14.938-9.789-18.062
			v6.521c1.907,2.782,3.002,6.296,3.002,10.031c0,3.735-1.095,7.249-3.002,10.03v9.542C5.863,139.088,9.789,132.032,9.789,124.149z
			 M24.427,49.722c-1.64,0-2.973,1.317-2.973,2.935c0,1.619,1.333,2.935,2.973,2.935c1.639,0,2.973-1.317,2.973-2.935
			C27.399,51.039,26.066,49.722,24.427,49.722z M89.031,21.975c1.773,0,3.214-1.424,3.214-3.174c0-1.751-1.441-3.175-3.214-3.175
			s-3.215,1.424-3.215,3.175C85.816,20.551,87.258,21.975,89.031,21.975z M2.995,16.697c1.492,0,2.905-0.54,3.978-1.519
			c0.209-0.191,0.404-0.514,0.706-1.027c0.155-0.264,0.415-0.706,0.52-0.805c-0.001,0-0.042,0.039-0.122,0.069L7.607,12.21
			c-0.754,0.287-1.6,0.44-2.45,0.44c-2.073,0-4.237-0.9-5.157-2.83v6.205c0.646,0.284,1.319,0.485,2.002,0.593
			C2.332,16.671,2.666,16.697,2.995,16.697z M87.3,33.249c1.582,0,2.87-1.271,2.87-2.833c0-1.562-1.287-2.833-2.87-2.833
			c-1.582,0-2.868,1.271-2.868,2.833C84.432,31.978,85.718,33.249,87.3,33.249z M80.694,39.128c0,1.619,1.333,2.935,2.973,2.935
			c1.639,0,2.973-1.317,2.973-2.935c0-1.619-1.333-2.935-2.973-2.935C82.028,36.193,80.694,37.51,80.694,39.128z M16.71,70.699
			c-1.505,0-2.729,1.209-2.729,2.696s1.224,2.696,2.729,2.696c1.506,0,2.731-1.209,2.731-2.696S18.216,70.699,16.71,70.699z
			 M21.831,61.406c-1.696,0-3.076,1.363-3.076,3.038c0,1.675,1.38,3.037,3.076,3.037c1.696,0,3.077-1.363,3.077-3.037
			C24.908,62.769,23.528,61.406,21.831,61.406z"/>
	</g>
</g>
<rect x="20" y="17.5" opacity="0.5" fill="#FFFFFF" width="240" height="120"/>
<rect x="20" y="17.5" fill="none" stroke="#6D6E71" stroke-width="1.1888" stroke-linecap="round" stroke-linejoin="round" stroke-miterlimit="10" width="240" height="120"/>
</svg>