<!-- Generator: Adobe Illustrator 19.2.0, SVG Export Plug-In  -->
<svg version="1.1"
	 xmlns="http://www.w3.org/2000/svg" xmlns:xlink="http://www.w3.org/1999/xlink" xmlns:a="http://ns.adobe.com/AdobeSVGViewerExtensions/3.0/"
	 x="0px" y="0px" width="458.474px" height="74.442px" viewBox="0 0 458.474 74.442"
	 style="enable-background:new 0 0 458.474 74.442;" xml:space="preserve">
<style type="text/css">
	.st0{fill:#D1D3D4;}
	.st1{fill:#FFFFFF;}
	.st2{fill:#FFFFFF;stroke:#FFFFFF;stroke-width:0.25;stroke-miterlimit:10;}
</style>
<defs>
</defs>
<g>
	<g>
		<g>
			<path class="st0" d="M450.581,73.942c-0.618,0-1.213-0.104-1.768-0.309c-0.266-0.097-0.548-0.146-0.836-0.146
				c-0.238,0-0.475,0.035-0.701,0.103c-0.422,0.128-0.868,0.193-1.323,0.193c-0.814,0-1.575-0.215-2.2-0.622
				c-0.396-0.257-0.857-0.393-1.335-0.393c-0.208,0-0.413,0.026-0.611,0.078c-0.319,0.084-0.657,0.127-1.004,0.127
				c-0.565,0-1.12-0.113-1.603-0.325c-0.248-0.111-0.474-0.24-0.673-0.386c-0.412-0.294-0.903-0.451-1.416-0.451
				c-0.417,0-0.827,0.105-1.187,0.306c-1.136,0.633-2.662,1.372-4.401,1.463c-0.132,0.008-0.271,0.013-0.414,0.013
				c-1.104,0-2.104-0.245-2.887-0.708c-0.365-0.214-0.792-0.327-1.235-0.327c-0.444,0-0.873,0.114-1.239,0.331
				c-0.479,0.284-1.026,0.429-1.627,0.429c-0.57,0-1.134-0.138-1.632-0.397c-0.215-0.111-0.421-0.25-0.613-0.411
				c-0.433-0.355-0.984-0.554-1.548-0.554H38.146c-0.565,0-1.117,0.198-1.555,0.558c-0.18,0.151-0.385,0.289-0.603,0.405
				c-0.502,0.262-1.066,0.399-1.638,0.399c-0.6,0-1.146-0.145-1.626-0.429c-0.366-0.216-0.795-0.331-1.24-0.331
				c-0.442,0-0.869,0.113-1.234,0.328c-0.785,0.462-1.783,0.707-2.885,0.707c-0.142,0-0.281-0.005-0.419-0.013
				c-1.735-0.091-3.262-0.83-4.397-1.463c-0.359-0.2-0.77-0.306-1.186-0.306c-0.514,0-1.006,0.157-1.422,0.455
				c-0.198,0.145-0.424,0.274-0.668,0.381c-0.484,0.215-1.037,0.327-1.597,0.327c-0.347,0-0.687-0.043-1.01-0.128
				c-0.196-0.052-0.401-0.078-0.609-0.078c-0.479,0-0.941,0.136-1.337,0.394c-0.629,0.406-1.391,0.621-2.202,0.621
				c-0.456,0-0.902-0.065-1.325-0.194c-0.223-0.066-0.458-0.102-0.697-0.102c-0.288,0-0.569,0.05-0.836,0.147
				c-0.553,0.201-1.161,0.307-1.76,0.307c-0.354,0-0.701-0.036-1.035-0.107c-1.403-0.306-2.663-1.36-3.21-2.689
				c-0.376-0.906-0.454-1.902-0.23-2.959c0.184-0.882-0.131-1.79-0.82-2.369C1.757,65.105,1.132,64.149,0.8,63.05
				c-0.421-1.402-0.239-2.859,0.512-4.104c0.374-0.624,0.451-1.377,0.211-2.064c-0.118-0.327-0.186-0.681-0.201-1.046
				c-0.024-0.574,0.131-1.177,0.437-1.696c0.409-0.688,0.453-1.534,0.118-2.263c-0.606-1.316-0.834-2.683-0.656-3.951l0.508-0.06
				l-0.498-0.048c0.06-0.618,0.182-1.235,0.373-1.888c0.224-0.758,0.066-1.579-0.421-2.198c-0.467-0.596-0.714-1.381-0.677-2.153
				c0.043-0.99,0.472-1.877,1.206-2.495c0.55-0.465,0.866-1.145,0.866-1.863c0-0.72-0.315-1.399-0.866-1.864
				c-0.735-0.622-1.163-1.509-1.206-2.496c-0.037-0.773,0.21-1.559,0.678-2.153c0.485-0.617,0.644-1.438,0.422-2.194
				c-0.192-0.646-0.314-1.265-0.375-1.888l-0.013-0.11c-0.175-1.269,0.054-2.635,0.659-3.953c0.335-0.727,0.291-1.57-0.117-2.259
				c-0.308-0.522-0.462-1.126-0.435-1.7c0.012-0.355,0.079-0.71,0.199-1.047c0.239-0.684,0.162-1.437-0.213-2.063
				c-0.75-1.244-0.932-2.701-0.509-4.102c0.329-1.096,0.953-2.053,1.804-2.767c0.691-0.581,1.006-1.49,0.82-2.372
				c-0.224-1.055-0.146-2.05,0.23-2.957c0.549-1.332,1.81-2.387,3.211-2.687C7.201,0.537,7.552,0.5,7.907,0.5
				c0.596,0,1.202,0.105,1.752,0.306c0.269,0.099,0.55,0.148,0.837,0.148c0.239,0,0.475-0.035,0.699-0.104
				c0.428-0.128,0.873-0.192,1.324-0.192c0.812,0,1.573,0.215,2.201,0.621c0.391,0.253,0.865,0.393,1.339,0.393
				c0.208,0,0.413-0.026,0.61-0.077c0.319-0.085,0.657-0.127,1.004-0.127c0.563,0,1.118,0.113,1.603,0.328
				c0.232,0.102,0.458,0.229,0.666,0.379c0.418,0.298,0.91,0.455,1.422,0.455c0.416,0,0.826-0.106,1.185-0.307
				c1.138-0.633,2.665-1.371,4.4-1.462c0.127-0.01,0.271-0.013,0.417-0.013c1.102,0,2.1,0.243,2.885,0.704
				c0.367,0.217,0.795,0.331,1.237,0.331c0.444,0,0.873-0.114,1.239-0.331c0.483-0.285,1.03-0.429,1.626-0.429
				c0.569,0,1.134,0.138,1.633,0.397c0.214,0.112,0.418,0.249,0.609,0.407c0.434,0.36,0.984,0.558,1.551,0.558h382.182
				c0.564,0,1.115-0.198,1.552-0.558c0.198-0.163,0.403-0.3,0.61-0.407c0.497-0.26,1.061-0.397,1.631-0.397
				c0.597,0,1.144,0.144,1.626,0.428c0.367,0.218,0.796,0.332,1.24,0.332c0.442,0,0.869-0.114,1.234-0.33
				c0.791-0.462,1.788-0.705,2.888-0.705c0.146,0,0.29,0.003,0.429,0.014c1.723,0.09,3.25,0.828,4.387,1.461
				c0.359,0.2,0.77,0.307,1.187,0.307c0.512,0,1.003-0.157,1.422-0.456c0.204-0.148,0.431-0.276,0.67-0.38
				c0.48-0.213,1.035-0.326,1.599-0.326c0.347,0,0.685,0.042,1.005,0.127c0.197,0.052,0.402,0.078,0.609,0.078
				c0.473,0,0.947-0.14,1.337-0.393c0.629-0.407,1.391-0.622,2.202-0.622c0.451,0,0.896,0.064,1.322,0.191
				c0.228,0.069,0.463,0.104,0.702,0.104c0.287,0,0.568-0.05,0.835-0.147c0.552-0.2,1.157-0.306,1.754-0.306
				c0.355,0,0.705,0.037,1.041,0.11c1.401,0.301,2.661,1.355,3.209,2.687c0.376,0.905,0.454,1.9,0.231,2.956
				c-0.186,0.882,0.129,1.791,0.82,2.372c0.852,0.715,1.475,1.672,1.803,2.768c0.423,1.396,0.242,2.854-0.508,4.102
				c-0.375,0.624-0.452,1.377-0.212,2.064c0.117,0.332,0.185,0.685,0.201,1.046c0.023,0.583-0.134,1.187-0.441,1.7
				c-0.405,0.687-0.448,1.531-0.114,2.257c0.606,1.324,0.834,2.691,0.657,3.954l-0.511,0.062l0.498,0.046
				c-0.058,0.618-0.18,1.236-0.373,1.891c-0.223,0.754-0.065,1.574,0.421,2.194c0.469,0.596,0.717,1.382,0.68,2.154
				c-0.046,0.99-0.475,1.876-1.206,2.494c-0.551,0.463-0.866,1.143-0.866,1.864c0,0.721,0.315,1.4,0.865,1.864
				c0.732,0.617,1.161,1.503,1.207,2.494c0.037,0.773-0.211,1.559-0.681,2.154c-0.485,0.619-0.643,1.44-0.42,2.194
				c0.193,0.654,0.315,1.273,0.373,1.893l0.012,0.1c0.176,1.276-0.052,2.643-0.656,3.959c-0.334,0.726-0.291,1.571,0.116,2.263
				c0.306,0.517,0.461,1.118,0.438,1.694c-0.014,0.359-0.081,0.712-0.199,1.048c-0.24,0.687-0.163,1.438,0.212,2.062
				c0.75,1.249,0.931,2.707,0.508,4.104c-0.328,1.097-0.952,2.055-1.803,2.769c-0.691,0.579-1.006,1.487-0.82,2.37
				c0.223,1.056,0.145,2.051-0.231,2.957c-0.549,1.328-1.81,2.384-3.211,2.688C451.273,73.905,450.928,73.942,450.581,73.942z"/>
			<path class="st0" d="M450.568,1c0.315,0,0.63,0.032,0.935,0.098c1.245,0.268,2.366,1.205,2.854,2.388
				c0.337,0.813,0.406,1.708,0.204,2.663c-0.224,1.063,0.155,2.158,0.988,2.858c0.773,0.649,1.345,1.524,1.646,2.528
				c0.381,1.263,0.217,2.577-0.459,3.7c-0.452,0.753-0.545,1.659-0.254,2.488c0.102,0.288,0.16,0.589,0.173,0.902
				c0.02,0.481-0.111,0.988-0.37,1.422c-0.49,0.828-0.542,1.848-0.14,2.723c0.565,1.234,0.78,2.504,0.616,3.676
				c-0.005,0.042-0.011,0.084-0.016,0.131c-0.053,0.58-0.168,1.167-0.354,1.795c-0.268,0.911-0.078,1.899,0.507,2.645
				c0.396,0.503,0.604,1.165,0.574,1.821c-0.04,0.851-0.405,1.608-1.03,2.136c-0.665,0.56-1.043,1.38-1.043,2.246
				c0,0.869,0.379,1.686,1.043,2.246c0.625,0.527,0.99,1.285,1.03,2.136c0.031,0.656-0.177,1.318-0.574,1.821
				c-0.585,0.747-0.775,1.735-0.507,2.645c0.186,0.627,0.301,1.216,0.354,1.797c0.004,0.042,0.009,0.084,0.016,0.128
				c0.162,1.172-0.051,2.444-0.616,3.676c-0.403,0.875-0.35,1.894,0.14,2.725c0.257,0.434,0.388,0.94,0.368,1.42
				c-0.011,0.312-0.068,0.614-0.17,0.902c-0.291,0.829-0.197,1.735,0.254,2.486c0.676,1.126,0.84,2.439,0.459,3.702
				c-0.301,1.004-0.873,1.881-1.646,2.53c-0.833,0.698-1.212,1.792-0.988,2.856c0.202,0.955,0.133,1.85-0.204,2.663
				c-0.489,1.183-1.61,2.12-2.855,2.391c-0.297,0.064-0.605,0.098-0.919,0.098c-0.556,0-1.095-0.093-1.595-0.277
				c-0.324-0.119-0.667-0.178-1.01-0.178c-0.285,0-0.569,0.041-0.843,0.122c-0.379,0.115-0.775,0.173-1.181,0.173
				c-0.715,0-1.382-0.186-1.928-0.541c-0.479-0.311-1.042-0.473-1.608-0.474c-0.248,0-0.496,0.031-0.738,0.095
				c-0.28,0.073-0.578,0.11-0.877,0.11c-0.486,0-0.977-0.096-1.4-0.282c-0.204-0.091-0.401-0.202-0.581-0.332
				c-0.503-0.359-1.095-0.547-1.71-0.547c-0.499,0-0.992,0.126-1.429,0.37c-1.09,0.607-2.55,1.314-4.186,1.4
				c-0.124,0.007-0.255,0.011-0.388,0.011c-1.012,0-1.923-0.219-2.632-0.638c-0.451-0.264-0.97-0.397-1.49-0.397
				c-0.521,0-1.043,0.133-1.495,0.401c-0.403,0.239-0.864,0.359-1.371,0.359c-0.488,0-0.973-0.117-1.4-0.341
				c-0.18-0.093-0.357-0.21-0.523-0.35c-0.525-0.432-1.19-0.671-1.87-0.671H38.147c-0.683,0-1.347,0.239-1.873,0.671
				c-0.166,0.14-0.341,0.255-0.52,0.35c-0.428,0.224-0.913,0.341-1.403,0.341c-0.507,0-0.968-0.12-1.372-0.359
				c-0.452-0.267-0.973-0.401-1.494-0.401c-0.519,0-1.038,0.132-1.488,0.397c-0.711,0.419-1.622,0.638-2.632,0.638
				c-0.133,0-0.264-0.004-0.393-0.011c-1.63-0.086-3.09-0.793-4.18-1.4c-0.437-0.244-0.931-0.37-1.429-0.37
				c-0.618,0-1.212,0.19-1.713,0.549c-0.177,0.129-0.372,0.239-0.578,0.33c-0.428,0.188-0.913,0.284-1.396,0.284
				c-0.3,0-0.598-0.037-0.882-0.112c-0.242-0.063-0.49-0.095-0.738-0.095c-0.566,0-1.13,0.162-1.609,0.474
				c-0.545,0.352-1.212,0.541-1.93,0.541c-0.405,0-0.802-0.058-1.179-0.173c-0.273-0.081-0.558-0.122-0.843-0.122
				c-0.342,0-0.685,0.059-1.009,0.178c-0.499,0.181-1.044,0.276-1.587,0.276c-0.314,0-0.627-0.032-0.929-0.097
				c-1.245-0.27-2.366-1.207-2.854-2.391c-0.336-0.813-0.405-1.708-0.204-2.665c0.222-1.061-0.155-2.156-0.988-2.856
				c-0.775-0.649-1.345-1.524-1.648-2.528c-0.379-1.263-0.217-2.577,0.46-3.7c0.452-0.753,0.545-1.659,0.255-2.488
				c-0.102-0.286-0.159-0.589-0.173-0.902c-0.02-0.481,0.111-0.986,0.368-1.422c0.492-0.829,0.545-1.848,0.142-2.725
				c-0.567-1.23-0.78-2.499-0.616-3.673c0.004-0.042,0.009-0.086,0.014-0.128c0.055-0.583,0.17-1.17,0.354-1.795
				c0.268-0.911,0.08-1.901-0.508-2.648c-0.394-0.503-0.603-1.165-0.571-1.821c0.038-0.851,0.403-1.609,1.03-2.136
				c0.663-0.56,1.043-1.378,1.043-2.246c0-0.866-0.381-1.686-1.043-2.246c-0.625-0.527-0.993-1.285-1.03-2.136
				c-0.031-0.656,0.177-1.321,0.571-1.821c0.587-0.747,0.776-1.735,0.51-2.645c-0.186-0.625-0.301-1.214-0.356-1.795
				c-0.004-0.044-0.009-0.089-0.016-0.131c-0.162-1.172,0.051-2.444,0.618-3.676c0.403-0.875,0.35-1.894-0.142-2.723
				c-0.254-0.434-0.388-0.939-0.365-1.422c0.011-0.31,0.069-0.614,0.17-0.902c0.29-0.828,0.197-1.735-0.255-2.488
				c-0.678-1.124-0.839-2.437-0.458-3.7c0.301-1.004,0.873-1.879,1.646-2.528c0.833-0.7,1.212-1.795,0.988-2.858
				C3.713,5.195,3.781,4.3,4.118,3.487c0.488-1.183,1.609-2.123,2.854-2.388C7.277,1.032,7.592,1,7.907,1
				c0.542,0,1.084,0.095,1.582,0.275c0.323,0.119,0.665,0.178,1.008,0.178c0.285,0,0.57-0.041,0.844-0.125
				c0.379-0.113,0.776-0.171,1.179-0.171c0.718,0,1.385,0.188,1.93,0.541c0.479,0.311,1.044,0.472,1.61,0.472
				c0.248,0,0.496-0.031,0.736-0.094c0.282-0.074,0.579-0.11,0.877-0.11c0.487,0,0.975,0.097,1.4,0.285
				c0.204,0.089,0.399,0.199,0.578,0.328c0.503,0.359,1.095,0.55,1.713,0.55c0.499,0,0.993-0.126,1.429-0.37
				c1.09-0.607,2.55-1.314,4.183-1.4c0.126-0.009,0.257-0.011,0.39-0.011c1.012,0,1.923,0.219,2.632,0.636
				c0.451,0.266,0.97,0.399,1.49,0.399c0.521,0,1.042-0.134,1.495-0.401c0.403-0.237,0.864-0.359,1.372-0.359
				c0.487,0,0.973,0.117,1.402,0.341c0.175,0.093,0.352,0.21,0.521,0.35c0.525,0.434,1.19,0.671,1.87,0.671h382.181
				c0.68,0,1.343-0.237,1.87-0.671c0.166-0.137,0.343-0.257,0.523-0.35c0.428-0.224,0.913-0.341,1.4-0.341
				c0.507,0,0.968,0.122,1.371,0.359c0.452,0.267,0.973,0.401,1.495,0.401c0.52,0,1.039-0.133,1.49-0.399
				c0.711-0.417,1.62-0.636,2.632-0.636c0.133,0,0.264,0.002,0.39,0.011c1.633,0.086,3.093,0.793,4.183,1.4
				c0.437,0.244,0.93,0.37,1.429,0.37c0.618,0,1.21-0.191,1.712-0.55c0.178-0.128,0.373-0.239,0.579-0.328
				c0.425-0.188,0.913-0.285,1.4-0.285c0.298,0,0.596,0.036,0.877,0.11c0.241,0.063,0.489,0.095,0.736,0.095
				c0.566,0,1.131-0.162,1.61-0.474c0.545-0.352,1.212-0.541,1.93-0.541c0.403,0,0.799,0.058,1.178,0.171
				c0.274,0.083,0.56,0.124,0.846,0.124c0.342,0,0.684-0.059,1.007-0.177C449.483,1.095,450.026,1,450.568,1 M450.568,0
				c-0.654,0-1.319,0.116-1.923,0.335c-0.214,0.078-0.437,0.117-0.666,0.117c-0.19,0-0.378-0.027-0.557-0.081
				c-0.475-0.142-0.968-0.213-1.467-0.213c-0.908,0-1.763,0.242-2.473,0.701c-0.312,0.203-0.69,0.313-1.067,0.313
				c-0.165,0-0.327-0.021-0.482-0.062c-0.362-0.095-0.743-0.143-1.132-0.143c-0.633,0-1.257,0.128-1.805,0.371
				c-0.262,0.112-0.521,0.259-0.759,0.431c-0.329,0.234-0.72,0.36-1.127,0.36c-0.331,0-0.656-0.084-0.941-0.243
				c-1.186-0.66-2.78-1.429-4.618-1.526c-0.131-0.01-0.286-0.013-0.443-0.013c-1.189,0-2.273,0.267-3.137,0.773
				c-0.292,0.172-0.631,0.262-0.984,0.262c-0.355,0-0.696-0.091-0.985-0.262c-0.563-0.331-1.195-0.498-1.88-0.498
				c-0.65,0-1.295,0.157-1.864,0.455c-0.237,0.123-0.473,0.28-0.697,0.466c-0.345,0.284-0.783,0.441-1.232,0.441H38.147
				c-0.45,0-0.888-0.157-1.233-0.442c-0.214-0.177-0.446-0.333-0.688-0.462c-0.578-0.301-1.223-0.458-1.872-0.458
				c-0.686,0-1.317,0.167-1.878,0.497c-0.292,0.173-0.633,0.264-0.988,0.264c-0.354,0-0.693-0.09-0.981-0.26
				c-0.864-0.507-1.949-0.775-3.141-0.775c-0.158,0-0.312,0.003-0.461,0.014c-1.82,0.096-3.415,0.865-4.598,1.524
				c-0.286,0.16-0.611,0.244-0.943,0.244c-0.407,0-0.799-0.126-1.132-0.364c-0.236-0.169-0.493-0.315-0.761-0.431
				c-0.541-0.24-1.165-0.368-1.798-0.368c-0.39,0-0.77,0.048-1.132,0.143c-0.154,0.04-0.316,0.061-0.482,0.061
				c-0.378,0-0.757-0.11-1.066-0.311c-0.71-0.459-1.566-0.702-2.474-0.702c-0.5,0-0.992,0.072-1.465,0.212
				c-0.183,0.056-0.369,0.083-0.558,0.083c-0.229,0-0.452-0.039-0.663-0.117C9.225,0.116,8.561,0,7.907,0
				C7.516,0,7.131,0.041,6.76,0.121C5.205,0.453,3.804,1.625,3.194,3.105C2.779,4.108,2.692,5.202,2.936,6.356
				c0.147,0.7-0.103,1.423-0.653,1.886c-0.926,0.777-1.604,1.817-1.961,3.006c-0.463,1.537-0.265,3.137,0.56,4.504
				c0.297,0.495,0.359,1.094,0.167,1.641c-0.135,0.382-0.211,0.786-0.226,1.196c-0.03,0.658,0.147,1.359,0.502,1.964
				c0.328,0.552,0.362,1.222,0.097,1.799c-0.646,1.404-0.889,2.866-0.701,4.231l0.011,0.093c0.062,0.651,0.191,1.301,0.393,1.981
				c0.175,0.598,0.049,1.251-0.337,1.742c-0.541,0.687-0.827,1.594-0.784,2.487c0.05,1.127,0.542,2.141,1.384,2.852
				c0.437,0.37,0.688,0.91,0.688,1.482c0,0.572-0.251,1.113-0.689,1.483c-0.842,0.708-1.334,1.722-1.384,2.855
				c-0.042,0.887,0.243,1.793,0.783,2.482c0.388,0.493,0.513,1.146,0.335,1.749c-0.201,0.683-0.329,1.332-0.391,1.983l-0.005,0.044
				l-0.008,0.076c-0.186,1.33,0.056,2.793,0.703,4.196c0.266,0.578,0.231,1.249-0.094,1.795c-0.355,0.604-0.535,1.304-0.507,1.975
				c0.018,0.416,0.095,0.818,0.229,1.195c0.19,0.542,0.128,1.141-0.17,1.638c-0.823,1.364-1.022,2.963-0.561,4.502
				c0.361,1.194,1.04,2.234,1.964,3.007c0.548,0.46,0.798,1.183,0.651,1.885c-0.243,1.155-0.156,2.249,0.258,3.252
				c0.608,1.475,2.008,2.647,3.566,2.985c0.37,0.079,0.752,0.119,1.141,0.119c0.657,0,1.324-0.116,1.929-0.336
				c0.214-0.078,0.438-0.118,0.667-0.118c0.19,0,0.377,0.027,0.557,0.081c0.463,0.142,0.958,0.214,1.464,0.214
				c0.909,0,1.764-0.242,2.473-0.701c0.312-0.202,0.689-0.313,1.066-0.313c0.165,0,0.328,0.021,0.484,0.062
				c0.363,0.096,0.746,0.144,1.136,0.144c0.629,0,1.251-0.128,1.799-0.369c0.273-0.121,0.529-0.267,0.762-0.436
				c0.326-0.234,0.717-0.359,1.126-0.359c0.332,0,0.657,0.084,0.942,0.243c1.184,0.659,2.777,1.428,4.615,1.526
				c0.146,0.008,0.294,0.013,0.445,0.013c1.191,0,2.277-0.268,3.139-0.776c0.288-0.169,0.627-0.258,0.98-0.258
				c0.355,0,0.696,0.09,0.984,0.261c0.558,0.331,1.19,0.499,1.881,0.499c0.652,0,1.298-0.157,1.867-0.455
				c0.255-0.135,0.489-0.293,0.7-0.471c0.339-0.279,0.779-0.436,1.229-0.436h382.181c0.449,0,0.887,0.157,1.235,0.444
				c0.21,0.177,0.448,0.336,0.698,0.466c0.565,0.296,1.209,0.453,1.86,0.453c0.69,0,1.324-0.168,1.881-0.499
				c0.288-0.171,0.629-0.261,0.984-0.261c0.354,0,0.694,0.09,0.984,0.259c0.858,0.506,1.944,0.775,3.137,0.775
				c0.152,0,0.301-0.005,0.442-0.013c1.839-0.097,3.434-0.866,4.617-1.525c0.286-0.159,0.611-0.243,0.942-0.243
				c0.408,0,0.798,0.125,1.129,0.361c0.222,0.161,0.478,0.308,0.753,0.431c0.551,0.242,1.174,0.369,1.809,0.369
				c0.39,0,0.771-0.048,1.13-0.142c0.157-0.041,0.32-0.062,0.485-0.062c0.375,0,0.753,0.111,1.063,0.312
				c0.706,0.459,1.561,0.702,2.472,0.702c0.505,0,1-0.073,1.472-0.216c0.174-0.052,0.362-0.079,0.552-0.079
				c0.23,0,0.454,0.039,0.667,0.117c0.609,0.224,1.262,0.338,1.938,0.338c0.383,0,0.764-0.04,1.131-0.12
				c1.557-0.338,2.958-1.51,3.568-2.986c0.415-1.002,0.502-2.097,0.258-3.252c-0.147-0.701,0.102-1.422,0.652-1.883
				c0.926-0.778,1.604-1.818,1.962-3.009c0.462-1.533,0.264-3.134-0.56-4.505c-0.299-0.496-0.36-1.094-0.168-1.64
				c0.135-0.382,0.212-0.786,0.226-1.198c0.027-0.665-0.152-1.365-0.506-1.964c-0.323-0.548-0.358-1.221-0.092-1.798
				c0.645-1.406,0.886-2.868,0.699-4.23l-0.012-0.095c-0.059-0.641-0.187-1.292-0.391-1.978c-0.176-0.598-0.051-1.251,0.336-1.744
				c0.541-0.685,0.827-1.592,0.786-2.485c-0.053-1.132-0.545-2.145-1.384-2.853c-0.438-0.369-0.688-0.909-0.688-1.482
				c0-0.573,0.251-1.113,0.688-1.482c0.84-0.709,1.332-1.722,1.385-2.853c0.042-0.893-0.245-1.8-0.788-2.488
				c-0.384-0.491-0.51-1.144-0.333-1.744c0.203-0.685,0.331-1.335,0.391-1.985l0.006-0.049l0-0.006l0.006-0.052
				c0.187-1.333-0.054-2.796-0.7-4.207c-0.267-0.579-0.232-1.251,0.091-1.798c0.355-0.595,0.537-1.297,0.508-1.973
				c-0.018-0.412-0.094-0.814-0.229-1.194c-0.191-0.543-0.129-1.142,0.169-1.64c0.824-1.368,1.022-2.968,0.559-4.503
				c-0.356-1.188-1.035-2.227-1.96-3.005c-0.55-0.462-0.8-1.185-0.653-1.886c0.244-1.154,0.157-2.249-0.259-3.252
				c-0.608-1.476-2.008-2.648-3.567-2.983C451.344,0.041,450.959,0,450.568,0L450.568,0z"/>
		</g>
	</g>
	<g>
		<g>
			<g>
				<g>
					<path class="st1" d="M453.672,58.642c-1.362-0.563-3.217,0.197-3.487,1.728c-0.124,0.696,0.009,1.464,0.627,1.885
						c0.552,0.375,1.394,0.452,1.859-0.093c0.368-0.434-0.257-1.066-0.629-0.629c-0.266,0.315-0.829,0.035-0.955-0.297
						c-0.202-0.527,0.031-1.103,0.419-1.462c0.831-0.775,2.087-0.421,2.783,0.33c0.787,0.848,0.561,2.269-0.097,3.117
						c-0.658,0.846-1.746,1.157-2.778,1.119c-1.15-0.04-2.145-0.851-2.636-1.846c-0.618-1.247-0.224-2.776,0.337-3.961
						c0.596-1.267,1.48-2.342,2.397-3.396c-0.002,0.04-0.007,0.077-0.007,0.117c-0.018,0.964,0.521,1.857,1.506,2.025
						c0.966,0.164,1.877-0.538,1.919-1.524c0.035-0.877-1.072-1.622-1.717-0.871c-0.372,0.43,0.253,1.064,0.627,0.627
						c-0.013-0.086,0.007-0.095,0.062-0.029c0.071,0.062,0.129,0.177,0.14,0.272c0.029,0.259-0.213,0.483-0.41,0.594
						c-0.443,0.25-0.977-0.075-1.139-0.496c-0.576-1.489,1.07-3.04,1.757-4.214c0.596-1.024,0.982-2.335,0.787-3.534
						c-0.055-0.709-0.219-1.389-0.456-2.078c-0.328-0.959-0.9-1.799-1.27-2.738c-0.253-0.64-0.321-1.606,0.33-2.034
						c0.286-0.186,0.738-0.244,1.015-0.015c0.168,0.137,0.201,0.354,0.208,0.556c0.007,0.071-0.018,0.124-0.064,0.162
						c0.025,0.031,0.029,0.106-0.022,0.257c0.031-0.091,0.031-0.175,0.011-0.248c-0.007,0.004-0.011,0.011-0.02,0.013
						c-0.144,0.042-0.049-0.062,0.011-0.038c-0.124-0.332-0.716-0.403-0.86,0.038c-0.186,0.567,0.323,0.86,0.815,0.886
						c0.66,0.035,1.041-0.607,1.013-1.197c-0.064-1.422-1.728-1.845-2.745-1.046c-1.041,0.82-0.84,2.324-0.339,3.383
						c0.29,0.614,0.594,1.21,0.849,1.815c-0.971-0.585-2.22-0.651-3.188,0.069c-1.292,0.961-1.077,3.184,0.611,3.523
						c0.645,0.129,1.48-0.268,1.699-0.917c0.257-0.753-0.334-1.538-1.136-1.345c-0.556,0.133-0.319,0.991,0.237,0.855
						c0.146-0.035,0.06,0.211,0.022,0.259c-0.084,0.104-0.204,0.168-0.319,0.233c-0.182,0.106-0.41,0.044-0.589-0.04
						c-0.616-0.29-0.567-1.054-0.27-1.564c0.288-0.492,0.946-0.66,1.476-0.649c0.607,0.013,1.156,0.375,1.557,0.804
						c0.279,0.297,0.445,0.647,0.527,1.021c0.199,0.897-0.066,1.903-0.445,2.716c-0.6,1.289-1.67,2.393-2.583,3.467
						c-1.733,2.04-3.782,4.422-3.494,7.298c0.186,1.859,1.538,3.259,2.772,4.54c0.961,1.004,2.052,2.492,1.544,3.955
						c-0.386,1.115-2.03,1.349-2.88,0.676c-0.417-0.33-0.585-1.079-0.233-1.52c0.168-0.211,0.917-0.339,0.789,0.084
						c-0.168,0.549,0.691,0.782,0.858,0.235c0.217-0.714-0.253-1.283-0.961-1.38c-0.607-0.084-1.128,0.164-1.442,0.62
						c-0.004-0.04-0.007-0.08-0.011-0.117c-0.146-1.19-0.924-2.1-1.978-2.617c-2.4-1.177-5.222-0.16-7.415,1.003
						c-1.272,0.674-2.479,1.462-3.711,2.205c-1.265,0.762-2.634,1.48-4.145,1.502c-0.439,0.009-0.942-0.053-1.334-0.281
						c-0.013-0.013-0.027-0.024-0.042-0.038c-0.567-0.434-0.795-1.074-0.581-1.775c0.151-0.492,0.705-0.809,1.196-0.687
						c0.264,0.064,0.576,0.607,0.146,0.607c-0.574,0-0.574,0.888,0,0.888c0.979,0,1.323-0.926,0.904-1.721
						c-0.485-0.924-1.815-0.833-2.501-0.226c-0.485,0.428-0.698,1.001-0.702,1.593c-0.47-0.399-0.957-0.771-1.52-1.044
						c-1.09-0.527-2.435-0.518-3.392,0.272c-0.922,0.76-0.917,2.28,0.171,2.847c0.467,0.246,1.157,0.261,1.549-0.142
						c0.385-0.394,0.611-1.037,0.146-1.464c-0.423-0.388-1.052,0.239-0.632,0.627c0.06,0.053-0.19,0.237-0.226,0.248
						c-0.128,0.051-0.268,0.002-0.392-0.038c-0.395-0.126-0.439-0.483-0.37-0.833c0.168-0.815,1.097-1.024,1.801-0.991
						c1.312,0.064,2.373,1.208,3.361,2.1c0.627,0.804,1.799,0.986,2.781,0.933c1.409-0.075,2.736-0.744,3.935-1.436
						c1.243-0.722,2.442-1.513,3.698-2.211c0.018-0.011,0.038-0.022,0.055-0.033c-0.047,0.113-0.086,0.23-0.12,0.352
						c-0.266,0.977,0.02,2.125,1.006,2.559c0.857,0.377,2.1,0.098,2.428-0.866c0.343-1.001-0.341-1.89-1.398-1.679
						c-0.563,0.111-0.324,0.968,0.235,0.857c0.629-0.126,0.334,0.733-0.044,0.891c-0.512,0.213-1.077-0.002-1.332-0.478
						c-0.235-0.441-0.082-1.077,0.126-1.496c0.583-1.17,2.034-1.453,3.188-1.615c1.223-0.173,2.455-0.002,3.438,0.813
						c0.851,0.704,1.081,2.094,0.521,3.04c-0.255,0.43-0.736,0.634-1.214,0.629c-0.31-0.005-0.578-0.151-0.791-0.363
						c-0.102-0.1-0.184-0.297-0.115-0.437c0.009-0.02,0.153-0.201,0.144-0.206c0.494,0.292,0.939-0.476,0.448-0.769
						c-0.425-0.253-0.853-0.077-1.17,0.264c-0.392,0.421-0.392,0.966-0.166,1.464c0.481,1.05,1.967,1.108,2.845,0.634
						c0.448-0.242,0.753-0.627,0.942-1.072c0.386,1.145,1.892,1.717,3.113,1.453c0.782-0.171,1.504-0.782,1.808-1.515
						c0.377-0.911,0.184-1.905-0.193-2.778c-0.421-0.973-1.167-1.788-1.912-2.533c0.483,0.131,0.999,0.177,1.524,0.122
						c1.595-0.171,2.905-1.179,3.37-2.725C456.023,60.856,455.209,59.276,453.672,58.642z"/>
				</g>
				<g>
					<path class="st1" d="M454.797,41.957c-0.004-0.007-0.013-0.011-0.02-0.016c0.002,0.009,0.005,0.018,0.009,0.025
						C454.788,41.964,454.793,41.962,454.797,41.957z"/>
				</g>
			</g>
			<g>
				<g>
					<path class="st1" d="M4.555,58.642c1.363-0.563,3.215,0.197,3.487,1.728c0.124,0.696-0.009,1.464-0.629,1.885
						c-0.552,0.375-1.394,0.452-1.857-0.093c-0.368-0.434,0.255-1.066,0.629-0.629c0.266,0.315,0.829,0.035,0.955-0.297
						c0.202-0.527-0.031-1.103-0.421-1.462c-0.831-0.775-2.087-0.421-2.781,0.33c-0.787,0.848-0.563,2.269,0.098,3.117
						c0.658,0.846,1.746,1.157,2.778,1.119c1.148-0.04,2.142-0.851,2.634-1.846c0.62-1.247,0.226-2.776-0.334-3.961
						c-0.598-1.267-1.48-2.342-2.397-3.396c0.002,0.04,0.005,0.077,0.007,0.117c0.016,0.964-0.52,1.857-1.509,2.025
						c-0.966,0.164-1.876-0.538-1.916-1.524c-0.035-0.877,1.072-1.622,1.717-0.871c0.37,0.43-0.255,1.064-0.629,0.627
						c0.015-0.086-0.005-0.095-0.06-0.029c-0.071,0.062-0.128,0.177-0.14,0.272c-0.031,0.259,0.213,0.483,0.41,0.594
						c0.443,0.25,0.975-0.075,1.137-0.496c0.576-1.489-1.07-3.04-1.755-4.214c-0.598-1.024-0.984-2.335-0.787-3.534
						c0.053-0.709,0.219-1.389,0.456-2.078c0.328-0.959,0.9-1.799,1.269-2.738c0.253-0.64,0.319-1.606-0.33-2.034
						c-0.286-0.186-0.74-0.244-1.017-0.015c-0.166,0.137-0.199,0.354-0.208,0.556c-0.005,0.071,0.018,0.124,0.066,0.162
						c-0.024,0.031-0.029,0.106,0.02,0.257c-0.031-0.091-0.031-0.175-0.009-0.248c0.007,0.004,0.011,0.011,0.018,0.013
						c0.144,0.042,0.049-0.062-0.009-0.038c0.122-0.332,0.713-0.403,0.857,0.038c0.186,0.567-0.324,0.86-0.815,0.886
						c-0.658,0.035-1.039-0.607-1.012-1.197c0.066-1.422,1.73-1.845,2.745-1.046c1.044,0.82,0.842,2.324,0.339,3.383
						c-0.29,0.614-0.591,1.21-0.848,1.815c0.97-0.585,2.22-0.651,3.188,0.069c1.294,0.961,1.079,3.184-0.609,3.523
						c-0.647,0.129-1.48-0.268-1.702-0.917c-0.257-0.753,0.337-1.538,1.137-1.345c0.558,0.133,0.321,0.991-0.235,0.855
						c-0.146-0.035-0.062,0.211-0.022,0.259c0.082,0.104,0.204,0.168,0.317,0.233c0.184,0.106,0.412,0.044,0.589-0.04
						c0.616-0.29,0.569-1.054,0.272-1.564c-0.29-0.492-0.948-0.66-1.475-0.649c-0.607,0.013-1.157,0.375-1.56,0.804
						c-0.277,0.297-0.443,0.647-0.525,1.021c-0.199,0.897,0.064,1.903,0.445,2.716c0.601,1.289,1.668,2.393,2.581,3.467
						c1.735,2.04,3.782,4.422,3.494,7.298c-0.186,1.859-1.538,3.259-2.769,4.54c-0.964,1.004-2.052,2.492-1.544,3.955
						c0.385,1.115,2.029,1.349,2.878,0.676c0.419-0.33,0.587-1.079,0.235-1.52c-0.168-0.211-0.919-0.339-0.791,0.084
						c0.168,0.549-0.689,0.782-0.855,0.235c-0.219-0.714,0.253-1.283,0.961-1.38c0.605-0.084,1.126,0.164,1.44,0.62
						c0.005-0.04,0.009-0.08,0.013-0.117c0.144-1.19,0.924-2.1,1.979-2.617c2.397-1.177,5.222-0.16,7.413,1.003
						c1.272,0.674,2.481,1.462,3.713,2.205c1.265,0.762,2.634,1.48,4.145,1.502c0.437,0.009,0.939-0.053,1.332-0.281
						c0.013-0.013,0.029-0.024,0.044-0.038c0.565-0.434,0.793-1.074,0.578-1.775c-0.151-0.492-0.702-0.809-1.194-0.687
						c-0.264,0.064-0.578,0.607-0.148,0.607c0.574,0,0.574,0.888,0,0.888c-0.979,0-1.321-0.926-0.902-1.721
						c0.485-0.924,1.812-0.833,2.499-0.226c0.485,0.428,0.698,1.001,0.704,1.593c0.468-0.399,0.955-0.771,1.518-1.044
						c1.092-0.527,2.435-0.518,3.394,0.272c0.922,0.76,0.917,2.28-0.173,2.847c-0.468,0.246-1.154,0.261-1.547-0.142
						c-0.385-0.394-0.611-1.037-0.146-1.464c0.423-0.388,1.052,0.239,0.629,0.627c-0.06,0.053,0.193,0.237,0.226,0.248
						c0.131,0.051,0.27,0.002,0.395-0.038c0.394-0.126,0.439-0.483,0.368-0.833c-0.166-0.815-1.095-1.024-1.799-0.991
						c-1.312,0.064-2.375,1.208-3.361,2.1c-0.627,0.804-1.799,0.986-2.781,0.933c-1.409-0.075-2.739-0.744-3.935-1.436
						c-1.245-0.722-2.442-1.513-3.698-2.211c-0.02-0.011-0.04-0.022-0.058-0.033c0.047,0.113,0.086,0.23,0.122,0.352
						c0.266,0.977-0.022,2.125-1.008,2.559c-0.857,0.377-2.098,0.098-2.428-0.866c-0.341-1.001,0.343-1.89,1.4-1.679
						c0.563,0.111,0.323,0.968-0.237,0.857c-0.627-0.126-0.335,0.733,0.044,0.891c0.514,0.213,1.079-0.002,1.332-0.478
						c0.237-0.441,0.082-1.077-0.126-1.496c-0.583-1.17-2.034-1.453-3.188-1.615c-1.223-0.173-2.453-0.002-3.436,0.813
						c-0.853,0.704-1.083,2.094-0.521,3.04c0.255,0.43,0.734,0.634,1.214,0.629c0.31-0.005,0.576-0.151,0.791-0.363
						c0.102-0.1,0.182-0.297,0.115-0.437c-0.011-0.02-0.153-0.201-0.144-0.206c-0.494,0.292-0.942-0.476-0.45-0.769
						c0.428-0.253,0.853-0.077,1.172,0.264c0.392,0.421,0.39,0.966,0.164,1.464c-0.479,1.05-1.967,1.108-2.843,0.634
						c-0.447-0.242-0.753-0.627-0.944-1.072c-0.385,1.145-1.892,1.717-3.113,1.453c-0.782-0.171-1.502-0.782-1.808-1.515
						c-0.375-0.911-0.182-1.905,0.195-2.778c0.421-0.973,1.165-1.788,1.912-2.533c-0.485,0.131-0.999,0.177-1.524,0.122
						c-1.595-0.171-2.905-1.179-3.372-2.725C2.204,60.856,3.017,59.276,4.555,58.642z"/>
				</g>
				<g>
					<path class="st1" d="M3.429,41.957c0.005-0.007,0.011-0.011,0.02-0.016c-0.005,0.009-0.007,0.018-0.009,0.025
						C3.436,41.964,3.434,41.962,3.429,41.957z"/>
				</g>
			</g>
		</g>
		<g>
			<g>
				<g>
					<path class="st1" d="M4.555,15.798c1.363,0.563,3.215-0.197,3.487-1.726c0.124-0.698-0.009-1.467-0.629-1.888
						c-0.549-0.374-1.394-0.452-1.857,0.093c-0.368,0.434,0.257,1.066,0.629,0.629c0.266-0.312,0.829-0.035,0.955,0.297
						c0.202,0.527-0.031,1.103-0.421,1.464c-0.829,0.773-2.085,0.419-2.781-0.332c-0.787-0.848-0.563-2.269,0.098-3.117
						c0.658-0.846,1.746-1.154,2.778-1.119c1.15,0.04,2.142,0.851,2.634,1.846c0.62,1.247,0.226,2.776-0.334,3.961
						c-0.598,1.267-1.48,2.344-2.397,3.396c0.002-0.04,0.005-0.077,0.007-0.117c0.016-0.962-0.52-1.857-1.509-2.025
						c-0.966-0.164-1.876,0.538-1.916,1.524c-0.035,0.877,1.072,1.624,1.717,0.873c0.372-0.434-0.255-1.066-0.627-0.629
						c0.013,0.086-0.007,0.098-0.062,0.029c-0.071-0.062-0.128-0.177-0.14-0.272c-0.031-0.259,0.213-0.483,0.41-0.594
						c0.443-0.25,0.977,0.075,1.139,0.496c0.574,1.491-1.072,3.04-1.757,4.212c-0.598,1.026-0.981,2.34-0.787,3.536
						c0.055,0.711,0.219,1.389,0.456,2.078c0.328,0.959,0.9,1.801,1.269,2.738c0.253,0.64,0.319,1.606-0.33,2.034
						c-0.286,0.186-0.738,0.244-1.017,0.015c-0.166-0.137-0.199-0.354-0.208-0.556c-0.005-0.071,0.018-0.124,0.066-0.162
						c-0.024-0.031-0.029-0.106,0.022-0.257C3.42,32.32,3.42,32.402,3.44,32.475c0.007-0.005,0.011-0.011,0.02-0.013
						c0.142-0.04,0.046,0.062-0.011,0.038c0.122,0.335,0.713,0.403,0.857-0.038c0.186-0.567-0.324-0.86-0.815-0.886
						c-0.658-0.035-1.039,0.607-1.01,1.197c0.064,1.422,1.728,1.848,2.745,1.046c1.041-0.82,0.84-2.324,0.339-3.383
						c-0.292-0.614-0.594-1.21-0.851-1.815c0.97,0.585,2.22,0.654,3.188-0.069c1.294-0.961,1.079-3.184-0.609-3.521
						c-0.647-0.131-1.48,0.266-1.702,0.915c-0.257,0.753,0.337,1.54,1.139,1.347c0.556-0.135,0.319-0.993-0.237-0.857
						c-0.146,0.035-0.06-0.211-0.022-0.259c0.082-0.104,0.204-0.168,0.317-0.233c0.184-0.106,0.412-0.044,0.589,0.042
						c0.618,0.288,0.569,1.052,0.272,1.562c-0.29,0.492-0.948,0.66-1.475,0.649c-0.607-0.013-1.157-0.375-1.558-0.804
						c-0.279-0.297-0.445-0.647-0.527-1.021c-0.199-0.897,0.064-1.901,0.445-2.716c0.601-1.29,1.67-2.393,2.581-3.467
						c1.735-2.04,3.782-4.422,3.494-7.298C10.424,11.03,9.072,9.63,7.84,8.347c-0.964-1.001-2.052-2.49-1.544-3.953
						C6.682,3.28,8.325,3.046,9.174,3.719c0.419,0.33,0.587,1.079,0.235,1.52C9.24,5.45,8.492,5.578,8.618,5.157
						C8.786,4.608,7.929,4.373,7.763,4.92C7.546,5.636,8.015,6.203,8.724,6.3c0.605,0.084,1.126-0.164,1.442-0.618
						c0.002,0.038,0.007,0.078,0.011,0.115c0.144,1.19,0.924,2.1,1.979,2.619c2.397,1.174,5.222,0.157,7.413-1.006
						c1.274-0.673,2.481-1.46,3.713-2.204c1.265-0.762,2.634-1.48,4.145-1.504c0.437-0.005,0.939,0.055,1.332,0.284
						c0.016,0.013,0.029,0.027,0.044,0.038c0.565,0.434,0.793,1.074,0.578,1.775c-0.151,0.492-0.702,0.809-1.194,0.687
						c-0.264-0.064-0.576-0.607-0.148-0.607c0.574,0,0.574-0.888,0-0.888c-0.979,0-1.321,0.926-0.902,1.724
						c0.485,0.92,1.812,0.831,2.501,0.224c0.483-0.428,0.698-1.001,0.702-1.593c0.468,0.399,0.957,0.773,1.518,1.044
						c1.092,0.53,2.437,0.521,3.394-0.27c0.922-0.762,0.917-2.28-0.171-2.849c-0.47-0.246-1.156-0.262-1.549,0.14
						c-0.385,0.397-0.611,1.039-0.146,1.467c0.423,0.388,1.052-0.239,0.629-0.627c-0.058-0.053,0.193-0.237,0.226-0.25
						c0.131-0.047,0.27,0,0.395,0.04c0.394,0.126,0.439,0.483,0.368,0.833c-0.166,0.815-1.095,1.024-1.799,0.991
						c-1.312-0.064-2.373-1.208-3.361-2.1c-0.627-0.804-1.799-0.986-2.781-0.933c-1.409,0.075-2.736,0.745-3.935,1.438
						c-1.245,0.72-2.442,1.511-3.698,2.211c-0.018,0.009-0.038,0.02-0.058,0.031c0.047-0.113,0.086-0.228,0.122-0.352
						c0.266-0.977-0.02-2.125-1.008-2.559C17.631,3.216,16.39,3.5,16.06,4.461c-0.341,1.001,0.343,1.89,1.4,1.68
						c0.563-0.111,0.323-0.968-0.235-0.855C16.596,5.41,16.891,4.55,17.27,4.393c0.512-0.213,1.077,0.002,1.332,0.478
						c0.235,0.441,0.08,1.077-0.128,1.496c-0.581,1.17-2.032,1.453-3.186,1.615c-1.225,0.175-2.455,0.005-3.439-0.813
						c-0.851-0.702-1.081-2.092-0.521-3.042c0.255-0.428,0.734-0.631,1.214-0.627c0.31,0.005,0.578,0.151,0.791,0.363
						c0.102,0.1,0.184,0.297,0.115,0.436c-0.009,0.02-0.153,0.201-0.144,0.206c-0.494-0.292-0.942,0.476-0.447,0.769
						c0.425,0.253,0.851,0.078,1.17-0.264c0.392-0.419,0.392-0.966,0.164-1.464c-0.479-1.05-1.967-1.108-2.843-0.634
						C10.9,3.154,10.594,3.54,10.404,3.985c-0.385-1.143-1.89-1.717-3.113-1.451c-0.782,0.168-1.502,0.78-1.806,1.515
						C5.108,4.958,5.301,5.95,5.678,6.825C6.099,7.798,6.843,8.613,7.59,9.358C7.105,9.227,6.591,9.18,6.066,9.238
						c-1.595,0.168-2.905,1.177-3.372,2.723C2.204,13.585,3.017,15.162,4.555,15.798z"/>
				</g>
				<g>
					<path class="st1" d="M3.429,32.484c0.005,0.009,0.011,0.013,0.02,0.015c-0.005-0.007-0.007-0.018-0.009-0.024
						C3.438,32.477,3.434,32.479,3.429,32.484z"/>
				</g>
			</g>
			<g>
				<g>
					<path class="st1" d="M453.672,15.798c-1.362,0.563-3.215-0.197-3.487-1.726c-0.124-0.698,0.009-1.467,0.629-1.888
						c0.549-0.374,1.391-0.452,1.857,0.093c0.368,0.434-0.255,1.066-0.629,0.629c-0.266-0.312-0.829-0.035-0.955,0.297
						c-0.202,0.527,0.031,1.103,0.419,1.464c0.831,0.773,2.087,0.419,2.783-0.332c0.787-0.848,0.563-2.269-0.097-3.117
						c-0.658-0.846-1.746-1.154-2.778-1.119c-1.15,0.04-2.142,0.851-2.634,1.846c-0.62,1.247-0.226,2.776,0.335,3.961
						c0.596,1.267,1.48,2.344,2.397,3.396c-0.002-0.04-0.004-0.077-0.007-0.117c-0.018-0.962,0.521-1.857,1.509-2.025
						c0.964-0.164,1.874,0.538,1.917,1.524c0.035,0.877-1.072,1.624-1.717,0.873c-0.372-0.434,0.253-1.066,0.627-0.629
						c-0.013,0.086,0.007,0.098,0.062,0.029c0.071-0.062,0.129-0.177,0.14-0.272c0.031-0.259-0.213-0.483-0.41-0.594
						c-0.443-0.25-0.977,0.075-1.139,0.496c-0.574,1.491,1.07,3.04,1.757,4.212c0.598,1.026,0.982,2.34,0.787,3.536
						c-0.055,0.711-0.219,1.389-0.456,2.078c-0.328,0.959-0.9,1.801-1.27,2.738c-0.253,0.64-0.319,1.606,0.33,2.034
						c0.286,0.186,0.738,0.244,1.015,0.015c0.168-0.137,0.201-0.354,0.21-0.556c0.005-0.071-0.02-0.124-0.067-0.162
						c0.025-0.031,0.029-0.106-0.022-0.257c0.031,0.093,0.031,0.175,0.011,0.248c-0.007-0.005-0.011-0.011-0.02-0.013
						c-0.144-0.04-0.047,0.062,0.011,0.038c-0.124,0.335-0.713,0.403-0.857-0.038c-0.186-0.567,0.323-0.86,0.813-0.886
						c0.66-0.035,1.041,0.607,1.015,1.197c-0.066,1.422-1.73,1.848-2.747,1.046c-1.041-0.82-0.84-2.324-0.339-3.383
						c0.292-0.614,0.594-1.21,0.849-1.815c-0.968,0.585-2.218,0.654-3.188-0.069c-1.292-0.961-1.077-3.184,0.611-3.521
						c0.645-0.131,1.48,0.266,1.702,0.915c0.255,0.753-0.337,1.54-1.139,1.347c-0.556-0.135-0.319-0.993,0.237-0.857
						c0.146,0.035,0.06-0.211,0.022-0.259c-0.084-0.104-0.204-0.168-0.317-0.233c-0.184-0.106-0.412-0.044-0.592,0.042
						c-0.616,0.288-0.567,1.052-0.27,1.562c0.29,0.492,0.946,0.66,1.476,0.649c0.607-0.013,1.156-0.375,1.557-0.804
						c0.279-0.297,0.445-0.647,0.527-1.021c0.199-0.897-0.066-1.901-0.445-2.716c-0.6-1.29-1.668-2.393-2.583-3.467
						c-1.733-2.04-3.782-4.422-3.492-7.298c0.186-1.859,1.538-3.259,2.769-4.542c0.964-1.001,2.052-2.49,1.544-3.953
						c-0.386-1.114-2.03-1.349-2.878-0.676c-0.419,0.33-0.587,1.079-0.235,1.52c0.168,0.211,0.917,0.339,0.789-0.082
						c-0.166-0.549,0.691-0.784,0.858-0.237c0.217,0.716-0.253,1.283-0.961,1.38c-0.607,0.084-1.128-0.164-1.442-0.618
						c-0.004,0.038-0.007,0.078-0.011,0.115c-0.144,1.19-0.924,2.1-1.978,2.619c-2.397,1.174-5.222,0.157-7.415-1.006
						c-1.272-0.673-2.479-1.46-3.711-2.204c-1.265-0.762-2.634-1.48-4.145-1.504c-0.439-0.005-0.942,0.055-1.332,0.284
						c-0.015,0.013-0.029,0.027-0.044,0.038c-0.565,0.434-0.793,1.074-0.581,1.775c0.153,0.492,0.705,0.809,1.196,0.687
						c0.264-0.064,0.576-0.607,0.146-0.607c-0.574,0-0.574-0.888,0-0.888c0.981,0,1.323,0.926,0.904,1.724
						c-0.485,0.92-1.812,0.831-2.501,0.224c-0.485-0.428-0.696-1.001-0.702-1.593c-0.47,0.399-0.957,0.773-1.518,1.044
						c-1.092,0.53-2.437,0.521-3.394-0.27c-0.922-0.762-0.917-2.28,0.171-2.849c0.467-0.246,1.157-0.262,1.549,0.14
						c0.385,0.397,0.611,1.039,0.146,1.467c-0.423,0.388-1.052-0.239-0.629-0.627c0.058-0.053-0.193-0.237-0.226-0.25
						c-0.131-0.047-0.27,0-0.394,0.04c-0.395,0.126-0.439,0.483-0.368,0.833c0.166,0.815,1.094,1.024,1.799,0.991
						c1.312-0.064,2.375-1.208,3.361-2.1c0.627-0.804,1.799-0.986,2.781-0.933c1.409,0.075,2.736,0.745,3.935,1.438
						c1.243,0.72,2.442,1.511,3.698,2.211c0.018,0.009,0.038,0.02,0.055,0.031c-0.044-0.113-0.084-0.228-0.12-0.352
						c-0.266-0.977,0.022-2.125,1.006-2.559c0.857-0.379,2.1-0.095,2.43,0.866c0.341,1.001-0.343,1.89-1.4,1.68
						c-0.563-0.111-0.324-0.968,0.235-0.855c0.629,0.124,0.337-0.736-0.044-0.893c-0.512-0.213-1.077,0.002-1.332,0.478
						c-0.235,0.441-0.082,1.077,0.126,1.496c0.583,1.17,2.034,1.453,3.188,1.615c1.225,0.175,2.455,0.005,3.438-0.813
						c0.851-0.702,1.081-2.092,0.521-3.042c-0.255-0.428-0.733-0.631-1.214-0.627c-0.31,0.005-0.576,0.151-0.791,0.363
						c-0.102,0.1-0.184,0.297-0.115,0.436c0.009,0.02,0.153,0.201,0.144,0.206c0.494-0.292,0.939,0.476,0.448,0.769
						c-0.425,0.253-0.851,0.078-1.17-0.264c-0.392-0.419-0.392-0.966-0.164-1.464c0.478-1.05,1.967-1.108,2.842-0.634
						c0.448,0.242,0.753,0.627,0.942,1.072c0.386-1.143,1.892-1.717,3.113-1.451c0.782,0.168,1.504,0.78,1.808,1.515
						c0.377,0.908,0.184,1.901-0.193,2.776c-0.421,0.973-1.165,1.788-1.912,2.532c0.485-0.131,0.999-0.177,1.524-0.12
						c1.595,0.168,2.905,1.177,3.37,2.723C456.023,13.585,455.209,15.162,453.672,15.798z"/>
				</g>
				<g>
					<path class="st1" d="M454.797,32.484c-0.004,0.009-0.011,0.013-0.02,0.015c0.002-0.007,0.007-0.018,0.009-0.024
						C454.788,32.477,454.793,32.479,454.797,32.484z"/>
				</g>
			</g>
		</g>
	</g>
	<g>
		<g>
			<path class="st2" d="M419.886,69.574c0,0.228-0.183,0.412-0.41,0.412H38.997c-0.225,0-0.408-0.184-0.408-0.412l0,0
				c0-0.226,0.183-0.41,0.408-0.41h380.479C419.703,69.164,419.886,69.348,419.886,69.574L419.886,69.574z"/>
		</g>
		<g>
			<path class="st2" d="M419.886,4.867c0,0.226-0.183,0.41-0.41,0.41H38.997c-0.225,0-0.408-0.184-0.408-0.41l0,0
				c0-0.228,0.183-0.412,0.408-0.412h380.479C419.703,4.455,419.886,4.639,419.886,4.867L419.886,4.867z"/>
		</g>
	</g>
</g>
</svg>