<!-- Generator: Adobe Illustrator 19.2.0, SVG Export Plug-In  -->
<svg version="1.1"
	 xmlns="http://www.w3.org/2000/svg" xmlns:xlink="http://www.w3.org/1999/xlink" xmlns:a="http://ns.adobe.com/AdobeSVGViewerExtensions/3.0/"
	 x="0px" y="0px" width="2.169px" height="216.464px" viewBox="0 0 2.169 216.464"
	 style="enable-background:new 0 0 2.169 216.464;" xml:space="preserve">
<style type="text/css">
	.st0{fill:none;}
	.st1{fill:#D1D3D4;}
</style>
<defs>
</defs>
<g>
	<g>
		<g>
			<rect y="213.409" class="st0" width="2.169" height="2.169"/>
			<circle class="st1" cx="1.084" cy="214.494" r="1.084"/>
		</g>
		<g>
			<rect x="0" y="210.807" class="st0" width="2.169" height="2.169"/>
			<circle class="st1" cx="1.084" cy="211.891" r="1.084"/>
		</g>
		<g>
			<rect x="0" y="208.204" class="st0" width="2.169" height="2.169"/>
			<circle class="st1" cx="1.084" cy="209.289" r="1.084"/>
		</g>
		<g>
			<rect x="0" y="205.602" class="st0" width="2.169" height="2.169"/>
			<circle class="st1" cx="1.084" cy="206.686" r="1.084"/>
		</g>
		<g>
			<rect x="0" y="202.999" class="st0" width="2.169" height="2.169"/>
			<circle class="st1" cx="1.084" cy="204.084" r="1.084"/>
		</g>
		<g>
			<rect x="0" y="200.397" class="st0" width="2.169" height="2.169"/>
			<circle class="st1" cx="1.084" cy="201.481" r="1.084"/>
		</g>
		<g>
			<rect x="0" y="197.794" class="st0" width="2.169" height="2.169"/>
			<circle class="st1" cx="1.084" cy="198.878" r="1.084"/>
		</g>
		<g>
			<rect x="0" y="195.191" class="st0" width="2.169" height="2.169"/>
			<circle class="st1" cx="1.084" cy="196.276" r="1.084"/>
		</g>
		<g>
			<rect x="0" y="192.589" class="st0" width="2.169" height="2.169"/>
			<circle class="st1" cx="1.084" cy="193.673" r="1.084"/>
		</g>
		<g>
			<rect x="0" y="189.986" class="st0" width="2.169" height="2.169"/>
			<circle class="st1" cx="1.084" cy="191.071" r="1.084"/>
		</g>
		<g>
			<rect x="0" y="187.384" class="st0" width="2.169" height="2.169"/>
			<circle class="st1" cx="1.084" cy="188.468" r="1.084"/>
		</g>
		<g>
			<rect x="0" y="184.781" class="st0" width="2.169" height="2.169"/>
			<circle class="st1" cx="1.084" cy="185.866" r="1.084"/>
		</g>
		<g>
			<rect x="0" y="182.179" class="st0" width="2.169" height="2.169"/>
			<circle class="st1" cx="1.084" cy="183.263" r="1.084"/>
		</g>
		<g>
			<rect x="0" y="179.576" class="st0" width="2.169" height="2.169"/>
			<circle class="st1" cx="1.084" cy="180.661" r="1.084"/>
		</g>
		<g>
			<rect x="0" y="176.974" class="st0" width="2.169" height="2.169"/>
			<circle class="st1" cx="1.084" cy="178.058" r="1.084"/>
		</g>
		<g>
			<rect x="0" y="174.371" class="st0" width="2.169" height="2.169"/>
			<circle class="st1" cx="1.084" cy="175.455" r="1.084"/>
		</g>
		<g>
			<rect x="0" y="171.769" class="st0" width="2.169" height="2.169"/>
			<circle class="st1" cx="1.084" cy="172.853" r="1.084"/>
		</g>
		<g>
			<rect x="0" y="169.166" class="st0" width="2.169" height="2.169"/>
			<circle class="st1" cx="1.084" cy="170.25" r="1.084"/>
		</g>
		<g>
			<rect x="0" y="166.563" class="st0" width="2.169" height="2.169"/>
			<circle class="st1" cx="1.084" cy="167.648" r="1.084"/>
		</g>
		<g>
			<rect x="0" y="163.961" class="st0" width="2.169" height="2.169"/>
			<circle class="st1" cx="1.084" cy="165.045" r="1.084"/>
		</g>
		<g>
			<rect x="0" y="161.358" class="st0" width="2.169" height="2.169"/>
			<circle class="st1" cx="1.084" cy="162.443" r="1.084"/>
		</g>
		<g>
			<rect x="0" y="158.756" class="st0" width="2.169" height="2.169"/>
			<circle class="st1" cx="1.084" cy="159.84" r="1.084"/>
		</g>
		<g>
			<rect x="0" y="156.153" class="st0" width="2.169" height="2.169"/>
			<circle class="st1" cx="1.084" cy="157.238" r="1.084"/>
		</g>
		<g>
			<rect x="0" y="153.551" class="st0" width="2.169" height="2.169"/>
			<circle class="st1" cx="1.084" cy="154.635" r="1.084"/>
		</g>
		<g>
			<rect x="0" y="150.948" class="st0" width="2.169" height="2.169"/>
			<circle class="st1" cx="1.084" cy="152.032" r="1.084"/>
		</g>
		<g>
			<rect x="0" y="148.346" class="st0" width="2.169" height="2.169"/>
			<circle class="st1" cx="1.084" cy="149.43" r="1.084"/>
		</g>
		<g>
			<rect x="0" y="145.743" class="st0" width="2.169" height="2.169"/>
			<circle class="st1" cx="1.084" cy="146.827" r="1.084"/>
		</g>
		<g>
			<rect x="0" y="143.14" class="st0" width="2.169" height="2.169"/>
			<circle class="st1" cx="1.084" cy="144.225" r="1.084"/>
		</g>
		<g>
			<rect x="0" y="140.538" class="st0" width="2.169" height="2.169"/>
			<circle class="st1" cx="1.084" cy="141.622" r="1.084"/>
		</g>
		<g>
			<rect x="0" y="137.935" class="st0" width="2.169" height="2.169"/>
			<circle class="st1" cx="1.084" cy="139.02" r="1.084"/>
		</g>
		<g>
			<rect x="0" y="135.333" class="st0" width="2.169" height="2.169"/>
			<circle class="st1" cx="1.084" cy="136.417" r="1.084"/>
		</g>
		<g>
			<rect x="0" y="132.73" class="st0" width="2.169" height="2.169"/>
			<circle class="st1" cx="1.084" cy="133.815" r="1.084"/>
		</g>
		<g>
			<rect x="0" y="130.128" class="st0" width="2.169" height="2.169"/>
			<circle class="st1" cx="1.084" cy="131.212" r="1.084"/>
		</g>
		<g>
			<rect x="0" y="127.525" class="st0" width="2.169" height="2.169"/>
			<circle class="st1" cx="1.084" cy="128.61" r="1.084"/>
		</g>
		<g>
			<rect x="0" y="124.923" class="st0" width="2.169" height="2.169"/>
			<circle class="st1" cx="1.084" cy="126.007" r="1.084"/>
		</g>
		<g>
			<rect x="0" y="122.32" class="st0" width="2.169" height="2.169"/>
			<circle class="st1" cx="1.084" cy="123.404" r="1.084"/>
		</g>
		<g>
			<rect x="0" y="119.717" class="st0" width="2.169" height="2.169"/>
			<circle class="st1" cx="1.084" cy="120.802" r="1.084"/>
		</g>
		<g>
			<rect x="0" y="117.115" class="st0" width="2.169" height="2.169"/>
			<circle class="st1" cx="1.084" cy="118.199" r="1.084"/>
		</g>
		<g>
			<rect x="0" y="114.512" class="st0" width="2.169" height="2.169"/>
			<circle class="st1" cx="1.084" cy="115.597" r="1.084"/>
		</g>
		<g>
			<rect x="0" y="111.91" class="st0" width="2.169" height="2.169"/>
			<circle class="st1" cx="1.084" cy="112.994" r="1.084"/>
		</g>
		<g>
			<rect x="0" y="109.307" class="st0" width="2.169" height="2.169"/>
			<circle class="st1" cx="1.084" cy="110.392" r="1.084"/>
		</g>
		<g>
			<rect x="0" y="106.705" class="st0" width="2.169" height="2.169"/>
			<circle class="st1" cx="1.084" cy="107.789" r="1.084"/>
		</g>
		<g>
			<rect x="0" y="104.102" class="st0" width="2.169" height="2.169"/>
			<circle class="st1" cx="1.084" cy="105.187" r="1.084"/>
		</g>
		<g>
			<rect x="0" y="101.5" class="st0" width="2.169" height="2.169"/>
			<circle class="st1" cx="1.084" cy="102.584" r="1.084"/>
		</g>
		<g>
			<rect x="0" y="98.897" class="st0" width="2.169" height="2.169"/>
			<circle class="st1" cx="1.084" cy="99.981" r="1.084"/>
		</g>
		<g>
			<rect x="0" y="96.294" class="st0" width="2.169" height="2.169"/>
			<circle class="st1" cx="1.084" cy="97.379" r="1.084"/>
		</g>
		<g>
			<rect x="0" y="93.692" class="st0" width="2.169" height="2.169"/>
			<circle class="st1" cx="1.084" cy="94.776" r="1.084"/>
		</g>
		<g>
			<rect x="0" y="91.089" class="st0" width="2.169" height="2.169"/>
			<circle class="st1" cx="1.084" cy="92.174" r="1.084"/>
		</g>
		<g>
			<rect x="0" y="88.487" class="st0" width="2.169" height="2.169"/>
			<circle class="st1" cx="1.084" cy="89.571" r="1.084"/>
		</g>
		<g>
			<rect x="0" y="85.884" class="st0" width="2.169" height="2.169"/>
			<circle class="st1" cx="1.084" cy="86.969" r="1.084"/>
		</g>
		<g>
			<rect x="0" y="83.282" class="st0" width="2.169" height="2.169"/>
			<circle class="st1" cx="1.084" cy="84.366" r="1.084"/>
		</g>
		<g>
			<rect x="0" y="80.679" class="st0" width="2.169" height="2.169"/>
			<circle class="st1" cx="1.084" cy="81.764" r="1.084"/>
		</g>
		<g>
			<rect x="0" y="78.077" class="st0" width="2.169" height="2.169"/>
			<circle class="st1" cx="1.084" cy="79.161" r="1.084"/>
		</g>
		<g>
			<rect x="0" y="75.474" class="st0" width="2.169" height="2.169"/>
			<circle class="st1" cx="1.084" cy="76.558" r="1.084"/>
		</g>
		<g>
			<rect x="0" y="72.871" class="st0" width="2.169" height="2.169"/>
			<circle class="st1" cx="1.084" cy="73.956" r="1.084"/>
		</g>
		<g>
			<rect x="0" y="70.269" class="st0" width="2.169" height="2.169"/>
			<circle class="st1" cx="1.084" cy="71.353" r="1.084"/>
		</g>
		<g>
			<rect x="0" y="67.666" class="st0" width="2.169" height="2.169"/>
			<circle class="st1" cx="1.084" cy="68.751" r="1.084"/>
		</g>
		<g>
			<rect x="0" y="65.064" class="st0" width="2.169" height="2.169"/>
			<circle class="st1" cx="1.084" cy="66.148" r="1.084"/>
		</g>
		<g>
			<rect x="0" y="62.461" class="st0" width="2.169" height="2.169"/>
			<circle class="st1" cx="1.084" cy="63.546" r="1.084"/>
		</g>
		<g>
			<rect x="0" y="59.859" class="st0" width="2.169" height="2.169"/>
			<circle class="st1" cx="1.084" cy="60.943" r="1.084"/>
		</g>
		<g>
			<rect x="0" y="57.256" class="st0" width="2.169" height="2.169"/>
			<circle class="st1" cx="1.084" cy="58.341" r="1.084"/>
		</g>
		<g>
			<rect x="0" y="54.654" class="st0" width="2.169" height="2.169"/>
			<circle class="st1" cx="1.084" cy="55.738" r="1.084"/>
		</g>
		<g>
			<rect x="0" y="52.051" class="st0" width="2.169" height="2.169"/>
			<circle class="st1" cx="1.084" cy="53.135" r="1.084"/>
		</g>
		<g>
			<rect x="0" y="49.449" class="st0" width="2.169" height="2.169"/>
			<circle class="st1" cx="1.084" cy="50.533" r="1.084"/>
		</g>
		<g>
			<rect x="0" y="46.846" class="st0" width="2.169" height="2.169"/>
			<circle class="st1" cx="1.084" cy="47.93" r="1.084"/>
		</g>
		<g>
			<rect x="0" y="44.243" class="st0" width="2.169" height="2.169"/>
			<circle class="st1" cx="1.084" cy="45.328" r="1.084"/>
		</g>
		<g>
			<rect x="0" y="41.641" class="st0" width="2.169" height="2.169"/>
			<circle class="st1" cx="1.084" cy="42.725" r="1.084"/>
		</g>
		<g>
			<rect x="0" y="39.038" class="st0" width="2.169" height="2.169"/>
			<circle class="st1" cx="1.084" cy="40.123" r="1.084"/>
		</g>
		<g>
			<rect x="0" y="36.436" class="st0" width="2.169" height="2.169"/>
			<circle class="st1" cx="1.084" cy="37.52" r="1.084"/>
		</g>
		<g>
			<rect x="0" y="33.833" class="st0" width="2.169" height="2.169"/>
			<circle class="st1" cx="1.084" cy="34.918" r="1.084"/>
		</g>
		<g>
			<rect x="0" y="31.231" class="st0" width="2.169" height="2.169"/>
			<circle class="st1" cx="1.084" cy="32.315" r="1.084"/>
		</g>
		<g>
			<rect x="0" y="28.628" class="st0" width="2.169" height="2.169"/>
			<circle class="st1" cx="1.084" cy="29.712" r="1.084"/>
		</g>
		<g>
			<rect x="0" y="26.026" class="st0" width="2.169" height="2.169"/>
			<circle class="st1" cx="1.084" cy="27.11" r="1.084"/>
		</g>
		<g>
			<rect x="0" y="23.423" class="st0" width="2.169" height="2.169"/>
			<circle class="st1" cx="1.084" cy="24.507" r="1.084"/>
		</g>
		<g>
			<rect x="0" y="20.82" class="st0" width="2.169" height="2.169"/>
			<circle class="st1" cx="1.084" cy="21.905" r="1.084"/>
		</g>
		<g>
			<rect x="0" y="18.218" class="st0" width="2.169" height="2.169"/>
			<circle class="st1" cx="1.084" cy="19.302" r="1.084"/>
		</g>
		<g>
			<rect x="0" y="15.615" class="st0" width="2.169" height="2.169"/>
			<circle class="st1" cx="1.084" cy="16.7" r="1.084"/>
		</g>
		<g>
			<rect x="0" y="13.013" class="st0" width="2.169" height="2.169"/>
			<circle class="st1" cx="1.084" cy="14.097" r="1.084"/>
		</g>
		<g>
			<rect x="0" y="10.41" class="st0" width="2.169" height="2.169"/>
			<circle class="st1" cx="1.084" cy="11.495" r="1.084"/>
		</g>
		<g>
			<rect x="0" y="7.808" class="st0" width="2.169" height="2.169"/>
			<circle class="st1" cx="1.084" cy="8.892" r="1.084"/>
		</g>
		<g>
			<rect x="0" y="5.205" class="st0" width="2.169" height="2.169"/>
			<circle class="st1" cx="1.084" cy="6.29" r="1.084"/>
		</g>
		<g>
			<rect x="0" y="2.603" class="st0" width="2.169" height="2.169"/>
			<circle class="st1" cx="1.084" cy="3.687" r="1.084"/>
		</g>
		<g>
			<rect x="0" class="st0" width="2.169" height="2.169"/>
			<circle class="st1" cx="1.084" cy="1.084" r="1.084"/>
		</g>
	</g>
</g>
</svg>