<!-- Generator: Adobe Illustrator 18.1.0, SVG Export Plug-In  -->
<svg version="1.1"
	 xmlns="http://www.w3.org/2000/svg" xmlns:xlink="http://www.w3.org/1999/xlink" xmlns:a="http://ns.adobe.com/AdobeSVGViewerExtensions/3.0/"
	 x="0px" y="0px" width="367.428px" height="46.306px" viewBox="0 0 367.428 46.306"
	 overflow="inherit" enable-background="new 0 0 367.428 46.306" xml:space="preserve">
<defs>
</defs>
<g>
	<path d="M67.714,17.378c0,0.129-0.068,0.209-0.202,0.241c-0.304,0.065-1.08,0.096-2.328,0.096c-1.991,0-3.257-0.031-3.796-0.096
		c-0.101,0.096-0.152,0.209-0.152,0.337c0-0.031,0.101,0.241,0.304,0.819c0.236,0.674,0.354,1.605,0.354,2.791
		c0,1.829-0.456,3.338-1.366,4.524c-1.013,1.348-2.447,2.022-4.302,2.022c-0.101,0-0.279-0.024-0.532-0.072s-0.43-0.056-0.531-0.024
		c-0.372-0.225-0.894-0.594-1.569-1.107c-0.776-0.77-1.164-1.637-1.164-2.599c0-2.15,0.557-3.53,1.671-4.14l0.405-0.337
		c0.134-0.16,0.27-0.208,0.405-0.144c0.101-0.192,0.304-0.289,0.607-0.289c0.709,0,1.063,0.45,1.063,1.348
		c0,0.835-0.456,1.348-1.366,1.54c-0.034-0.031-0.101-0.048-0.203-0.048c-0.236,0-0.354,0.402-0.354,1.203
		c0,0.578,0.118,1.091,0.354,1.541c0,0.192,0.101,0.417,0.304,0.674c0.202,0.257,0.32,0.465,0.354,0.626
		c0.506,0.481,1.113,0.722,1.822,0.722c0.877,0,1.569-0.689,2.075-2.07c0.371-1.027,0.557-2.07,0.557-3.129
		c0-0.642-0.119-1.38-0.354-2.214c-0.202-0.738-0.405-1.476-0.607-2.214c-0.035,0-1.013-0.144-2.936-0.433
		c-2.025-0.289-3.729-0.593-5.112-0.915h-0.051c0,0.032-0.016,0.048-0.05,0.048c-0.033,0-0.135-0.031-0.304-0.096
		c-0.135-0.031-0.236-0.031-0.304,0c-0.236-0.16-0.633-0.289-1.19-0.385c-0.557-0.097-0.952-0.241-1.189-0.433
		c0.169,0-0.455-0.112-1.872-0.337c-0.607-0.352-1.045-0.529-1.316-0.529c-0.573-0.353-1.316-0.722-2.227-1.107
		c-0.405-0.289-1.012-0.674-1.822-1.155c-0.101-0.224-0.337-0.481-0.708-0.77c-0.101-0.289-0.304-0.642-0.607-1.059
		c-0.135-0.32-0.203-0.578-0.203-0.77c0-0.385,0.085-0.578,0.253-0.578c0.237-0.16,0.422-0.257,0.557-0.289
		c1.046-1.444,2.884-2.166,5.516-2.166c0.405,0,0.708,0,0.911,0c0.202,0,0.354,0,0.455,0c0.27,0,0.506,0.024,0.708,0.072
		c0.203,0.048,0.499,0.105,0.886,0.168c0.388,0.065,0.658,0.096,0.81,0.096c0.152,0,0.549,0.121,1.189,0.361
		c0.641,0.24,1.038,0.377,1.189,0.409c0.152,0.032,0.785,0.281,1.898,0.746c1.113,0.465,2.202,1.227,3.265,2.286
		c1.063,1.059,1.847,2.166,2.353,3.321c0.202,0.065,0.337,0.233,0.405,0.505c0.067,0.273,0.168,0.426,0.304,0.457
		c0.101,0.225,0.244,0.57,0.43,1.035c0.185,0.466,0.818,0.763,1.898,0.89c0.067,0,0.169,0.017,0.304,0.049
		c0.134,0.032,0.236,0.048,0.304,0.048c1.079,0.096,2.683,0.24,4.808,0.433V17.378z M58.907,16.56
		c-0.202-0.481-0.523-1.171-0.961-2.07c-0.135-0.257-0.338-0.641-0.607-1.155c-0.034-0.031-0.186-0.24-0.455-0.626
		c-0.237-0.257-0.338-0.497-0.304-0.722c-0.169-0.064-0.354-0.233-0.557-0.505c-0.203-0.272-0.388-0.441-0.557-0.505
		c-1.755-1.668-3.409-2.679-4.96-3.032c-0.134-0.031-0.624-0.176-1.467-0.433c-0.507-0.16-1.013-0.241-1.519-0.241
		c-0.202,0-0.506-0.031-0.911-0.096c-0.405-0.064-0.708-0.096-0.911-0.096c-0.067,0-0.168,0-0.303,0
		c-0.101,0.032-0.185,0.048-0.254,0.048c-1.146,0.096-1.956,0.225-2.429,0.385c-0.911,0.321-1.484,0.835-1.721,1.54
		c0.034,0.77,0.405,1.461,1.113,2.07c0,0.161,0.094,0.313,0.279,0.457c0.186,0.144,0.296,0.249,0.329,0.313
		c0,0.192,0.119,0.337,0.354,0.433c0.236,0.097,0.473,0.193,0.708,0.289c1.417,0.77,2.295,1.236,2.632,1.396
		c0.979,0.45,1.94,0.754,2.885,0.915c0.068,0,0.287,0.08,0.658,0.24c0.271,0.129,0.507,0.161,0.709,0.096
		C53.019,16.063,55.77,16.496,58.907,16.56z"/>
	<path d="M79.657,23.443c-0.405,0.578-1.434,1.3-3.087,2.166c-2.092,1.091-3.965,1.716-5.618,1.877c-0.068,0-0.169,0-0.303,0
		c-0.068,0-0.152,0-0.254,0c-0.135,0-0.236,0-0.303,0c-0.135,0-0.254-0.048-0.354-0.145c-0.675,0-1.181-0.144-1.519-0.433
		c-0.27,0-0.481-0.12-0.633-0.361c-0.152-0.24-0.313-0.377-0.481-0.409c-0.945-0.93-1.366-1.926-1.265-2.984l-0.152-0.337
		c0.067-1.219,0.101-2.118,0.101-2.695c0-0.128,0.21-0.281,0.633-0.457c0.421-0.176,0.683-0.313,0.785-0.409
		c0.033,0,0.076,0.017,0.127,0.049s0.109,0.048,0.177,0.048c0.067-0.224,0.304-0.369,0.708-0.433
		c0.134,0.032,0.202,0.129,0.202,0.289c0.033,0.257,0.051,0.402,0.051,0.433c-0.27,0.77-0.405,1.509-0.405,2.214
		c0,1.155,0.354,2.198,1.063,3.129c0.742,0.45,1.164,0.674,1.265,0.674c0.573,0.321,1.13,0.481,1.67,0.481
		c0.911,0,2.025-0.257,3.341-0.771l2.581-1.348c0.27-0.192,0.692-0.449,1.266-0.77h0.101C79.489,23.25,79.589,23.315,79.657,23.443z
		 M69.738,14.512c0,0.095-0.076,0.213-0.228,0.354c-0.152,0.142-0.228,0.26-0.228,0.354c-0.54,0.283-0.911,0.425-1.113,0.425
		c-0.236,0-0.531-0.2-0.886-0.602c-0.354-0.401-0.566-0.73-0.633-0.987c0.405-0.578,0.877-0.882,1.417-0.914
		c0.067,0.096,0.134,0.144,0.202,0.144c0.067,0,0.152-0.024,0.253-0.072s0.168-0.072,0.202-0.072c0.101,0,0.27,0.174,0.507,0.52
		c0.235,0.441,0.371,0.677,0.405,0.708C69.67,14.403,69.704,14.449,69.738,14.512z"/>
	<path d="M86.388,24.502c0,0.739-0.565,1.485-1.695,2.238c-1.131,0.754-2.118,1.131-2.961,1.131c-0.338,0-0.734-0.105-1.189-0.313
		c-0.456-0.209-0.683-0.457-0.683-0.746c0-0.16,0.134-0.369,0.405-0.626c0.304-0.385,0.472-0.594,0.506-0.626
		c0.169-0.097,0.32-0.145,0.456-0.145c0.101,0,0.261,0.056,0.481,0.169c0.219,0.112,0.295,0.201,0.227,0.265v0.24
		c0.202,0.161,0.489,0.241,0.86,0.241c0.371,0,0.725-0.048,1.063-0.144c0.033-0.097,0.127-0.233,0.279-0.409
		c0.152-0.176,0.236-0.313,0.253-0.409c0.017-0.096,0.025-0.208,0.025-0.337c0-0.449-0.169-0.706-0.506-0.77
		c-0.641-0.16-0.979-0.241-1.012-0.241c-1.081-0.064-2.093-0.385-3.037-0.962c-0.135-0.385-0.203-0.53-0.203-0.433
		c0-0.064,0.033-0.128,0.101-0.192c0.202-0.449,0.59-1.075,1.164-1.877c0.337-0.32,0.978-0.722,1.923-1.203
		c0.134-0.064,0.286-0.097,0.455-0.097c0.203,0,0.32,0.113,0.354,0.337c0,0.192,0,0.385,0,0.578v0.144l0.051,0.096l-0.051,0.048
		v0.145c-0.506,0.353-0.979,0.529-1.417,0.529c-0.169,0.225-0.253,0.45-0.253,0.674c0,0.385,0.523,0.69,1.569,0.914
		c1.282,0.289,1.991,0.457,2.126,0.505c0.134,0.048,0.27,0.168,0.405,0.361v0.049C86.287,24.085,86.388,24.374,86.388,24.502z"/>
	<path d="M100.863,24.166c-0.035,0.228-0.203,0.423-0.507,0.586c-0.304,0.163-0.489,0.293-0.557,0.391
		c-0.844,0.391-1.687,0.765-2.531,1.123c-1.046,0.489-1.923,0.766-2.631,0.83c-0.271,0.196-0.658,0.294-1.164,0.294
		c-1.822,0-3.02-0.194-3.593-0.582c-0.338-0.193-0.667-0.411-0.987-0.653c-0.321-0.242-0.498-0.541-0.532-0.895
		c-0.068-0.065-0.101-0.161-0.101-0.291c0-0.645,0.017-0.952,0.051-0.921c0.067-0.193,0.185-0.468,0.354-0.823
		c0.168-0.355,0.286-0.638,0.354-0.847c0.067-0.21,0.202-0.541,0.405-0.993c0.304-0.646,1.248-1.227,2.834-1.743
		c0.134-0.161,0.354-0.242,0.658-0.242c0.371,0,0.826,0.129,1.366,0.388l0.152,1.164c0,0.42-0.48,0.969-1.442,1.648
		c-0.961,0.679-1.695,1.082-2.202,1.212c-0.068,0.064-0.101,0.146-0.101,0.243c0,0.518,0.387,1.01,1.164,1.479
		c0.776,0.468,1.45,0.703,2.024,0.703c0.169,0,1.013-0.131,2.531-0.394c0.101-0.065,0.86-0.312,2.278-0.738
		c0.033-0.065,0.337-0.229,0.911-0.492c0.067-0.032,0.236-0.147,0.506-0.344c0.168-0.131,0.337-0.197,0.506-0.197
		c0.033,0,0.076,0.017,0.127,0.049C100.787,24.151,100.828,24.166,100.863,24.166z M92.461,21.277v-0.193
		c0-0.096-0.152-0.192-0.455-0.289c-0.675,0.289-1.012,0.818-1.012,1.589v0.24h0.152c0.033,0,0.236-0.128,0.607-0.385
		c0.033-0.064,0.185-0.208,0.455-0.433C92.377,21.614,92.461,21.438,92.461,21.277z"/>
	<path d="M108.707,14.587c-0.169,0.353-0.54,0.674-1.113,0.963c-0.574,0.289-0.86,0.45-0.86,0.481
		c-0.202,0.032-0.523,0.161-0.961,0.385c-0.439,0.225-0.844,0.305-1.215,0.24c-0.034,0.032-0.101,0.048-0.202,0.048
		c-0.068,0-0.203-0.024-0.405-0.072s-0.354-0.055-0.455-0.024c-0.202-0.031-0.607-0.353-1.215-0.962
		c-0.236-0.289-0.405-0.433-0.506-0.433c-0.101,0-0.228,0.048-0.38,0.144c-0.152,0.096-0.413,0.321-0.785,0.674h-0.253
		c-0.304,0-0.506-0.079-0.607-0.24c0.134-0.481,0.59-0.955,1.366-1.42c0.776-0.465,1.434-0.698,1.974-0.698
		c0.033,0,0.219,0.08,0.557,0.24c0.033,0.096,0.118,0.233,0.253,0.409c0.135,0.177,0.219,0.329,0.253,0.457
		c0.203,0.161,0.422,0.337,0.658,0.53c0.134,0.065,0.438,0.096,0.911,0.096c0.607,0,1.113-0.144,1.518-0.433
		c-0.101,0,0.254-0.193,1.063-0.578C108.505,14.394,108.639,14.458,108.707,14.587z M122.22,25.224
		c-0.236,0.289-1.012,0.674-2.328,1.155c-0.135,0-0.531,0.113-1.189,0.337c-0.658,0.225-1.072,0.353-1.24,0.385
		c-1.653,0.32-2.834,0.481-3.543,0.481c-0.338,0-1.485-0.081-3.442-0.241c-0.405-0.032-0.928-0.225-1.569-0.577
		c-0.777-0.289-1.569-1.428-2.379-3.418c-0.135,0.353-0.422,0.787-0.86,1.3c-0.439,0.514-0.708,0.915-0.81,1.203v-0.048
		c-0.641,0.706-1.164,1.043-1.569,1.011c-0.203,0.289-0.49,0.433-0.86,0.433c-0.169,0-0.422-0.032-0.76-0.096
		c-0.236-0.674-0.354-0.946-0.354-0.818c-0.271-0.16-0.507-0.674-0.709-1.541c-0.338-1.475-0.506-2.63-0.506-3.465
		c0-0.385,0.236-0.706,0.708-0.963c0.473-0.256,0.928-0.385,1.367-0.385c0.168,0,0.269,0.048,0.303,0.144
		c0,0.385,0.033,0.962,0.101,1.733c-0.135,0.129-0.202,0.257-0.202,0.385c0,0.161,0.067,0.313,0.202,0.457
		c0.134,0.144,0.202,0.265,0.202,0.361c0,0.064-0.034,0.16-0.101,0.289c0.101,0.096,0.193,0.393,0.278,0.89
		c0.084,0.498,0.211,0.746,0.38,0.746c0.101,0,0.185-0.016,0.253-0.048c0.304-0.257,0.76-0.994,1.367-2.214
		c0.539-1.059,1.029-1.668,1.467-1.829c0.203,0,0.481-0.112,0.835-0.337c0.354-0.224,0.615-0.337,0.785-0.337
		c0.168,0,0.286,0.081,0.354,0.24c-0.068,0.129-0.101,0.354-0.101,0.674c0,0.514,0.152,1.091,0.455,1.733
		c0.438,1.059,0.674,1.621,0.709,1.685c0.81,0.61,1.501,1.027,2.075,1.251c0.27,0.096,1.063,0.289,2.379,0.578
		c0.27,0.065,0.64,0.096,1.113,0.096c1.518,0,2.8-0.176,3.846-0.53c0.573-0.096,1.4-0.337,2.48-0.722
		c0.27-0.16,0.523-0.24,0.759-0.24L122.22,25.224z"/>
	<path d="M136.998,19.834c-0.068,0.323-0.439,0.646-1.113,0.969c-0.54,0.259-1.637,0.565-3.29,0.919
		c-0.641,0-1.587,0.049-2.834,0.145c-0.101,0.097-0.557,0.178-1.366,0.242c-0.607,0.065-0.911,0.348-0.911,0.848
		c0,0.501-0.22,1.106-0.658,1.816c-0.372,0.581-0.726,1.146-1.063,1.695c-0.101,0.032-0.388,0.234-0.86,0.605
		c-0.473,0.371-1.013,0.557-1.62,0.557c-0.169,0-0.372-0.056-0.607-0.168c-0.237-0.113-0.422-0.169-0.557-0.169
		c-0.54-0.513-0.81-1.235-0.81-2.166c0-0.064,0.067-0.53,0.203-1.396c0.101-0.738,0.118-1.139,0.05-1.203
		c0.203-0.224,0.507-0.545,0.911-0.963c0.067-0.256,0.261-0.481,0.582-0.674c0.32-0.192,0.497-0.353,0.531-0.481
		c0.203-0.224,0.709-0.449,1.519-0.674c0.304,0.032,0.742,0.217,1.316,0.554c0.573,0.337,1.045,0.505,1.417,0.505
		c0.067,0.065,0.86,0.096,2.379,0.096c1.99,0,4.15-0.385,6.478-1.155C136.796,19.737,136.897,19.769,136.998,19.834z
		 M125.763,22.673c0-0.192-0.119-0.393-0.354-0.602c-0.237-0.209-0.456-0.313-0.658-0.313c-0.54,0-0.894,0.225-1.063,0.674
		c-0.135,0.289-0.253,0.578-0.354,0.866c0.067,0.514,0.134,1.027,0.202,1.54c0.101,0.706,0.354,1.059,0.76,1.059
		c0.202-0.289,0.497-0.834,0.886-1.636C125.568,23.46,125.763,22.93,125.763,22.673z"/>
	<path d="M167.77,24.742c-0.101,0.353-0.296,0.594-0.582,0.722c-0.287,0.129-0.768,0.337-1.442,0.626
		c-0.304,0-0.658,0.065-1.063,0.193c-0.607,0.192-0.962,0.305-1.063,0.337c-1.958,0.418-4.235,0.626-6.833,0.626
		c-0.777,0-1.468-0.064-2.075-0.192c-1.384-0.289-2.093-0.433-2.125-0.433c0.033,0-0.085,0.129-0.354,0.385
		c-0.473,0.578-0.759,1.38-0.86,2.407c-0.068,0.898-0.119,1.757-0.152,2.575c-0.034,0.818-0.152,1.821-0.354,3.008v0.096
		c0,0.257-0.025,0.641-0.076,1.155c-0.051,0.513-0.076,0.898-0.076,1.155c0,1.315-0.034,2.455-0.101,3.417
		c0,1.219-0.068,3.016-0.202,5.391c-0.068,0.064-0.152,0.096-0.253,0.096c-0.068,0-0.195-0.065-0.38-0.192
		c-0.186-0.129-0.312-0.193-0.38-0.193c-0.034,0-0.119,0.016-0.253,0.048c-0.134,0-0.219,0-0.253,0c-0.033,0-0.067,0-0.101,0
		c-0.033-0.032-0.067-0.048-0.101-0.048v-0.144c0-1.861,0.062-3.29,0.185-4.284c0.185-1.509,0.277-3.45,0.277-5.824
		c0-0.514,0.046-1.188,0.14-2.021c0.091-0.995,0.153-1.669,0.184-2.022c0-0.995,0.062-2.487,0.185-4.476
		c0.062-0.578,0.093-1.315,0.093-2.214c0-0.481,0-1.203,0-2.166c0-0.962,0-1.685,0-2.166c0-0.16,0.017-0.289,0.051-0.385
		c0.438-0.32,0.877-0.481,1.316-0.481c-0.034,0,0.101-0.048,0.405-0.144l0.152,0.096c0,0.032-0.017,0.065-0.051,0.096
		c-0.034,0.032-0.05,0.065-0.05,0.096c0,0.065,0.016,0.153,0.05,0.265c0.033,0.113,0.051,0.185,0.051,0.216
		c0,0.385-0.025,0.955-0.076,1.709c-0.051,0.754-0.076,1.324-0.076,1.709c0,0.481-0.018,0.835-0.051,1.059
		c0.101-0.192,0.304-0.385,0.607-0.577c0-0.032,0.32-0.69,0.961-1.974c0.27-0.513,0.742-1.026,1.417-1.54
		c0.675-0.513,1.282-0.77,1.822-0.77c0.539,0,0.987,0.185,1.341,0.554c0.354,0.369,0.532,0.81,0.532,1.324
		c0,0.642-0.068,1.027-0.202,1.155c-0.101,0.706-0.743,1.524-1.923,2.454l-0.253,0.049c0.438,0.417,1.467,0.626,3.087,0.626
		c0.64,0,2.26-0.176,4.858-0.53c0.405-0.032,0.962-0.096,1.67-0.193c0.304-0.128,1.013-0.369,2.126-0.722
		C167.449,24.694,167.533,24.711,167.77,24.742z M156.23,22.721c0,0.032-0.101-0.289-0.304-0.963
		c-0.068-0.256-0.321-0.417-0.759-0.481c-0.777,0.962-1.451,2.15-2.025,3.561c0.168,0.032,0.387,0.145,0.658,0.337
		c0.506,0.096,0.742,0.144,0.708,0.144c0.371,0,0.742-0.289,1.113-0.866c0.304-0.481,0.472-0.93,0.506-1.348
		C156.196,23.042,156.23,22.913,156.23,22.721z"/>
	<path d="M183.004,24.213c0,0.257-0.541,0.642-1.62,1.155c-2.295,1.124-4.032,1.685-5.213,1.685c-0.777,0-1.603-0.272-2.48-0.818
		c-0.236-0.289-0.675-0.658-1.316-1.107c-0.237,0.257-0.675,0.578-1.316,0.962c-0.135,0.161-0.523,0.361-1.164,0.602
		c-0.641,0.241-1.08,0.361-1.316,0.361c-0.506,0-0.928-0.112-1.265-0.337c-0.203-0.352-0.304-0.722-0.304-1.107
		c0-0.417,0.134-0.915,0.405-1.492c0.236-0.481,0.472-0.962,0.709-1.444c0.304-0.77,1.214-1.541,2.733-2.311h0.253
		c0.944,0,1.602,0.353,1.974,1.059c0.067,0.032,0.168,0.048,0.304,0.048c0.168,0,0.387-0.079,0.658-0.24
		c0.269-0.16,0.455-0.241,0.557-0.241c0.168,0,0.32,0.129,0.455,0.385c-0.034,0.096-0.152,0.297-0.354,0.602
		c-0.202,0.305-0.304,0.586-0.304,0.842c0,0.225,0.059,0.474,0.177,0.746c0.118,0.273,0.177,0.457,0.177,0.554
		c0.134,0.129,0.371,0.394,0.709,0.795c0.337,0.401,0.64,0.682,0.911,0.842c0.27,0.161,0.641,0.24,1.113,0.24
		c0.507,0,1.772-0.352,3.796-1.059c0.134-0.16,0.387-0.313,0.759-0.457c0.371-0.144,0.624-0.281,0.759-0.409
		C182.936,24.068,183.004,24.117,183.004,24.213z M171.768,23.491c0-0.096-0.034-0.176-0.101-0.24
		c-0.27-0.096-0.532-0.337-0.785-0.722c-0.253-0.385-0.43-0.578-0.531-0.578c-0.101,0-0.203,0.048-0.304,0.144
		c-0.506,0.642-0.827,1.284-0.962,1.925c-0.068,0.321-0.101,0.578-0.101,0.77c0,0.418,0.134,0.739,0.405,0.963
		c0.033,0,0.067,0,0.101,0c0.033,0.032,0.067,0.048,0.101,0.048c0.236,0,0.489-0.096,0.76-0.289c0.337-0.513,0.708-0.946,1.113-1.3
		c0-0.064,0.051-0.176,0.152-0.337C171.718,23.716,171.768,23.587,171.768,23.491z"/>
	<path d="M200.16,20.122c-0.27,0.45-0.81,0.642-1.619,0.578c-0.236,0.161-0.591,0.305-1.063,0.433
		c-0.675,0.161-1.047,0.258-1.113,0.289c-0.641,0.225-2.43,0.546-5.365,0.963c-0.641,0.032-1.587,0.16-2.834,0.385
		c-0.034,0.032-0.051,0.546-0.051,1.541c0,0.674-0.152,1.412-0.455,2.214c-0.135,0-0.253,0.161-0.354,0.481
		c-0.641,0.417-1.131,0.626-1.468,0.626c-0.372,0-0.574-0.144-0.607-0.433c0,0.064,0-0.208,0-0.818c0-0.16-0.043-0.369-0.127-0.626
		c-0.084-0.257-0.126-0.433-0.126-0.53c-0.034-0.32-0.101-1.3-0.202-2.936c-0.068-0.256-0.236-0.609-0.506-1.059
		c0.033-0.16,0.278-0.361,0.734-0.602c0.455-0.241,0.785-0.361,0.987-0.361c0.067,0.032,0.185,0.177,0.354,0.433
		c0.168,0.257,0.303,0.385,0.405,0.385s0.219-0.064,0.354-0.192c0.202,0,0.539,0.065,1.012,0.192
		c0.472,0.129,0.826,0.193,1.063,0.193c1.013,0,2.379-0.064,4.1-0.193c1.248-0.256,3.104-0.561,5.567-0.914
		c0.067-0.096,0.219-0.152,0.455-0.168c0.236-0.016,0.388-0.056,0.456-0.121C199.924,19.881,200.059,19.961,200.16,20.122z"/>
	<path d="M214.432,24.213c0,0.257-0.541,0.642-1.62,1.155c-2.295,1.124-4.032,1.685-5.213,1.685c-0.777,0-1.603-0.272-2.48-0.818
		c-0.236-0.289-0.675-0.658-1.316-1.107c-0.237,0.257-0.675,0.578-1.316,0.962c-0.135,0.161-0.523,0.361-1.164,0.602
		c-0.641,0.241-1.08,0.361-1.316,0.361c-0.506,0-0.928-0.112-1.265-0.337c-0.203-0.352-0.304-0.722-0.304-1.107
		c0-0.417,0.134-0.915,0.405-1.492c0.236-0.481,0.472-0.962,0.709-1.444c0.304-0.77,1.214-1.541,2.733-2.311h0.253
		c0.944,0,1.602,0.353,1.974,1.059c0.067,0.032,0.168,0.048,0.304,0.048c0.168,0,0.387-0.079,0.658-0.24
		c0.269-0.16,0.455-0.241,0.557-0.241c0.168,0,0.32,0.129,0.455,0.385c-0.034,0.096-0.152,0.297-0.354,0.602
		c-0.202,0.305-0.304,0.586-0.304,0.842c0,0.225,0.059,0.474,0.177,0.746c0.118,0.273,0.177,0.457,0.177,0.554
		c0.134,0.129,0.371,0.394,0.709,0.795c0.337,0.401,0.64,0.682,0.911,0.842c0.27,0.161,0.641,0.24,1.113,0.24
		c0.507,0,1.772-0.352,3.796-1.059c0.134-0.16,0.387-0.313,0.759-0.457c0.371-0.144,0.624-0.281,0.759-0.409
		C214.364,24.068,214.432,24.117,214.432,24.213z M203.196,23.491c0-0.096-0.034-0.176-0.101-0.24
		c-0.27-0.096-0.532-0.337-0.785-0.722c-0.253-0.385-0.43-0.578-0.531-0.578c-0.101,0-0.203,0.048-0.304,0.144
		c-0.506,0.642-0.827,1.284-0.962,1.925c-0.068,0.321-0.101,0.578-0.101,0.77c0,0.418,0.134,0.739,0.405,0.963
		c0.033,0,0.067,0,0.101,0c0.033,0.032,0.067,0.048,0.101,0.048c0.236,0,0.489-0.096,0.76-0.289c0.337-0.513,0.708-0.946,1.113-1.3
		c0-0.064,0.051-0.176,0.152-0.337C203.146,23.716,203.196,23.587,203.196,23.491z"/>
	<path d="M240.041,24.166c-0.035,0.228-0.203,0.423-0.507,0.586c-0.304,0.163-0.489,0.293-0.557,0.391
		c-0.844,0.391-1.687,0.765-2.531,1.123c-1.046,0.489-1.923,0.766-2.631,0.83c-0.271,0.196-0.658,0.294-1.164,0.294
		c-1.822,0-3.02-0.194-3.593-0.582c-0.338-0.193-0.667-0.411-0.987-0.653c-0.321-0.242-0.498-0.541-0.532-0.895
		c-0.068-0.065-0.101-0.161-0.101-0.291c0-0.645,0.017-0.952,0.051-0.921c0.067-0.193,0.185-0.468,0.354-0.823
		c0.168-0.355,0.286-0.638,0.354-0.847c0.067-0.21,0.202-0.541,0.405-0.993c0.304-0.646,1.248-1.227,2.834-1.743
		c0.134-0.161,0.354-0.242,0.658-0.242c0.371,0,0.826,0.129,1.366,0.388l0.152,1.164c0,0.42-0.48,0.969-1.442,1.648
		c-0.961,0.679-1.695,1.082-2.202,1.212c-0.068,0.064-0.101,0.146-0.101,0.243c0,0.518,0.387,1.01,1.164,1.479
		c0.776,0.468,1.45,0.703,2.024,0.703c0.169,0,1.013-0.131,2.531-0.394c0.101-0.065,0.86-0.312,2.278-0.738
		c0.033-0.065,0.337-0.229,0.911-0.492c0.067-0.032,0.236-0.147,0.506-0.344c0.168-0.131,0.337-0.197,0.506-0.197
		c0.033,0,0.076,0.017,0.127,0.049C239.964,24.151,240.006,24.166,240.041,24.166z M231.639,21.277v-0.193
		c0-0.096-0.152-0.192-0.455-0.289c-0.675,0.289-1.012,0.818-1.012,1.589v0.24h0.152c0.033,0,0.236-0.128,0.607-0.385
		c0.033-0.064,0.185-0.208,0.455-0.433C231.554,21.614,231.639,21.438,231.639,21.277z"/>
	<path d="M254.869,20.17c0.135,0-0.068,0.065-0.607,0.192c-0.641,0.225-1.603,0.498-2.885,0.819c-0.135,0-0.321,0.064-0.557,0.192
		c-0.101,0.032-0.363,0.048-0.785,0.048c-0.422,0-0.717,0.065-0.886,0.192c-0.237,0-0.582,0.041-1.038,0.12
		c-0.455,0.081-0.802,0.121-1.038,0.121c-0.169,0.129-0.27,0.385-0.304,0.77c-0.034,0.385-0.101,0.642-0.202,0.77
		c0.033,0.032,0.051,0.096,0.051,0.192c0,0.257-0.11,0.626-0.329,1.107c-0.22,0.481-0.329,0.819-0.329,1.011l-0.759,0.866
		c-0.304,0.289-0.794,0.69-1.468,1.203c-0.034,0-0.085,0.016-0.152,0.048c-0.068,0-0.119,0-0.152,0c-0.236,0-0.844-0.337-1.822-1.01
		c-0.372-0.513-0.667-1.091-0.886-1.733c-0.22-0.641-0.363-0.963-0.43-0.963c0-0.16-0.059-0.385-0.177-0.674
		c-0.118-0.289-0.177-0.513-0.177-0.674c-0.068-0.064-0.126-0.208-0.177-0.433c-0.051-0.224-0.101-0.369-0.152-0.433
		s-0.135-0.169-0.253-0.313c-0.119-0.144-0.177-0.328-0.177-0.554c0.101-0.031,0.245-0.152,0.43-0.361
		c0.185-0.209,0.329-0.313,0.43-0.313c0.134,0,0.219,0.048,0.253,0.144c0.169,0,0.405,0.081,0.709,0.241
		c0.134,0.417,0.32,1.043,0.557,1.877c0.776,2.311,1.569,3.562,2.378,3.754c0.236-0.128,0.362-0.272,0.38-0.433
		c0.017-0.16,0.076-0.289,0.177-0.385c0.203-0.353,0.422-1.283,0.658-2.792c-0.068-0.064-0.101-0.128-0.101-0.192
		c0-0.096,0.067-0.241,0.203-0.433c-0.271-0.417-0.591-0.738-0.962-0.962l-0.101,0.048c-0.372,0-0.557-0.08-0.557-0.241
		c0-0.031,0.033-0.112,0.101-0.24c0.236-0.192,0.481-0.385,0.734-0.578c0.253-0.192,0.497-0.289,0.734-0.289
		c0.033-0.128,0.185-0.192,0.455-0.192h0.253c0.27,0.257,0.658,0.418,1.164,0.481c0.81,0.129,1.232,0.192,1.266,0.192
		c0.168,0.032,0.235,0.048,0.202,0.048c0.067,0,0.168-0.016,0.304-0.048c0.134-0.031,0.236-0.048,0.304-0.048
		c0.134,0,0.219,0.032,0.253,0.096c0.877-0.031,2.193-0.176,3.948-0.433c0.033-0.032,0.405-0.169,1.113-0.409
		c0.708-0.24,1.096-0.361,1.164-0.361c0.067,0,0.185,0.145,0.354,0.433C255.949,19.705,255.578,19.881,254.869,20.17z"/>
	<path d="M267.573,24.166c-0.035,0.228-0.203,0.423-0.507,0.586c-0.304,0.163-0.489,0.293-0.557,0.391
		c-0.844,0.391-1.687,0.765-2.531,1.123c-1.046,0.489-1.923,0.766-2.631,0.83c-0.271,0.196-0.658,0.294-1.164,0.294
		c-1.822,0-3.02-0.194-3.593-0.582c-0.338-0.193-0.667-0.411-0.987-0.653c-0.321-0.242-0.498-0.541-0.532-0.895
		c-0.068-0.065-0.101-0.161-0.101-0.291c0-0.645,0.017-0.952,0.051-0.921c0.067-0.193,0.185-0.468,0.354-0.823
		c0.168-0.355,0.286-0.638,0.354-0.847c0.067-0.21,0.202-0.541,0.405-0.993c0.304-0.646,1.248-1.227,2.834-1.743
		c0.134-0.161,0.354-0.242,0.658-0.242c0.371,0,0.826,0.129,1.366,0.388l0.152,1.164c0,0.42-0.48,0.969-1.442,1.648
		c-0.961,0.679-1.695,1.082-2.202,1.212c-0.068,0.064-0.101,0.146-0.101,0.243c0,0.518,0.387,1.01,1.164,1.479
		c0.776,0.468,1.45,0.703,2.024,0.703c0.169,0,1.013-0.131,2.531-0.394c0.101-0.065,0.86-0.312,2.278-0.738
		c0.033-0.065,0.337-0.229,0.911-0.492c0.067-0.032,0.236-0.147,0.506-0.344c0.168-0.131,0.337-0.197,0.506-0.197
		c0.033,0,0.076,0.017,0.127,0.049C267.497,24.151,267.539,24.166,267.573,24.166z M259.171,21.277v-0.193
		c0-0.096-0.152-0.192-0.455-0.289c-0.675,0.289-1.012,0.818-1.012,1.589v0.24h0.152c0.033,0,0.236-0.128,0.607-0.385
		c0.033-0.064,0.185-0.208,0.455-0.433C259.087,21.614,259.171,21.438,259.171,21.277z"/>
	<path d="M285.439,26.042c-0.405,0.321-0.844,0.578-1.316,0.771c-0.135,0-0.278,0.04-0.43,0.12
		c-0.152,0.081-0.312,0.136-0.481,0.168c-1.653,0.32-2.514,0.481-2.581,0.481c-0.338,0-1.485-0.081-3.442-0.241
		c-0.405-0.032-0.928-0.225-1.569-0.577c-0.777-0.289-1.569-1.428-2.379-3.418c-0.135,0.353-0.422,0.787-0.86,1.3
		c-0.439,0.514-0.708,0.915-0.81,1.203v-0.048c-0.641,0.706-1.164,1.043-1.569,1.011c-0.203,0.289-0.49,0.433-0.86,0.433
		c-0.169,0-0.422-0.032-0.76-0.096c-0.236-0.674-0.354-0.946-0.354-0.818c-0.271-0.16-0.507-0.674-0.709-1.541
		c-0.338-1.475-0.506-2.63-0.506-3.465c0-0.385,0.236-0.706,0.708-0.963c0.473-0.256,0.928-0.385,1.367-0.385
		c0.168,0,0.269,0.048,0.303,0.144c0,0.385,0.033,0.962,0.101,1.733c-0.135,0.129-0.202,0.257-0.202,0.385
		c0,0.161,0.067,0.313,0.202,0.457c0.134,0.144,0.202,0.265,0.202,0.361c0,0.064-0.034,0.16-0.101,0.289
		c0.101,0.096,0.193,0.393,0.278,0.89c0.084,0.498,0.211,0.746,0.379,0.746c0.101,0,0.185-0.016,0.253-0.048
		c0.304-0.257,0.76-0.994,1.367-2.214c0.539-1.059,1.029-1.668,1.467-1.829c0.203,0,0.481-0.112,0.835-0.337
		c0.354-0.224,0.615-0.337,0.785-0.337c0.168,0,0.286,0.081,0.354,0.24c-0.068,0.129-0.101,0.354-0.101,0.674
		c0,0.514,0.152,1.091,0.455,1.733c0.438,1.059,0.674,1.621,0.709,1.685c0.81,0.61,1.501,1.027,2.075,1.251
		c0.27,0.096,1.063,0.289,2.379,0.578c0.27,0.065,0.64,0.096,1.113,0.096c0.607,0,1.096-0.031,1.467-0.096
		c0.203,0,0.658-0.144,1.367-0.433c0.269-0.16,0.472-0.24,0.607-0.24L285.439,26.042z"/>
	<path d="M306.391,21.181c-0.169,0.129-0.372,0.353-0.607,0.674c-0.742,0.45-1.89,1.075-3.442,1.877
		c-0.135,0-0.27,0.096-0.405,0.289c-0.271,0.129-0.675,0.337-1.215,0.626c-3.948,1.925-7.187,2.888-9.717,2.888
		c-1.113,0-1.957-0.161-2.531-0.481c-0.203-0.064-0.473-0.192-0.81-0.385c-0.541-0.256-1.013-0.578-1.417-0.962
		c0.033-0.192-0.068-0.417-0.304-0.674l0.051-0.144h-0.203v-0.674h-0.202v-0.914l-0.085-0.048l-0.168,0.048c0-0.096,0-0.224,0-0.385
		c0-0.128,0-0.32,0-0.578c0-0.256,0-0.449,0-0.578c0-0.224,0-0.385,0-0.481c-0.135-0.064-0.304-0.176-0.506-0.337
		c0.134-0.16,0.337-0.385,0.607-0.674c0.101-0.449,0.253-1.059,0.455-1.829c-0.034-0.031-0.051-0.096-0.051-0.192
		c0-0.385,0.143-0.778,0.43-1.179c0.286-0.401,0.633-0.602,1.038-0.602c0.405,0,0.64,0.225,0.708,0.674c0,0.032,0,0.096,0,0.192
		c-0.034,0.097-0.05,0.177-0.05,0.241c0,0.096,0.016,0.177,0.05,0.24l-0.304,1.589c0,0.064,0.033,0.161,0.101,0.289
		c3.576-0.417,6.495-1.027,8.756-1.829c1.146-0.417,1.872-0.626,2.176-0.626c0.134,0,0.202,0.065,0.202,0.193
		c0,0.16-1.147,0.658-3.441,1.492c-1.755,0.642-3.813,1.171-6.175,1.588c-0.372,0.097-0.928,0.209-1.67,0.337
		c-0.101,0.129-0.152,0.674-0.152,1.637c0,0.096,0.026,0.249,0.076,0.457c0.051,0.209,0.059,0.378,0.026,0.505
		c0.134,0.353,0.405,0.867,0.81,1.541l-0.051,0.048c0.877,0.995,2.26,1.492,4.15,1.492c2.665,0,6.697-1.588,12.096-4.765
		c0.101,0,0.286-0.096,0.557-0.289c0.27-0.192,0.506-0.257,0.709-0.192c0.067-0.128,0.134-0.193,0.202-0.193L306.391,21.181z"/>
	<path d="M320.106,19.834c-0.068,0.323-0.439,0.646-1.113,0.969c-0.54,0.259-1.637,0.565-3.29,0.919
		c-0.641,0-1.587,0.049-2.834,0.145c-0.101,0.097-0.557,0.178-1.366,0.242c-0.607,0.065-0.911,0.348-0.911,0.848
		c0,0.501-0.22,1.106-0.658,1.816c-0.372,0.581-0.726,1.146-1.063,1.695c-0.101,0.032-0.388,0.234-0.86,0.605
		c-0.473,0.371-1.013,0.557-1.62,0.557c-0.169,0-0.372-0.056-0.607-0.168c-0.237-0.113-0.422-0.169-0.557-0.169
		c-0.54-0.513-0.81-1.235-0.81-2.166c0-0.064,0.067-0.53,0.203-1.396c0.101-0.738,0.118-1.139,0.05-1.203
		c0.203-0.224,0.507-0.545,0.911-0.963c0.067-0.256,0.261-0.481,0.582-0.674c0.32-0.192,0.497-0.353,0.531-0.481
		c0.203-0.224,0.709-0.449,1.519-0.674c0.304,0.032,0.742,0.217,1.316,0.554c0.573,0.337,1.045,0.505,1.417,0.505
		c0.067,0.065,0.86,0.096,2.379,0.096c1.99,0,4.15-0.385,6.478-1.155C319.904,19.737,320.005,19.769,320.106,19.834z
		 M308.871,22.673c0-0.192-0.119-0.393-0.354-0.602c-0.237-0.209-0.456-0.313-0.658-0.313c-0.54,0-0.894,0.225-1.063,0.674
		c-0.135,0.289-0.253,0.578-0.354,0.866c0.067,0.514,0.134,1.027,0.202,1.54c0.101,0.706,0.354,1.059,0.76,1.059
		c0.202-0.289,0.497-0.834,0.886-1.636C308.676,23.46,308.871,22.93,308.871,22.673z"/>
	<path d="M327.9,24.502c0,0.739-0.565,1.485-1.695,2.238c-1.131,0.754-2.118,1.131-2.961,1.131c-0.338,0-0.734-0.105-1.189-0.313
		c-0.456-0.209-0.683-0.457-0.683-0.746c0-0.16,0.134-0.369,0.405-0.626c0.304-0.385,0.472-0.594,0.506-0.626
		c0.169-0.097,0.32-0.145,0.456-0.145c0.101,0,0.261,0.056,0.481,0.169c0.219,0.112,0.295,0.201,0.227,0.265v0.24
		c0.202,0.161,0.489,0.241,0.86,0.241c0.371,0,0.725-0.048,1.063-0.144c0.033-0.097,0.126-0.233,0.279-0.409
		c0.152-0.176,0.236-0.313,0.253-0.409c0.017-0.096,0.025-0.208,0.025-0.337c0-0.449-0.169-0.706-0.506-0.77
		c-0.641-0.16-0.979-0.241-1.012-0.241c-1.081-0.064-2.093-0.385-3.037-0.962c-0.135-0.385-0.203-0.53-0.203-0.433
		c0-0.064,0.033-0.128,0.101-0.192c0.202-0.449,0.59-1.075,1.164-1.877c0.337-0.32,0.978-0.722,1.923-1.203
		c0.134-0.064,0.286-0.097,0.455-0.097c0.203,0,0.32,0.113,0.354,0.337c0,0.192,0,0.385,0,0.578v0.144l0.051,0.096l-0.051,0.048
		v0.145c-0.506,0.353-0.979,0.529-1.417,0.529c-0.169,0.225-0.253,0.45-0.253,0.674c0,0.385,0.523,0.69,1.569,0.914
		c1.282,0.289,1.991,0.457,2.126,0.505c0.134,0.048,0.27,0.168,0.405,0.361v0.049C327.799,24.085,327.9,24.374,327.9,24.502z"/>
</g>
<line fill="none" stroke="#BCBEC0" stroke-linecap="round" stroke-linejoin="round" stroke-miterlimit="10" x1="0.5" y1="0.5" x2="366.928" y2="0.5"/>
</svg>