<!-- Generator: Adobe Illustrator 19.2.0, SVG Export Plug-In  -->
<svg version="1.1"
	 xmlns="http://www.w3.org/2000/svg" xmlns:xlink="http://www.w3.org/1999/xlink" xmlns:a="http://ns.adobe.com/AdobeSVGViewerExtensions/3.0/"
	 x="0px" y="0px" width="25.057px" height="25.166px" viewBox="0 0 25.057 25.166"
	 style="enable-background:new 0 0 25.057 25.166;" xml:space="preserve">
<style type="text/css">
	.st0{fill:#ECA2C5;}
	.st1{fill-rule:evenodd;clip-rule:evenodd;fill:#E85188;}
</style>
<defs>
</defs>
<g>
	<path class="st0" d="M5.087,0C5.184,0,5.282,0,5.38,0c0.137,0.035,0.18,0.135,0.18,0.264c0,0.039,0.001,0.078,0.001,0.117
		C5.558,1.165,5.555,1.948,5.553,2.732C5.552,3.594,5.551,4.456,5.55,5.317c0,0.237-0.004,0.474,0.004,0.71
		C5.558,6.17,5.617,6.234,5.756,6.236c0.195,0.002,0.39-0.009,0.584-0.027c0.109-0.01,0.182-0.081,0.201-0.193
		C6.553,5.944,6.564,5.87,6.565,5.798c0.003-0.273,0.003-0.547,0.003-0.82C6.567,3.415,6.566,1.853,6.565,0.29
		c0-0.164,0-0.245,0.192-0.29c3.79,0,7.58,0,11.371,0c0.026,0.003,0.053,0.008,0.079,0.009c0.676,0.002,1.353,0.004,2.029,0.003
		c0.343,0,0.682,0.034,1.016,0.115c1.051,0.252,1.919,0.804,2.622,1.618c0.561,0.65,0.933,1.396,1.087,2.245
		c0.082,0.454,0.092,0.913,0.095,1.372c0.006,0.894-0.002,1.787-0.004,2.681c0,0.14-0.039,0.177-0.179,0.179
		c-0.029,0.001-0.059,0.001-0.088,0.001c-2.488,0-4.977-0.001-7.465,0.003c-0.166,0-0.294-0.048-0.413-0.162
		c-0.327-0.313-0.686-0.587-1.075-0.821c-1.384-0.833-2.873-1.124-4.465-0.832c-1.239,0.227-2.313,0.795-3.235,1.649
		C8.009,8.172,7.877,8.223,7.71,8.223C5.207,8.22,2.704,8.221,0.201,8.221c-0.153,0-0.189-0.036-0.189-0.191
		c0-0.225,0.005-0.449,0.004-0.674C0.01,6.409-0.03,5.462,0.045,4.515c0.046-0.574,0.174-1.127,0.418-1.65
		c0.368-0.791,0.935-1.417,1.62-1.944c0.01-0.008,0.024-0.011,0.038-0.017c0.001,0.013,0.003,0.02,0.003,0.028
		C2.123,2.426,2.121,3.92,2.12,5.415c0,0.207-0.005,0.415,0.004,0.622c0.006,0.14,0.065,0.199,0.203,0.2
		c0.187,0.001,0.376-0.009,0.562-0.028c0.125-0.013,0.186-0.087,0.202-0.216c0.01-0.08,0.016-0.161,0.016-0.241
		c0.002-1.69,0.002-3.38,0.003-5.07c0-0.037-0.001-0.073-0.006-0.11c-0.023-0.169-0.013-0.19,0.138-0.261
		C3.394,0.24,3.547,0.179,3.716,0.167C3.838,0.158,3.868,0.19,3.851,0.308C3.845,0.352,3.841,0.396,3.841,0.439
		c0,1.529,0.001,3.057,0.002,4.586c0,0.335-0.003,0.669-0.001,1.004c0,0.143,0.054,0.205,0.197,0.208
		C4.219,6.241,4.4,6.238,4.58,6.224c0.166-0.013,0.237-0.087,0.26-0.255c0.013-0.094,0.017-0.19,0.017-0.285
		C4.86,4.788,4.864,3.892,4.863,2.996C4.862,2.107,4.855,1.218,4.851,0.329C4.849,0.091,4.872,0.059,5.087,0z M18.536,4.234
		L18.536,4.234c0.001,0.466-0.007,0.933,0.003,1.399c0.009,0.453,0.332,0.756,0.787,0.756c0.881,0.001,1.763,0.001,2.644,0
		c0.47-0.001,0.799-0.324,0.801-0.795c0.003-0.903,0.003-1.807,0-2.71c-0.002-0.473-0.315-0.795-0.788-0.799
		c-0.888-0.007-1.777-0.007-2.666,0c-0.464,0.004-0.767,0.302-0.779,0.764C18.526,3.312,18.536,3.773,18.536,4.234z"/>
	<path class="st1" d="M7.303,8.985c-0.972,1.448-1.385,3.012-1.1,4.734c0.249,1.504,0.928,2.773,2.085,3.778
		c2.314,2.011,5.633,2.144,8.064,0.312c1.38-1.04,2.209-2.425,2.479-4.129c0.269-1.705-0.143-3.261-1.109-4.695
		c0.039,0,0.065,0,0.09,0c2.078-0.001,4.156-0.002,6.235-0.003c0.23,0,0.459-0.002,0.689-0.002c0.044,0,0.088,0.001,0.132,0.006
		c0.107,0.013,0.167,0.066,0.175,0.173c0.01,0.143,0.012,0.288,0.011,0.432c-0.001,1.04-0.004,2.081-0.005,3.121
		c-0.002,2.537,0.003,5.075-0.006,7.612c-0.005,1.246-0.457,2.325-1.295,3.24c-0.739,0.806-1.65,1.317-2.727,1.516
		c-0.272,0.05-0.553,0.078-0.829,0.079c-5.089,0.004-10.179,0.015-15.268-0.003c-2.299-0.008-4.205-1.533-4.756-3.723
		c-0.109-0.435-0.154-0.878-0.153-1.327c0.002-2.366,0.002-4.733,0-7.099c-0.001-1.211-0.006-2.423-0.008-3.634
		c0-0.054,0.003-0.107,0.009-0.161c0.016-0.151,0.082-0.219,0.236-0.227C0.41,8.977,0.571,8.979,0.732,8.98
		c2.156,0.001,4.313,0.003,6.469,0.005C7.23,8.985,7.259,8.985,7.303,8.985z"/>
	<path class="st1" d="M12.546,7.765c2.725,0.001,4.933,2.216,4.928,4.945c-0.004,2.738-2.205,4.924-4.955,4.923
		c-2.727-0.001-4.936-2.212-4.936-4.94C7.584,9.977,9.813,7.764,12.546,7.765z M16.184,12.758c0.011-2.022-1.561-3.724-3.687-3.694
		c-2.015,0.028-3.644,1.706-3.583,3.703c0.062,2.017,1.687,3.633,3.737,3.577C14.583,16.291,16.204,14.658,16.184,12.758z"/>
</g>
</svg>