<!-- Generator: Adobe Illustrator 19.2.0, SVG Export Plug-In  -->
<svg version="1.1"
	 xmlns="http://www.w3.org/2000/svg" xmlns:xlink="http://www.w3.org/1999/xlink" xmlns:a="http://ns.adobe.com/AdobeSVGViewerExtensions/3.0/"
	 x="0px" y="0px" width="25.2px" height="25.168px" viewBox="0 0 25.2 25.168" style="enable-background:new 0 0 25.2 25.168;"
	 xml:space="preserve">
<style type="text/css">
	.st0{fill:#F5CFDB;}
	.st1{fill:#E98DB9;}
	.st2{fill:#E85188;}
	.st3{fill:#FFFFFF;}
</style>
<defs>
</defs>
<g>
	<path class="st0" d="M20.602,25.168H4.598c-2.527,0-4.582-2.055-4.582-4.582V4.582C0.016,2.056,2.072,0,4.598,0h16.003
		c2.527,0,4.582,2.056,4.582,4.582v16.003C25.184,23.112,23.128,25.168,20.602,25.168z"/>
	<path class="st1" d="M20.995,0H4.205C1.882,0,0,1.883,0,4.205v4.028c3.403,1.09,7.799,1.748,12.6,1.748s9.197-0.658,12.6-1.748
		V4.205C25.2,1.883,23.318,0,20.995,0z"/>
	<path class="st2" d="M18.161,22.349h-4.04v-9.766h-2.02V9.217h2.02v-2.02c0-2.746,1.14-4.379,4.378-4.379h2.697v3.366H19.51
		c-1.261,0-1.345,0.471-1.345,1.348l-0.005,1.685h3.054l-0.357,3.366h-2.696V22.349z"/>
	<path class="st3" d="M19.797,24.417H5.404c-2.556,0-4.636-2.08-4.636-4.636V5.387c0-2.556,2.08-4.636,4.636-4.636h14.393
		c2.556,0,4.636,2.08,4.636,4.636V19.78C24.433,22.337,22.353,24.417,19.797,24.417z M5.404,1.614c-2.081,0-3.774,1.693-3.774,3.773
		V19.78c0,2.081,1.693,3.774,3.774,3.774h14.393c2.081,0,3.773-1.693,3.773-3.774V5.387c0-2.081-1.693-3.773-3.773-3.773H5.404z"/>
</g>
</svg>